{"glyphs":{"0":{"ha":683,"x_min":100,"x_max":583,"o":"m 337 -16 q 214 22 268 -16 q 131 126 161 60 q 100 279 100 193 q 132 441 100 371 q 219 552 163 512 q 347 593 275 593 q 470 555 417 593 q 553 452 524 518 q 583 298 583 385 q 551 136 583 207 q 464 25 519 65 q 337 -16 408 -16 m 342 5 q 439 84 404 5 q 475 296 475 163 q 439 497 475 423 q 341 572 403 572 q 244 494 279 572 q 208 282 208 417 q 244 79 208 153 q 342 5 279 5 z "},"1":{"ha":683,"x_min":189,"x_max":494,"o":"m 197 0 l 197 21 q 274 39 248 21 q 299 108 299 56 l 299 402 q 288 483 299 458 q 253 515 277 509 q 189 522 229 522 l 189 543 q 313 557 264 545 q 400 600 362 570 l 400 108 q 424 38 400 54 q 494 21 448 21 l 494 0 q 433 3 474 1 q 351 5 392 5 q 263 3 307 5 q 197 0 220 1 z "},"2":{"ha":683,"x_min":146,"x_max":538,"o":"m 538 -5 q 507 -1 530 -2 q 463 0 483 0 l 146 0 l 146 20 q 261 147 207 85 q 350 279 316 209 q 385 436 385 349 q 362 532 385 503 q 301 561 340 561 q 239 546 264 561 q 214 511 214 530 q 225 485 214 498 q 248 458 237 473 q 259 422 259 443 q 241 386 259 397 q 202 374 224 374 q 161 390 177 374 q 146 437 146 406 q 172 515 146 479 q 243 571 198 550 q 343 593 288 593 q 452 556 412 593 q 492 452 492 520 q 454 331 492 387 q 356 217 416 275 q 233 90 297 160 l 233 86 l 437 86 q 514 155 509 86 l 533 155 q 534 55 534 86 q 538 -5 535 24 z "},"3":{"ha":683,"x_min":136,"x_max":548,"o":"m 319 -168 q 188 -136 241 -168 q 136 -55 136 -103 q 151 -12 136 -28 q 193 5 167 5 q 241 -40 241 5 q 231 -79 241 -62 q 221 -113 221 -97 q 284 -141 221 -141 q 399 -96 359 -141 q 439 31 439 -51 q 349 208 439 152 q 319 200 333 204 q 295 196 305 196 q 273 214 273 196 q 300 233 273 233 q 321 231 309 233 q 349 227 333 229 q 428 400 428 293 q 395 516 428 474 q 304 558 361 558 q 244 545 269 558 q 220 513 220 532 q 231 487 220 500 q 253 460 242 474 q 264 427 264 446 q 249 391 264 405 q 207 377 233 377 q 165 393 181 377 q 150 437 150 409 q 179 515 150 479 q 255 571 208 550 q 358 593 302 593 q 488 547 439 593 q 536 427 536 501 q 493 307 536 361 q 368 215 449 252 q 498 151 448 203 q 548 28 548 99 q 484 -114 548 -59 q 319 -168 420 -168 z "},"4":{"ha":683,"x_min":117,"x_max":567,"o":"m 461 -158 l 368 -158 l 368 38 l 117 38 l 117 60 l 441 589 l 461 589 l 461 126 l 567 126 l 567 38 l 461 38 l 461 -158 m 182 126 l 368 126 l 368 432 l 182 126 z "},"5":{"ha":683,"x_min":148,"x_max":535,"o":"m 195 210 q 182 226 182 210 q 210 264 182 248 l 245 576 l 402 576 q 463 597 444 576 q 485 671 481 618 l 507 671 q 507 556 507 599 q 510 484 508 513 q 483 488 503 487 q 441 490 462 490 l 256 490 l 231 273 q 294 299 266 292 q 353 305 322 305 q 487 244 439 305 q 535 77 535 182 q 507 -49 535 7 q 429 -136 478 -104 q 320 -168 380 -168 q 198 -126 248 -168 q 148 -23 148 -83 q 163 26 148 8 q 205 44 178 44 q 253 -1 253 44 q 241 -40 253 -25 q 229 -81 229 -54 q 296 -142 229 -142 q 392 -83 357 -142 q 427 76 427 -24 q 392 223 427 171 q 294 275 356 275 q 259 270 275 275 q 228 257 242 264 q 218 223 227 236 q 195 210 209 210 z "},"6":{"ha":683,"x_min":136,"x_max":548,"o":"m 347 -16 q 190 80 244 -16 q 136 356 136 175 q 166 595 136 493 q 251 752 196 696 q 378 808 305 808 q 458 791 421 808 q 518 746 495 774 q 541 683 541 718 q 527 641 541 657 q 486 625 512 625 q 451 638 465 625 q 437 672 437 651 q 446 709 437 693 q 454 743 454 726 q 437 774 454 762 q 393 787 419 787 q 283 685 320 787 q 243 385 245 583 q 297 474 261 447 q 382 502 334 502 q 503 434 458 502 q 548 253 548 366 q 493 57 548 130 q 347 -16 439 -16 m 344 471 q 284 443 311 471 q 243 351 258 415 q 273 95 245 186 q 349 5 301 5 q 416 67 391 5 q 440 237 440 129 q 414 409 440 347 q 344 471 389 471 z "},"7":{"ha":683,"x_min":152,"x_max":531,"o":"m 321 -165 q 284 -146 296 -165 q 272 -103 272 -127 q 296 80 272 -7 q 355 245 319 168 q 426 383 390 321 q 486 486 462 444 l 486 490 l 260 490 q 199 469 218 490 q 177 394 180 448 l 155 394 q 155 512 155 471 q 152 581 154 554 q 184 577 159 578 q 231 576 209 576 l 531 576 l 531 555 q 464 394 502 478 q 396 210 425 311 q 368 -20 368 109 q 370 -69 368 -47 q 372 -109 372 -91 q 358 -150 372 -134 q 321 -165 345 -165 z "},"8":{"ha":683,"x_min":136,"x_max":547,"o":"m 334 -16 q 191 38 247 -16 q 136 175 136 92 q 177 308 136 245 q 294 414 218 370 q 210 507 247 458 q 173 628 173 556 q 222 759 173 709 q 350 808 272 808 q 470 764 423 808 q 516 652 516 720 q 389 452 516 547 q 464 383 427 418 q 524 304 500 348 q 547 199 547 260 q 488 45 547 105 q 334 -16 429 -16 m 261 675 q 295 555 261 604 q 374 465 329 506 q 415 544 401 500 q 429 631 429 588 q 401 743 429 699 q 333 787 374 787 q 281 756 302 787 q 261 675 261 726 m 233 194 q 267 58 233 112 q 351 5 300 5 q 423 46 395 5 q 452 151 452 87 q 431 253 452 209 q 377 332 410 297 q 308 401 344 368 q 252 309 272 363 q 233 194 233 254 z "},"9":{"ha":683,"x_min":136,"x_max":548,"o":"m 311 -168 q 228 -150 266 -168 q 166 -103 189 -132 q 142 -38 142 -73 q 157 5 142 -10 q 197 21 172 21 q 232 8 219 21 q 245 -26 245 -4 q 237 -63 245 -47 q 229 -97 229 -80 q 249 -132 229 -118 q 298 -146 269 -146 q 440 211 440 -146 q 440 228 440 220 q 390 163 424 186 q 308 140 355 140 q 183 200 230 140 q 136 357 136 260 q 189 528 136 463 q 331 593 243 593 q 492 499 435 593 q 548 235 548 406 q 484 -59 548 50 q 311 -168 420 -168 m 243 362 q 342 172 243 172 q 402 194 377 172 q 439 252 428 215 q 407 488 436 404 q 330 572 378 572 q 268 514 292 572 q 243 362 243 457 z "},"A":{"ha":963,"x_min":5,"x_max":956,"o":"m 5 0 l 5 21 q 92 45 58 26 q 147 113 125 64 l 459 806 l 493 806 l 821 100 q 870 43 839 62 q 956 21 901 24 l 956 0 q 876 2 919 1 q 789 3 833 3 q 672 2 724 3 q 590 0 620 1 l 590 21 q 707 43 685 22 q 703 120 728 64 l 621 297 l 254 297 l 235 256 q 204 79 180 139 q 319 21 228 19 l 319 0 q 239 2 288 1 q 140 3 191 3 q 85 2 111 3 q 5 0 59 1 m 264 318 l 612 318 l 441 715 l 264 318 z "},"Á":{"ha":963,"x_min":5,"x_max":956,"o":"m 5 0 l 5 21 q 92 45 58 26 q 147 113 125 64 l 459 806 l 493 806 l 821 100 q 870 43 839 62 q 956 21 901 24 l 956 0 q 876 2 919 1 q 789 3 833 3 q 672 2 724 3 q 590 0 620 1 l 590 21 q 707 43 685 22 q 703 120 728 64 l 621 297 l 254 297 l 235 256 q 204 79 180 139 q 319 21 228 19 l 319 0 q 239 2 288 1 q 140 3 191 3 q 85 2 111 3 q 5 0 59 1 m 264 318 l 612 318 l 441 715 l 264 318 m 433 867 l 425 882 q 488 937 468 910 q 517 987 508 964 q 535 1026 526 1010 q 565 1048 545 1042 q 612 1048 590 1056 q 645 1023 633 1041 q 651 985 657 1004 q 622 955 646 966 q 581 928 602 941 q 526 900 560 915 q 433 867 492 886 z "},"Â":{"ha":963,"x_min":5,"x_max":956,"o":"m 5 0 l 5 21 q 92 45 58 26 q 147 113 125 64 l 459 806 l 493 806 l 821 100 q 870 43 839 62 q 956 21 901 24 l 956 0 q 876 2 919 1 q 789 3 833 3 q 672 2 724 3 q 590 0 620 1 l 590 21 q 707 43 685 22 q 703 120 728 64 l 621 297 l 254 297 l 235 256 q 204 79 180 139 q 319 21 228 19 l 319 0 q 239 2 288 1 q 140 3 191 3 q 85 2 111 3 q 5 0 59 1 m 264 318 l 612 318 l 441 715 l 264 318 m 668 884 l 656 869 l 452 978 l 307 869 l 296 884 l 469 1046 l 497 1046 l 668 884 z "},"Ä":{"ha":963,"x_min":5,"x_max":956,"o":"m 5 0 l 5 21 q 92 45 58 26 q 147 113 125 64 l 459 806 l 493 806 l 821 100 q 870 43 839 62 q 956 21 901 24 l 956 0 q 876 2 919 1 q 789 3 833 3 q 672 2 724 3 q 590 0 620 1 l 590 21 q 707 43 685 22 q 703 120 728 64 l 621 297 l 254 297 l 235 256 q 204 79 180 139 q 319 21 228 19 l 319 0 q 239 2 288 1 q 140 3 191 3 q 85 2 111 3 q 5 0 59 1 m 264 318 l 612 318 l 441 715 l 264 318 m 581 865 q 534 884 553 865 q 516 930 516 903 q 534 976 516 957 q 581 994 553 994 q 626 976 608 994 q 645 930 645 957 q 626 884 645 903 q 581 865 608 865 m 384 865 q 338 884 357 865 q 319 930 319 903 q 338 976 319 957 q 384 994 357 994 q 429 976 410 994 q 448 930 448 957 q 429 884 448 903 q 384 865 410 865 z "},"À":{"ha":963,"x_min":5,"x_max":956,"o":"m 5 0 l 5 21 q 92 45 58 26 q 147 113 125 64 l 459 806 l 493 806 l 821 100 q 870 43 839 62 q 956 21 901 24 l 956 0 q 876 2 919 1 q 789 3 833 3 q 672 2 724 3 q 590 0 620 1 l 590 21 q 707 43 685 22 q 703 120 728 64 l 621 297 l 254 297 l 235 256 q 204 79 180 139 q 319 21 228 19 l 319 0 q 239 2 288 1 q 140 3 191 3 q 85 2 111 3 q 5 0 59 1 m 264 318 l 612 318 l 441 715 l 264 318 m 540 882 l 532 867 q 439 900 473 886 q 384 928 405 915 q 343 955 363 941 q 314 985 319 966 q 320 1023 308 1004 q 353 1048 332 1041 q 400 1048 375 1056 q 430 1026 420 1042 q 448 987 439 1010 q 477 937 457 964 q 540 882 497 910 z "},"Å":{"ha":963,"x_min":5,"x_max":956,"o":"m 5 0 l 5 21 q 92 45 58 26 q 147 113 125 64 l 459 806 l 493 806 l 821 100 q 870 43 839 62 q 956 21 901 24 l 956 0 q 876 2 919 1 q 789 3 833 3 q 672 2 724 3 q 590 0 620 1 l 590 21 q 707 43 685 22 q 703 120 728 64 l 621 297 l 254 297 l 235 256 q 204 79 180 139 q 319 21 228 19 l 319 0 q 239 2 288 1 q 140 3 191 3 q 85 2 111 3 q 5 0 59 1 m 264 318 l 612 318 l 441 715 l 264 318 m 482 831 q 398 862 433 831 q 363 940 363 892 q 398 1018 363 987 q 482 1048 433 1048 q 566 1018 530 1048 q 602 940 602 987 q 566 862 602 892 q 482 831 530 831 m 482 844 q 556 870 525 844 q 587 939 587 897 q 556 1009 587 983 q 482 1036 526 1036 q 408 1009 439 1036 q 377 939 377 983 q 408 870 377 897 q 482 844 439 844 z "},"Ã":{"ha":963,"x_min":5,"x_max":956,"o":"m 5 0 l 5 21 q 92 45 58 26 q 147 113 125 64 l 459 806 l 493 806 l 821 100 q 870 43 839 62 q 956 21 901 24 l 956 0 q 876 2 919 1 q 789 3 833 3 q 672 2 724 3 q 590 0 620 1 l 590 21 q 707 43 685 22 q 703 120 728 64 l 621 297 l 254 297 l 235 256 q 204 79 180 139 q 319 21 228 19 l 319 0 q 239 2 288 1 q 140 3 191 3 q 85 2 111 3 q 5 0 59 1 m 264 318 l 612 318 l 441 715 l 264 318 m 574 873 q 504 889 535 873 q 441 920 472 905 q 372 936 410 936 q 326 919 341 936 q 303 865 311 901 l 286 871 q 319 971 288 938 q 389 1004 350 1004 q 460 988 429 1004 q 524 956 492 972 q 591 940 555 940 q 637 958 622 940 q 661 1011 652 976 l 678 1002 q 645 906 677 938 q 574 873 614 873 z "},"Æ":{"ha":1392,"x_min":-12,"x_max":1299,"o":"m -12 0 l -12 21 q 119 106 56 59 q 218 195 181 153 l 686 728 q 646 761 677 753 q 545 774 614 770 l 545 794 q 673 793 627 793 q 742 792 719 792 l 806 865 l 831 865 l 767 791 q 783 791 779 791 q 796 791 786 791 q 836 791 806 791 q 931 791 865 791 q 1053 791 1008 791 q 1125 791 1099 791 q 1172 791 1152 791 q 1216 794 1192 792 q 1216 705 1212 757 q 1234 589 1221 653 l 1213 589 q 1145 696 1179 656 q 1070 753 1112 736 q 968 770 1028 770 l 798 770 l 798 410 l 930 410 q 1022 431 990 410 q 1066 481 1054 452 q 1081 532 1079 509 q 1086 558 1084 555 l 1106 558 q 1101 490 1102 516 q 1100 443 1100 463 q 1100 399 1100 422 q 1101 379 1100 391 q 1104 335 1102 366 q 1110 239 1106 304 l 1093 239 q 1085 280 1089 255 q 1066 330 1080 304 q 1020 372 1052 355 q 930 389 988 389 l 798 389 l 798 118 q 807 58 798 78 q 844 32 816 38 q 930 25 873 25 q 1098 46 1034 25 q 1204 118 1163 66 q 1278 264 1245 170 l 1299 264 q 1281 104 1285 164 q 1282 1 1277 43 q 1231 3 1251 3 q 1182 4 1211 4 q 1101 5 1154 5 q 955 5 1049 5 q 870 4 919 5 q 772 3 822 3 q 680 2 722 2 q 612 1 637 1 q 589 1 587 1 l 589 22 q 657 32 635 25 q 686 59 680 39 q 693 118 693 79 l 693 389 l 418 389 l 277 227 q 214 128 227 168 q 214 65 201 88 q 253 31 227 41 q 305 21 279 21 l 305 0 q 260 2 304 1 q 153 3 215 3 q 110 3 130 3 q 62 2 90 3 q -12 0 35 1 m 693 677 q 692 705 693 694 l 436 410 l 693 410 l 693 677 z "},"B":{"ha":935,"x_min":65,"x_max":868,"o":"m 65 0 l 65 21 q 159 31 128 23 q 200 59 190 39 q 210 117 210 79 l 210 676 q 200 735 210 715 q 159 763 190 755 q 65 772 128 770 l 65 793 q 142 792 94 792 q 256 791 191 791 q 346 792 300 791 q 428 792 391 792 q 482 793 465 793 q 706 746 626 793 q 787 612 787 699 q 727 487 787 530 q 532 417 667 444 l 532 416 q 868 218 868 406 q 773 58 868 115 q 509 0 678 0 q 403 2 475 0 q 255 3 332 3 q 140 3 188 3 q 65 0 92 2 m 444 771 l 315 770 l 315 422 l 443 422 q 618 468 558 422 q 677 601 677 514 q 622 730 677 690 q 444 771 566 770 m 443 24 q 755 223 755 24 q 491 401 755 401 l 315 401 l 315 113 q 325 56 315 75 q 361 31 334 37 q 443 24 389 24 z "},"C":{"ha":930,"x_min":73,"x_max":839,"o":"m 477 -16 q 264 34 355 -16 q 123 174 173 84 q 73 384 73 264 q 125 606 73 511 q 271 755 178 701 q 486 808 364 808 q 609 792 555 808 q 703 759 663 776 q 766 743 742 743 q 799 758 787 743 q 817 806 810 772 l 838 806 q 836 742 837 777 q 834 654 834 707 q 833 519 833 601 l 812 519 q 699 721 784 653 q 490 789 614 789 q 265 686 346 789 q 184 399 184 583 q 266 109 184 214 q 490 3 347 3 q 700 69 614 3 q 813 274 785 135 l 835 274 q 835 145 835 197 q 837 57 836 94 q 839 -13 838 20 l 818 -13 q 800 35 811 21 q 767 49 788 49 q 702 33 741 49 q 607 0 662 16 q 477 -16 551 -16 z "},"Ç":{"ha":930,"x_min":73,"x_max":839,"o":"m 477 -16 q 264 34 355 -16 q 123 174 173 84 q 73 384 73 264 q 125 606 73 511 q 271 755 178 701 q 486 808 364 808 q 609 792 555 808 q 703 759 663 776 q 766 743 742 743 q 799 758 787 743 q 817 806 810 772 l 838 806 q 836 742 837 777 q 834 654 834 707 q 833 519 833 601 l 812 519 q 699 721 784 653 q 490 789 614 789 q 265 686 346 789 q 184 399 184 583 q 266 109 184 214 q 490 3 347 3 q 700 69 614 3 q 813 274 785 135 l 835 274 q 835 145 835 197 q 837 57 836 94 q 839 -13 838 20 l 818 -13 q 800 35 811 21 q 767 49 788 49 q 702 33 741 49 q 607 0 662 16 q 477 -16 551 -16 m 460 -275 q 419 -271 441 -275 q 389 -259 397 -267 l 392 -245 q 429 -254 407 -254 q 492 -232 468 -254 q 516 -169 516 -210 q 503 -131 516 -144 q 469 -117 490 -117 q 446 -118 459 -117 q 429 -121 433 -120 l 471 -6 l 488 -6 l 451 -109 q 484 -90 467 -97 q 522 -83 500 -83 q 574 -106 554 -83 q 595 -165 595 -129 q 557 -245 595 -215 q 460 -275 519 -275 z "},"D":{"ha":1072,"x_min":64,"x_max":994,"o":"m 64 0 l 64 21 q 159 31 129 22 q 199 59 190 39 q 208 117 208 80 l 208 676 q 199 733 208 713 q 159 762 190 753 q 64 772 129 771 l 64 793 q 149 792 100 793 q 264 791 197 791 q 380 792 324 791 q 470 793 435 793 q 865 695 735 793 q 994 412 994 598 q 854 104 994 208 q 464 0 715 0 q 380 2 429 0 q 267 3 331 3 q 140 2 198 3 q 64 0 83 1 m 441 20 q 778 113 674 20 q 882 399 882 205 q 777 684 882 595 q 442 772 671 772 l 313 772 l 313 115 q 322 53 313 73 q 358 27 331 33 q 441 20 386 20 z "},"Ð":{"ha":1072,"x_min":64,"x_max":994,"o":"m 64 0 l 64 21 q 159 31 129 22 q 199 59 190 39 q 208 117 208 80 l 208 389 l 92 389 l 92 410 l 208 410 l 208 676 q 199 733 208 713 q 159 762 190 753 q 64 772 129 771 l 64 793 q 149 792 100 793 q 264 791 197 791 q 380 792 324 791 q 470 793 435 793 q 865 695 735 793 q 994 412 994 598 q 854 104 994 208 q 464 0 715 0 q 380 2 429 0 q 267 3 331 3 q 140 2 198 3 q 64 0 83 1 m 441 20 q 778 113 674 20 q 882 399 882 205 q 777 684 882 595 q 442 772 671 772 l 313 772 l 313 410 l 486 410 l 486 389 l 313 389 l 313 115 q 322 53 313 73 q 358 27 331 33 q 441 20 386 20 z "},"E":{"ha":865,"x_min":58,"x_max":784,"o":"m 58 0 l 58 21 q 141 31 114 23 q 177 59 168 39 q 186 117 186 79 l 186 676 q 177 735 186 715 q 141 763 168 755 q 58 772 114 770 l 58 793 q 221 790 121 791 q 454 789 321 789 q 578 790 506 789 q 712 793 651 790 q 730 588 709 718 l 709 588 q 658 696 684 656 q 596 752 632 736 q 505 769 561 769 l 290 769 l 290 410 l 401 410 q 514 446 479 410 q 560 566 549 483 l 578 566 q 575 465 574 499 q 575 399 575 430 q 576 368 575 385 q 578 319 576 351 q 583 231 580 288 l 564 231 q 540 327 557 293 q 491 375 524 361 q 401 389 458 389 l 290 389 l 290 117 q 298 57 290 77 q 331 31 307 37 q 406 24 356 24 l 454 24 q 604 45 547 24 q 696 117 661 65 q 763 263 732 169 l 784 263 q 768 113 772 177 q 765 0 764 49 q 627 2 703 1 q 454 3 551 3 q 222 2 321 3 q 58 0 122 1 z "},"É":{"ha":865,"x_min":58,"x_max":784,"o":"m 58 0 l 58 21 q 141 31 114 23 q 177 59 168 39 q 186 117 186 79 l 186 676 q 177 735 186 715 q 141 763 168 755 q 58 772 114 770 l 58 793 q 221 790 121 791 q 454 789 321 789 q 578 790 506 789 q 712 793 651 790 q 730 588 709 718 l 709 588 q 658 696 684 656 q 596 752 632 736 q 505 769 561 769 l 290 769 l 290 410 l 401 410 q 514 446 479 410 q 560 566 549 483 l 578 566 q 575 465 574 499 q 575 399 575 430 q 576 368 575 385 q 578 319 576 351 q 583 231 580 288 l 564 231 q 540 327 557 293 q 491 375 524 361 q 401 389 458 389 l 290 389 l 290 117 q 298 57 290 77 q 331 31 307 37 q 406 24 356 24 l 454 24 q 604 45 547 24 q 696 117 661 65 q 763 263 732 169 l 784 263 q 768 113 772 177 q 765 0 764 49 q 627 2 703 1 q 454 3 551 3 q 222 2 321 3 q 58 0 122 1 m 368 867 l 360 882 q 423 937 403 910 q 452 987 443 964 q 470 1026 461 1010 q 500 1048 479 1042 q 547 1048 525 1056 q 580 1023 568 1041 q 586 985 592 1004 q 557 955 581 966 q 516 928 536 941 q 461 900 495 915 q 368 867 427 886 z "},"Ê":{"ha":865,"x_min":58,"x_max":784,"o":"m 58 0 l 58 21 q 141 31 114 23 q 177 59 168 39 q 186 117 186 79 l 186 676 q 177 735 186 715 q 141 763 168 755 q 58 772 114 770 l 58 793 q 221 790 121 791 q 454 789 321 789 q 578 790 506 789 q 712 793 651 790 q 730 588 709 718 l 709 588 q 658 696 684 656 q 596 752 632 736 q 505 769 561 769 l 290 769 l 290 410 l 401 410 q 514 446 479 410 q 560 566 549 483 l 578 566 q 575 465 574 499 q 575 399 575 430 q 576 368 575 385 q 578 319 576 351 q 583 231 580 288 l 564 231 q 540 327 557 293 q 491 375 524 361 q 401 389 458 389 l 290 389 l 290 117 q 298 57 290 77 q 331 31 307 37 q 406 24 356 24 l 454 24 q 604 45 547 24 q 696 117 661 65 q 763 263 732 169 l 784 263 q 768 113 772 177 q 765 0 764 49 q 627 2 703 1 q 454 3 551 3 q 222 2 321 3 q 58 0 122 1 m 603 884 l 591 869 l 387 978 l 242 869 l 231 884 l 404 1046 l 432 1046 l 603 884 z "},"Ë":{"ha":865,"x_min":58,"x_max":784,"o":"m 58 0 l 58 21 q 141 31 114 23 q 177 59 168 39 q 186 117 186 79 l 186 676 q 177 735 186 715 q 141 763 168 755 q 58 772 114 770 l 58 793 q 221 790 121 791 q 454 789 321 789 q 578 790 506 789 q 712 793 651 790 q 730 588 709 718 l 709 588 q 658 696 684 656 q 596 752 632 736 q 505 769 561 769 l 290 769 l 290 410 l 401 410 q 514 446 479 410 q 560 566 549 483 l 578 566 q 575 465 574 499 q 575 399 575 430 q 576 368 575 385 q 578 319 576 351 q 583 231 580 288 l 564 231 q 540 327 557 293 q 491 375 524 361 q 401 389 458 389 l 290 389 l 290 117 q 298 57 290 77 q 331 31 307 37 q 406 24 356 24 l 454 24 q 604 45 547 24 q 696 117 661 65 q 763 263 732 169 l 784 263 q 768 113 772 177 q 765 0 764 49 q 627 2 703 1 q 454 3 551 3 q 222 2 321 3 q 58 0 122 1 m 515 865 q 469 884 488 865 q 451 930 451 903 q 469 976 451 957 q 515 994 488 994 q 561 976 543 994 q 580 930 580 957 q 561 884 580 903 q 515 865 543 865 m 319 865 q 273 884 292 865 q 254 930 254 903 q 273 976 254 957 q 319 994 292 994 q 364 976 345 994 q 383 930 383 957 q 364 884 383 903 q 319 865 345 865 z "},"È":{"ha":865,"x_min":58,"x_max":784,"o":"m 58 0 l 58 21 q 141 31 114 23 q 177 59 168 39 q 186 117 186 79 l 186 676 q 177 735 186 715 q 141 763 168 755 q 58 772 114 770 l 58 793 q 221 790 121 791 q 454 789 321 789 q 578 790 506 789 q 712 793 651 790 q 730 588 709 718 l 709 588 q 658 696 684 656 q 596 752 632 736 q 505 769 561 769 l 290 769 l 290 410 l 401 410 q 514 446 479 410 q 560 566 549 483 l 578 566 q 575 465 574 499 q 575 399 575 430 q 576 368 575 385 q 578 319 576 351 q 583 231 580 288 l 564 231 q 540 327 557 293 q 491 375 524 361 q 401 389 458 389 l 290 389 l 290 117 q 298 57 290 77 q 331 31 307 37 q 406 24 356 24 l 454 24 q 604 45 547 24 q 696 117 661 65 q 763 263 732 169 l 784 263 q 768 113 772 177 q 765 0 764 49 q 627 2 703 1 q 454 3 551 3 q 222 2 321 3 q 58 0 122 1 m 475 882 l 467 867 q 374 900 408 886 q 319 928 340 915 q 278 955 298 941 q 249 985 254 966 q 255 1023 243 1004 q 288 1048 267 1041 q 335 1048 310 1056 q 365 1026 355 1042 q 383 987 374 1010 q 412 937 392 964 q 475 882 432 910 z "},"F":{"ha":756,"x_min":57,"x_max":709,"o":"m 57 0 l 57 21 q 137 34 111 26 q 172 61 163 42 q 180 117 180 79 l 180 676 q 172 735 180 715 q 137 763 163 755 q 57 772 111 770 l 57 793 q 214 790 117 791 q 442 789 311 789 q 564 790 494 789 q 690 793 633 790 q 694 695 690 753 q 709 564 699 637 l 688 564 q 639 684 664 639 q 579 749 614 729 q 490 769 544 769 l 285 769 l 285 398 l 391 398 q 499 435 467 398 q 544 555 532 472 l 562 555 q 558 454 557 489 q 559 387 559 418 q 559 341 559 364 q 562 284 560 317 q 566 197 564 251 l 547 197 q 525 307 541 267 q 477 362 509 346 q 391 378 446 378 l 285 378 l 285 117 q 295 64 285 83 q 339 36 306 45 q 441 21 373 26 l 441 0 q 359 3 412 2 q 233 3 306 3 q 127 2 172 3 q 57 0 83 1 z "},"G":{"ha":1044,"x_min":75,"x_max":965,"o":"m 502 -16 q 277 34 373 -16 q 128 173 181 83 q 75 384 75 262 q 130 606 75 511 q 283 755 185 701 q 509 808 381 808 q 638 792 580 808 q 739 759 696 776 q 804 743 781 743 q 838 757 827 743 q 858 806 850 772 l 879 806 q 876 742 878 777 q 874 655 875 707 q 874 519 874 602 l 852 519 q 731 722 821 654 q 511 789 642 789 q 273 686 358 789 q 187 399 187 583 q 274 108 187 213 q 515 3 361 3 q 704 56 636 3 q 771 189 771 108 l 771 229 q 761 294 771 271 q 721 325 750 316 q 635 334 692 333 l 635 355 q 699 353 654 354 q 808 351 743 351 q 898 352 859 351 q 965 355 937 353 l 965 334 q 906 325 925 332 q 882 298 887 318 q 876 237 876 279 l 876 -12 l 855 -12 q 800 44 839 44 q 735 29 774 44 q 639 -1 696 14 q 502 -16 583 -16 z "},"H":{"ha":1130,"x_min":63,"x_max":1067,"o":"m 63 0 l 63 21 q 159 34 130 24 q 196 65 189 45 q 203 117 203 85 l 203 676 q 196 729 203 709 q 159 760 189 749 q 63 772 130 770 l 63 793 q 144 790 94 791 q 254 789 195 789 q 359 790 307 789 q 444 793 411 791 l 444 772 q 351 760 380 770 q 315 729 322 749 q 308 676 308 709 l 308 410 l 822 410 l 822 676 q 815 729 822 709 q 779 760 808 749 q 686 772 751 770 l 686 793 q 770 790 719 791 q 872 789 821 789 q 984 790 932 789 q 1067 793 1035 791 l 1067 772 q 971 760 1001 770 q 935 729 942 749 q 927 676 927 709 l 927 117 q 935 65 927 85 q 972 34 942 45 q 1067 21 1002 24 l 1067 0 q 985 2 1035 1 q 872 3 935 3 q 770 2 821 3 q 686 0 720 1 l 686 21 q 772 30 743 24 q 811 56 801 37 q 822 117 822 76 l 822 389 l 308 389 l 308 117 q 315 64 308 84 q 351 34 322 43 q 444 21 380 24 l 444 0 q 359 2 411 1 q 254 3 307 3 q 144 2 195 3 q 63 0 94 1 z "},"I":{"ha":500,"x_min":62,"x_max":439,"o":"m 62 0 l 62 21 q 150 31 121 24 q 188 59 178 39 q 197 117 197 79 l 197 676 q 188 735 197 715 q 150 762 178 755 q 62 772 121 770 l 62 793 q 139 790 91 791 q 249 789 187 789 q 358 790 308 789 q 439 793 409 791 l 439 772 q 351 762 380 770 q 312 735 321 755 q 302 676 302 715 l 302 117 q 312 58 302 78 q 351 31 321 39 q 439 21 380 24 l 439 0 q 358 2 409 1 q 249 3 308 3 q 139 2 187 3 q 62 0 91 1 z "},"Í":{"ha":500,"x_min":62,"x_max":439,"o":"m 62 0 l 62 21 q 150 31 121 24 q 188 59 178 39 q 197 117 197 79 l 197 676 q 188 735 197 715 q 150 762 178 755 q 62 772 121 770 l 62 793 q 139 790 91 791 q 249 789 187 789 q 358 790 308 789 q 439 793 409 791 l 439 772 q 351 762 380 770 q 312 735 321 755 q 302 676 302 715 l 302 117 q 312 58 302 78 q 351 31 321 39 q 439 21 380 24 l 439 0 q 358 2 409 1 q 249 3 308 3 q 139 2 187 3 q 62 0 91 1 m 199 867 l 192 882 q 255 937 235 910 q 284 987 275 964 q 302 1026 293 1010 q 332 1048 311 1042 q 378 1048 357 1056 q 412 1023 400 1041 q 418 985 424 1004 q 389 955 412 966 q 348 928 368 941 q 293 900 327 915 q 199 867 259 886 z "},"Î":{"ha":500,"x_min":62,"x_max":439,"o":"m 62 0 l 62 21 q 150 31 121 24 q 188 59 178 39 q 197 117 197 79 l 197 676 q 188 735 197 715 q 150 762 178 755 q 62 772 121 770 l 62 793 q 139 790 91 791 q 249 789 187 789 q 358 790 308 789 q 439 793 409 791 l 439 772 q 351 762 380 770 q 312 735 321 755 q 302 676 302 715 l 302 117 q 312 58 302 78 q 351 31 321 39 q 439 21 380 24 l 439 0 q 358 2 409 1 q 249 3 308 3 q 139 2 187 3 q 62 0 91 1 m 435 884 l 423 869 l 218 978 l 74 869 l 63 884 l 235 1046 l 264 1046 l 435 884 z "},"Ï":{"ha":500,"x_min":62,"x_max":439,"o":"m 62 0 l 62 21 q 150 31 121 24 q 188 59 178 39 q 197 117 197 79 l 197 676 q 188 735 197 715 q 150 762 178 755 q 62 772 121 770 l 62 793 q 139 790 91 791 q 249 789 187 789 q 358 790 308 789 q 439 793 409 791 l 439 772 q 351 762 380 770 q 312 735 321 755 q 302 676 302 715 l 302 117 q 312 58 302 78 q 351 31 321 39 q 439 21 380 24 l 439 0 q 358 2 409 1 q 249 3 308 3 q 139 2 187 3 q 62 0 91 1 m 347 865 q 301 884 319 865 q 283 930 283 903 q 301 976 283 957 q 347 994 319 994 q 393 976 374 994 q 412 930 412 957 q 393 884 412 903 q 347 865 374 865 m 151 865 q 104 884 123 865 q 85 930 85 903 q 104 976 85 957 q 151 994 123 994 q 196 976 177 994 q 215 930 215 957 q 196 884 215 903 q 151 865 177 865 z "},"Ì":{"ha":500,"x_min":62,"x_max":439,"o":"m 62 0 l 62 21 q 150 31 121 24 q 188 59 178 39 q 197 117 197 79 l 197 676 q 188 735 197 715 q 150 762 178 755 q 62 772 121 770 l 62 793 q 139 790 91 791 q 249 789 187 789 q 358 790 308 789 q 439 793 409 791 l 439 772 q 351 762 380 770 q 312 735 321 755 q 302 676 302 715 l 302 117 q 312 58 302 78 q 351 31 321 39 q 439 21 380 24 l 439 0 q 358 2 409 1 q 249 3 308 3 q 139 2 187 3 q 62 0 91 1 m 307 882 l 299 867 q 205 900 239 886 q 151 928 172 915 q 110 955 130 941 q 80 985 86 966 q 87 1023 75 1004 q 120 1048 98 1041 q 167 1048 142 1056 q 196 1026 187 1042 q 215 987 205 1010 q 244 937 224 964 q 307 882 264 910 z "},"J":{"ha":467,"x_min":-29,"x_max":420,"o":"m -29 -268 l -29 -248 q 143 -160 93 -252 q 193 108 193 -68 l 193 676 q 184 736 193 717 q 145 763 174 755 q 59 772 117 770 l 59 793 q 131 790 85 791 q 242 789 176 789 q 347 790 302 789 q 420 793 392 791 l 420 772 q 341 762 368 770 q 306 735 315 755 q 297 676 297 715 l 297 144 q 265 -100 297 -9 q 162 -229 233 -191 q -29 -268 90 -268 z "},"K":{"ha":983,"x_min":62,"x_max":945,"o":"m 62 0 l 62 21 q 149 31 120 24 q 188 58 178 39 q 197 117 197 78 l 197 676 q 188 734 197 715 q 149 762 178 754 q 62 772 120 770 l 62 793 q 138 791 90 792 q 248 789 186 789 q 359 791 312 789 q 433 793 406 792 l 433 772 q 349 762 377 770 q 311 734 321 754 q 302 676 302 715 l 302 414 l 348 414 q 449 426 412 414 q 514 463 486 438 q 579 526 543 488 l 660 610 q 729 703 719 671 q 705 749 739 735 q 593 772 670 764 l 593 793 q 673 791 628 793 q 765 789 719 789 q 853 790 814 789 q 924 793 892 791 l 924 772 q 817 734 859 765 q 730 654 774 703 l 522 433 q 581 408 555 422 q 631 368 606 394 q 686 295 656 341 l 796 123 q 863 47 833 67 q 945 21 892 26 l 945 0 q 865 2 906 1 q 773 3 823 3 q 676 2 715 3 q 612 0 638 1 l 612 21 q 694 92 736 33 l 594 239 q 518 335 551 302 q 447 380 486 368 q 348 393 409 393 l 302 393 l 302 117 q 311 59 302 79 q 349 32 321 39 q 433 21 377 24 l 433 0 q 359 2 406 1 q 248 3 312 3 q 138 2 186 3 q 62 0 90 1 z "},"L":{"ha":847,"x_min":60,"x_max":809,"o":"m 60 0 l 60 21 q 151 37 123 24 q 185 69 179 49 q 192 117 192 90 l 192 676 q 183 734 192 715 q 145 760 174 753 q 60 772 117 768 l 60 793 q 127 791 81 792 q 243 789 174 789 q 375 790 322 789 q 456 793 429 791 l 456 772 q 354 759 388 768 q 308 730 319 749 q 296 676 296 711 l 296 117 q 303 66 296 87 q 334 35 309 45 q 416 24 359 24 l 461 24 q 579 31 529 24 q 666 60 629 37 q 732 131 703 83 q 788 263 762 179 l 809 263 q 793 121 798 185 q 790 0 788 56 q 651 2 728 1 q 468 3 573 3 q 230 2 333 3 q 60 0 127 1 z "},"M":{"ha":1238,"x_min":60,"x_max":1192,"o":"m 611 -13 l 585 -13 l 226 734 l 216 734 l 216 127 q 229 63 216 85 q 275 33 241 41 q 372 21 309 24 l 372 0 q 309 2 352 1 q 209 3 267 3 q 121 2 159 3 q 60 0 82 1 l 60 21 q 145 32 116 24 q 184 62 174 40 q 195 127 195 84 l 195 676 q 185 734 195 714 q 148 762 176 753 q 60 772 119 770 l 60 793 q 124 790 84 790 q 215 789 163 789 q 311 793 281 789 l 634 95 l 929 793 q 977 790 951 790 q 1028 789 1002 789 q 1125 790 1081 789 q 1192 793 1170 791 l 1192 772 q 1104 762 1133 770 q 1066 734 1076 753 q 1057 676 1057 714 l 1057 117 q 1067 60 1057 80 q 1105 32 1076 40 q 1192 21 1134 24 l 1192 0 q 1115 2 1162 1 q 1007 3 1067 3 q 900 2 945 3 q 827 0 854 1 l 827 21 q 909 29 882 22 q 945 55 936 35 q 954 117 954 75 l 954 769 l 943 769 l 611 -13 z "},"N":{"ha":1049,"x_min":62,"x_max":988,"o":"m 852 -13 l 824 -13 l 229 727 l 220 727 l 220 127 q 227 76 220 100 q 268 38 235 53 q 378 21 301 24 l 378 0 q 309 2 354 1 q 213 3 263 3 q 62 0 115 3 l 62 21 q 156 38 127 23 q 191 76 184 52 q 198 127 198 99 l 198 676 q 191 728 198 707 q 155 759 184 748 q 62 772 126 770 l 62 793 q 129 790 87 790 q 216 789 170 789 q 272 790 246 789 q 316 793 297 791 l 820 132 l 830 132 l 830 667 q 820 717 830 694 q 776 755 810 740 q 671 772 742 770 l 671 793 q 742 790 696 791 q 837 789 788 789 q 988 793 936 789 l 988 772 q 899 756 928 771 q 861 718 870 741 q 852 667 852 694 l 852 -13 z "},"Ñ":{"ha":1049,"x_min":62,"x_max":988,"o":"m 852 -13 l 824 -13 l 229 727 l 220 727 l 220 127 q 227 76 220 100 q 268 38 235 53 q 378 21 301 24 l 378 0 q 309 2 354 1 q 213 3 263 3 q 62 0 115 3 l 62 21 q 156 38 127 23 q 191 76 184 52 q 198 127 198 99 l 198 676 q 191 728 198 707 q 155 759 184 748 q 62 772 126 770 l 62 793 q 129 790 87 790 q 216 789 170 789 q 272 790 246 789 q 316 793 297 791 l 820 132 l 830 132 l 830 667 q 820 717 830 694 q 776 755 810 740 q 671 772 742 770 l 671 793 q 742 790 696 791 q 837 789 788 789 q 988 793 936 789 l 988 772 q 899 756 928 771 q 861 718 870 741 q 852 667 852 694 l 852 -13 m 645 873 q 574 889 606 873 q 511 920 543 905 q 443 936 480 936 q 396 919 412 936 q 374 865 381 901 l 356 871 q 389 971 358 938 q 460 1004 420 1004 q 531 988 499 1004 q 594 956 563 972 q 662 940 625 940 q 707 958 692 940 q 731 1011 722 976 l 749 1002 q 716 906 747 938 q 645 873 684 873 z "},"O":{"ha":1126,"x_min":81,"x_max":1046,"o":"m 562 -16 q 307 34 415 -16 q 140 175 199 83 q 81 395 81 267 q 141 613 81 520 q 309 757 201 706 q 564 808 418 808 q 820 759 711 808 q 987 618 928 710 q 1046 399 1046 526 q 987 180 1046 273 q 818 36 927 87 q 562 -16 709 -16 m 558 5 q 758 53 673 5 q 887 190 842 102 q 933 397 933 278 q 886 606 933 519 q 756 741 839 694 q 568 789 674 789 q 370 740 454 789 q 239 604 286 692 q 193 396 193 515 q 239 187 193 275 q 369 52 286 99 q 558 5 452 5 z "},"Ó":{"ha":1126,"x_min":81,"x_max":1046,"o":"m 562 -16 q 307 34 415 -16 q 140 175 199 83 q 81 395 81 267 q 141 613 81 520 q 309 757 201 706 q 564 808 418 808 q 820 759 711 808 q 987 618 928 710 q 1046 399 1046 526 q 987 180 1046 273 q 818 36 927 87 q 562 -16 709 -16 m 558 5 q 758 53 673 5 q 887 190 842 102 q 933 397 933 278 q 886 606 933 519 q 756 741 839 694 q 568 789 674 789 q 370 740 454 789 q 239 604 286 692 q 193 396 193 515 q 239 187 193 275 q 369 52 286 99 q 558 5 452 5 m 511 867 l 504 882 q 567 937 547 910 q 596 987 587 964 q 614 1026 605 1010 q 644 1048 623 1042 q 690 1048 669 1056 q 724 1023 712 1041 q 730 985 736 1004 q 701 955 724 966 q 660 928 680 941 q 605 900 639 915 q 511 867 571 886 z "},"Ô":{"ha":1126,"x_min":81,"x_max":1046,"o":"m 562 -16 q 307 34 415 -16 q 140 175 199 83 q 81 395 81 267 q 141 613 81 520 q 309 757 201 706 q 564 808 418 808 q 820 759 711 808 q 987 618 928 710 q 1046 399 1046 526 q 987 180 1046 273 q 818 36 927 87 q 562 -16 709 -16 m 558 5 q 758 53 673 5 q 887 190 842 102 q 933 397 933 278 q 886 606 933 519 q 756 741 839 694 q 568 789 674 789 q 370 740 454 789 q 239 604 286 692 q 193 396 193 515 q 239 187 193 275 q 369 52 286 99 q 558 5 452 5 m 747 884 l 735 869 l 530 978 l 386 869 l 375 884 l 547 1046 l 576 1046 l 747 884 z "},"Ö":{"ha":1126,"x_min":81,"x_max":1046,"o":"m 562 -16 q 307 34 415 -16 q 140 175 199 83 q 81 395 81 267 q 141 613 81 520 q 309 757 201 706 q 564 808 418 808 q 820 759 711 808 q 987 618 928 710 q 1046 399 1046 526 q 987 180 1046 273 q 818 36 927 87 q 562 -16 709 -16 m 558 5 q 758 53 673 5 q 887 190 842 102 q 933 397 933 278 q 886 606 933 519 q 756 741 839 694 q 568 789 674 789 q 370 740 454 789 q 239 604 286 692 q 193 396 193 515 q 239 187 193 275 q 369 52 286 99 q 558 5 452 5 m 659 865 q 613 884 631 865 q 595 930 595 903 q 613 976 595 957 q 659 994 631 994 q 705 976 686 994 q 724 930 724 957 q 705 884 724 903 q 659 865 686 865 m 463 865 q 416 884 435 865 q 397 930 397 903 q 416 976 397 957 q 463 994 435 994 q 508 976 489 994 q 527 930 527 957 q 508 884 527 903 q 463 865 489 865 z "},"Ò":{"ha":1126,"x_min":81,"x_max":1046,"o":"m 562 -16 q 307 34 415 -16 q 140 175 199 83 q 81 395 81 267 q 141 613 81 520 q 309 757 201 706 q 564 808 418 808 q 820 759 711 808 q 987 618 928 710 q 1046 399 1046 526 q 987 180 1046 273 q 818 36 927 87 q 562 -16 709 -16 m 558 5 q 758 53 673 5 q 887 190 842 102 q 933 397 933 278 q 886 606 933 519 q 756 741 839 694 q 568 789 674 789 q 370 740 454 789 q 239 604 286 692 q 193 396 193 515 q 239 187 193 275 q 369 52 286 99 q 558 5 452 5 m 618 882 l 611 867 q 517 900 551 886 q 463 928 484 915 q 422 955 442 941 q 392 985 398 966 q 399 1023 387 1004 q 432 1048 410 1041 q 479 1048 454 1056 q 508 1026 499 1042 q 527 987 517 1010 q 556 937 536 964 q 618 882 576 910 z "},"Ø":{"ha":1126,"x_min":81,"x_max":1046,"o":"m 562 -16 q 307 34 415 -16 q 140 175 199 83 q 81 395 81 267 q 141 613 81 520 q 309 757 201 706 q 564 808 418 808 q 820 759 711 808 q 987 618 928 710 q 1046 399 1046 526 q 987 180 1046 273 q 818 36 927 87 q 562 -16 709 -16 m 558 5 q 758 53 673 5 q 887 190 842 102 q 933 397 933 278 q 886 606 933 519 q 756 741 839 694 q 568 789 674 789 q 370 740 454 789 q 239 604 286 692 q 193 396 193 515 q 239 187 193 275 q 369 52 286 99 q 558 5 452 5 m 841 850 l 749 683 l 734 698 l 822 868 l 841 850 m 739 682 l 418 87 l 401 100 l 724 696 l 739 682 m 409 77 l 308 -79 l 290 -60 l 392 92 l 409 77 z "},"Õ":{"ha":1126,"x_min":81,"x_max":1046,"o":"m 562 -16 q 307 34 415 -16 q 140 175 199 83 q 81 395 81 267 q 141 613 81 520 q 309 757 201 706 q 564 808 418 808 q 820 759 711 808 q 987 618 928 710 q 1046 399 1046 526 q 987 180 1046 273 q 818 36 927 87 q 562 -16 709 -16 m 558 5 q 758 53 673 5 q 887 190 842 102 q 933 397 933 278 q 886 606 933 519 q 756 741 839 694 q 568 789 674 789 q 370 740 454 789 q 239 604 286 692 q 193 396 193 515 q 239 187 193 275 q 369 52 286 99 q 558 5 452 5 m 653 873 q 582 889 614 873 q 519 920 551 905 q 451 936 488 936 q 405 919 420 936 q 382 865 389 901 l 364 871 q 397 971 366 938 q 468 1004 429 1004 q 539 988 507 1004 q 602 956 571 972 q 670 940 633 940 q 715 958 701 940 q 739 1011 730 976 l 757 1002 q 724 906 755 938 q 653 873 692 873 z "},"Œ":{"ha":1468,"x_min":81,"x_max":1375,"o":"m 566 -16 q 310 35 419 -16 q 141 176 201 85 q 81 388 81 267 q 143 607 81 513 q 315 755 205 702 q 570 808 425 808 q 708 799 647 808 q 817 789 770 789 l 987 789 q 1042 789 1004 789 q 1127 790 1080 789 q 1221 791 1175 790 q 1300 793 1267 791 q 1300 708 1295 760 q 1318 588 1305 656 l 1297 588 q 1228 696 1261 657 q 1155 752 1196 736 q 1053 768 1114 768 l 873 768 l 873 410 l 929 410 q 1064 445 1020 410 q 1121 558 1108 479 l 1139 558 q 1135 490 1136 516 q 1134 443 1133 463 q 1134 399 1134 422 q 1135 380 1134 391 q 1138 337 1136 368 q 1145 239 1141 307 l 1127 239 q 1071 356 1115 324 q 929 389 1027 389 l 873 389 l 873 117 q 883 57 873 77 q 922 31 893 37 q 1008 24 951 24 q 1177 45 1112 24 q 1281 118 1241 66 q 1354 263 1322 170 l 1375 263 q 1355 107 1360 172 q 1354 0 1350 43 q 1219 2 1291 1 q 1042 3 1147 3 q 1004 3 1033 3 q 938 3 975 3 q 870 3 901 3 q 824 3 838 3 q 824 3 809 3 q 735 0 770 3 q 674 -6 700 -3 q 625 -13 649 -10 q 566 -16 600 -16 m 573 5 q 723 30 678 5 q 768 119 768 55 l 768 673 q 724 764 768 741 q 570 787 680 787 q 373 738 458 787 q 241 603 288 689 q 193 403 193 516 q 242 198 193 288 q 377 57 291 108 q 573 5 463 5 z "},"P":{"ha":803,"x_min":60,"x_max":760,"o":"m 60 0 l 60 21 q 144 31 116 24 q 181 58 172 38 q 191 117 191 78 l 191 676 q 181 736 191 715 q 144 765 172 757 q 60 772 116 772 l 60 793 q 125 792 82 792 q 231 791 169 791 q 358 792 301 791 q 441 793 416 793 q 676 735 593 793 q 760 565 760 677 q 666 389 760 454 q 412 323 572 323 q 353 327 386 323 q 295 336 320 330 l 295 117 q 306 58 295 78 q 351 31 317 38 q 449 21 384 24 l 449 0 q 371 2 422 1 q 245 3 320 3 q 130 2 176 3 q 60 0 83 1 m 295 772 l 295 357 q 353 346 321 350 q 401 342 384 342 q 586 398 525 342 q 648 558 648 454 q 589 724 648 672 q 407 774 531 775 l 295 772 z "},"Þ":{"ha":802,"x_min":60,"x_max":758,"o":"m 60 0 l 60 21 q 144 32 116 24 q 181 59 172 39 q 191 117 191 79 l 191 676 q 181 734 191 715 q 144 762 172 754 q 60 772 116 770 l 60 793 q 149 790 104 790 q 248 789 194 789 q 371 791 320 789 q 448 793 421 792 l 448 772 q 350 762 382 770 q 306 734 317 754 q 295 676 295 715 l 295 618 q 364 629 323 625 q 440 633 404 633 q 676 580 595 633 q 758 413 758 526 q 669 230 758 296 q 420 163 580 163 q 358 168 389 163 q 295 179 326 172 l 295 117 q 306 59 295 79 q 350 32 317 39 q 448 21 382 24 l 448 0 q 371 2 421 1 q 248 3 320 3 q 149 3 194 3 q 60 0 104 2 m 414 612 q 354 607 387 612 q 295 596 321 602 l 295 199 q 352 189 322 193 q 414 184 381 184 q 646 393 646 184 q 588 555 646 498 q 414 612 530 612 z "},"Q":{"ha":1125,"x_min":81,"x_max":1219,"o":"m 249 -268 q 196 -249 216 -268 q 177 -199 177 -230 q 208 -132 177 -162 q 287 -83 239 -102 q 387 -66 335 -65 q 397 -66 392 -66 q 476 -43 442 -57 q 549 -16 511 -28 q 300 37 405 -13 q 138 178 195 87 q 81 395 81 269 q 141 613 81 520 q 310 757 201 706 q 565 808 419 808 q 821 759 713 808 q 989 618 930 710 q 1048 399 1048 526 q 998 195 1048 283 q 853 53 947 106 q 632 -12 760 -1 q 542 -41 578 -24 q 452 -71 505 -58 q 615 -106 530 -81 q 790 -151 700 -130 q 973 -172 880 -172 q 1112 -150 1058 -172 q 1202 -78 1165 -127 l 1219 -87 q 1113 -221 1184 -174 q 944 -268 1042 -268 q 818 -249 873 -268 q 714 -203 762 -231 q 617 -148 666 -175 q 514 -101 569 -120 q 387 -83 458 -83 q 310 -97 340 -83 q 279 -130 279 -111 q 296 -175 279 -149 q 313 -223 313 -201 q 296 -255 313 -243 q 249 -268 279 -268 m 559 5 q 759 53 675 5 q 889 190 844 102 q 935 397 935 278 q 888 606 935 519 q 758 741 841 694 q 569 789 675 789 q 371 740 455 789 q 240 604 286 692 q 193 396 193 515 q 240 187 193 275 q 369 52 287 99 q 559 5 452 5 z "},"R":{"ha":899,"x_min":60,"x_max":916,"o":"m 60 0 l 60 21 q 144 32 116 24 q 181 59 172 39 q 190 117 190 79 l 190 676 q 181 734 190 715 q 144 762 172 754 q 60 772 116 770 l 60 793 q 129 792 85 792 q 233 791 172 791 q 357 792 298 791 q 439 793 416 793 q 672 743 588 793 q 756 600 756 692 q 690 461 756 517 q 511 390 624 406 q 613 367 574 384 q 675 315 652 349 q 713 224 699 281 l 752 72 q 779 36 760 44 q 827 26 798 27 q 867 37 849 25 q 903 66 886 48 l 916 48 q 854 -1 884 14 q 780 -16 823 -16 q 688 15 726 -16 q 635 105 650 45 l 602 229 q 542 344 581 309 q 425 379 503 379 l 295 379 l 295 117 q 304 58 295 78 q 341 31 313 38 q 425 21 369 24 l 425 0 q 353 2 399 1 q 241 3 306 3 q 131 2 178 3 q 60 0 85 1 m 407 772 l 295 772 l 295 399 l 410 399 q 644 589 644 399 q 586 729 644 686 q 407 772 528 772 z "},"S":{"ha":718,"x_min":67,"x_max":654,"o":"m 380 -16 q 264 3 311 -16 q 187 40 218 22 q 135 59 157 59 q 106 44 117 59 q 88 -13 95 28 l 67 -13 q 72 90 71 20 q 73 281 73 159 l 94 281 q 178 76 106 149 q 364 4 250 4 q 502 46 452 4 q 551 170 551 88 q 532 250 551 219 q 467 305 512 280 q 343 359 421 330 q 193 430 250 397 q 111 503 136 463 q 85 597 85 542 q 151 751 85 694 q 330 808 218 808 q 430 795 390 808 q 497 770 469 783 q 549 757 525 757 q 579 766 568 757 q 597 806 590 774 l 618 806 q 615 749 616 781 q 612 671 613 718 q 612 548 612 623 l 591 548 q 513 726 578 664 q 345 788 447 788 q 218 750 264 788 q 172 637 172 711 q 194 566 172 596 q 266 510 215 536 q 402 454 316 484 q 597 352 539 407 q 654 212 654 298 q 581 45 654 106 q 380 -16 507 -16 z "},"Š":{"ha":718,"x_min":67,"x_max":654,"o":"m 380 -16 q 264 3 311 -16 q 187 40 218 22 q 135 59 157 59 q 106 44 117 59 q 88 -13 95 28 l 67 -13 q 72 90 71 20 q 73 281 73 159 l 94 281 q 178 76 106 149 q 364 4 250 4 q 502 46 452 4 q 551 170 551 88 q 532 250 551 219 q 467 305 512 280 q 343 359 421 330 q 193 430 250 397 q 111 503 136 463 q 85 597 85 542 q 151 751 85 694 q 330 808 218 808 q 430 795 390 808 q 497 770 469 783 q 549 757 525 757 q 579 766 568 757 q 597 806 590 774 l 618 806 q 615 749 616 781 q 612 671 613 718 q 612 548 612 623 l 591 548 q 513 726 578 664 q 345 788 447 788 q 218 750 264 788 q 172 637 172 711 q 194 566 172 596 q 266 510 215 536 q 402 454 316 484 q 597 352 539 407 q 654 212 654 298 q 581 45 654 106 q 380 -16 507 -16 m 551 1027 l 379 865 l 351 865 l 179 1027 l 191 1042 l 396 933 l 541 1042 l 551 1027 z "},"T":{"ha":954,"x_min":44,"x_max":911,"o":"m 248 0 l 248 21 q 369 35 332 24 q 416 69 406 46 q 425 128 425 92 l 425 769 l 316 769 q 222 753 264 769 q 143 686 180 736 q 65 532 105 635 l 44 532 q 64 683 59 625 q 63 793 68 741 q 255 790 148 791 q 477 789 363 789 q 608 789 536 789 q 753 790 680 789 q 890 793 826 791 q 890 685 886 749 q 911 532 895 621 l 889 532 q 806 689 846 639 q 726 754 767 740 q 637 769 686 769 l 528 769 l 528 128 q 538 69 528 92 q 585 35 547 46 q 705 21 623 24 l 705 0 q 605 2 664 1 q 481 3 546 3 q 345 2 405 3 q 248 0 286 1 z "},"U":{"ha":1046,"x_min":42,"x_max":1005,"o":"m 525 -16 q 270 87 357 -16 q 183 385 183 189 l 183 676 q 173 735 183 715 q 133 762 163 755 q 42 772 102 770 l 42 793 q 118 790 70 791 q 234 789 166 789 q 356 790 306 789 q 431 793 406 791 l 431 772 q 339 763 370 770 q 298 736 308 755 q 288 676 288 717 l 288 357 q 354 111 288 203 q 547 19 420 19 q 766 113 690 19 q 842 381 842 206 l 842 663 q 829 729 842 707 q 784 761 816 751 q 692 772 751 770 l 692 793 q 752 791 713 792 q 849 789 791 789 q 948 791 909 789 q 1005 793 986 792 l 1005 772 q 917 761 947 770 q 874 730 886 752 q 863 667 863 709 l 863 391 q 778 90 863 195 q 525 -16 693 -16 z "},"Ú":{"ha":1046,"x_min":42,"x_max":1005,"o":"m 525 -16 q 270 87 357 -16 q 183 385 183 189 l 183 676 q 173 735 183 715 q 133 762 163 755 q 42 772 102 770 l 42 793 q 118 790 70 791 q 234 789 166 789 q 356 790 306 789 q 431 793 406 791 l 431 772 q 339 763 370 770 q 298 736 308 755 q 288 676 288 717 l 288 357 q 354 111 288 203 q 547 19 420 19 q 766 113 690 19 q 842 381 842 206 l 842 663 q 829 729 842 707 q 784 761 816 751 q 692 772 751 770 l 692 793 q 752 791 713 792 q 849 789 791 789 q 948 791 909 789 q 1005 793 986 792 l 1005 772 q 917 761 947 770 q 874 730 886 752 q 863 667 863 709 l 863 391 q 778 90 863 195 q 525 -16 693 -16 m 490 867 l 482 882 q 545 937 525 910 q 574 987 565 964 q 592 1026 583 1010 q 622 1048 602 1042 q 669 1048 647 1056 q 702 1023 690 1041 q 708 985 714 1004 q 679 955 703 966 q 638 928 659 941 q 583 900 617 915 q 490 867 549 886 z "},"Û":{"ha":1046,"x_min":42,"x_max":1005,"o":"m 525 -16 q 270 87 357 -16 q 183 385 183 189 l 183 676 q 173 735 183 715 q 133 762 163 755 q 42 772 102 770 l 42 793 q 118 790 70 791 q 234 789 166 789 q 356 790 306 789 q 431 793 406 791 l 431 772 q 339 763 370 770 q 298 736 308 755 q 288 676 288 717 l 288 357 q 354 111 288 203 q 547 19 420 19 q 766 113 690 19 q 842 381 842 206 l 842 663 q 829 729 842 707 q 784 761 816 751 q 692 772 751 770 l 692 793 q 752 791 713 792 q 849 789 791 789 q 948 791 909 789 q 1005 793 986 792 l 1005 772 q 917 761 947 770 q 874 730 886 752 q 863 667 863 709 l 863 391 q 778 90 863 195 q 525 -16 693 -16 m 725 884 l 713 869 l 509 978 l 364 869 l 353 884 l 526 1046 l 554 1046 l 725 884 z "},"Ü":{"ha":1046,"x_min":42,"x_max":1005,"o":"m 525 -16 q 270 87 357 -16 q 183 385 183 189 l 183 676 q 173 735 183 715 q 133 762 163 755 q 42 772 102 770 l 42 793 q 118 790 70 791 q 234 789 166 789 q 356 790 306 789 q 431 793 406 791 l 431 772 q 339 763 370 770 q 298 736 308 755 q 288 676 288 717 l 288 357 q 354 111 288 203 q 547 19 420 19 q 766 113 690 19 q 842 381 842 206 l 842 663 q 829 729 842 707 q 784 761 816 751 q 692 772 751 770 l 692 793 q 752 791 713 792 q 849 789 791 789 q 948 791 909 789 q 1005 793 986 792 l 1005 772 q 917 761 947 770 q 874 730 886 752 q 863 667 863 709 l 863 391 q 778 90 863 195 q 525 -16 693 -16 m 637 865 q 591 884 610 865 q 573 930 573 903 q 591 976 573 957 q 637 994 610 994 q 683 976 665 994 q 702 930 702 957 q 683 884 702 903 q 637 865 665 865 m 441 865 q 395 884 414 865 q 376 930 376 903 q 395 976 376 957 q 441 994 414 994 q 486 976 467 994 q 505 930 505 957 q 486 884 505 903 q 441 865 467 865 z "},"Ù":{"ha":1046,"x_min":42,"x_max":1005,"o":"m 525 -16 q 270 87 357 -16 q 183 385 183 189 l 183 676 q 173 735 183 715 q 133 762 163 755 q 42 772 102 770 l 42 793 q 118 790 70 791 q 234 789 166 789 q 356 790 306 789 q 431 793 406 791 l 431 772 q 339 763 370 770 q 298 736 308 755 q 288 676 288 717 l 288 357 q 354 111 288 203 q 547 19 420 19 q 766 113 690 19 q 842 381 842 206 l 842 663 q 829 729 842 707 q 784 761 816 751 q 692 772 751 770 l 692 793 q 752 791 713 792 q 849 789 791 789 q 948 791 909 789 q 1005 793 986 792 l 1005 772 q 917 761 947 770 q 874 730 886 752 q 863 667 863 709 l 863 391 q 778 90 863 195 q 525 -16 693 -16 m 597 882 l 589 867 q 496 900 530 886 q 441 928 462 915 q 400 955 420 941 q 371 985 376 966 q 377 1023 365 1004 q 410 1048 389 1041 q 457 1048 432 1056 q 487 1026 477 1042 q 505 987 496 1010 q 534 937 514 964 q 597 882 554 910 z "},"V":{"ha":941,"x_min":7,"x_max":937,"o":"m 494 -13 l 458 -13 l 139 693 q 92 749 122 730 q 7 772 62 768 l 7 793 q 85 791 43 792 q 173 789 128 789 q 287 791 237 789 q 366 793 337 792 l 366 772 q 254 750 275 770 q 258 673 233 729 l 513 84 l 714 535 q 741 714 768 654 q 626 772 713 774 l 626 793 q 705 791 659 793 q 801 789 751 789 q 858 790 831 789 q 937 793 886 791 l 937 772 q 856 747 887 767 q 803 680 825 727 l 494 -13 z "},"W":{"ha":1459,"x_min":-2,"x_max":1462,"o":"m 471 -13 l 452 -13 l 144 693 q 91 750 127 732 q -2 772 54 768 l -2 793 q 87 791 42 792 q 173 789 132 789 q 299 791 243 789 q 386 793 355 792 l 386 772 q 286 762 317 771 q 251 732 254 753 q 264 673 248 711 l 504 121 l 713 626 l 683 693 q 541 772 651 763 l 541 793 q 627 791 583 792 q 709 789 671 789 q 842 791 783 789 q 934 793 901 792 l 934 772 q 828 762 862 771 q 791 732 795 753 q 804 673 787 711 l 1050 111 l 1050 124 l 1224 534 q 1120 772 1326 774 l 1120 793 q 1201 791 1148 793 q 1310 789 1253 789 q 1375 790 1340 789 q 1462 793 1410 791 l 1462 772 q 1367 748 1405 767 q 1308 680 1329 730 l 1018 -13 l 996 -13 l 726 597 l 471 -13 z "},"X":{"ha":1006,"x_min":26,"x_max":991,"o":"m 26 0 l 26 21 q 87 31 61 25 q 139 55 113 37 q 200 108 165 72 l 458 382 l 176 699 q 110 751 145 735 q 26 772 74 768 l 26 793 q 121 791 76 792 q 210 789 167 789 q 343 791 287 789 q 432 793 399 792 l 432 772 q 311 746 339 772 q 323 676 283 720 l 534 439 l 639 551 q 686 629 675 590 q 690 701 697 668 q 662 753 682 734 q 613 772 641 773 l 613 793 q 724 791 673 793 q 817 789 774 789 q 856 790 838 789 q 898 791 873 790 q 964 793 922 792 l 964 772 q 900 762 925 769 q 850 738 874 755 q 791 684 826 721 l 549 422 l 840 94 q 909 41 873 58 q 991 21 945 24 l 991 0 q 896 3 942 1 q 806 4 850 4 q 675 3 730 4 q 585 0 619 1 l 585 21 q 707 46 680 20 q 694 117 734 73 l 473 365 l 357 245 q 299 139 305 191 q 319 53 293 87 q 390 21 346 20 l 390 0 q 297 2 355 1 q 179 3 240 3 q 138 3 157 3 q 94 2 119 3 q 26 0 69 1 z "},"Y":{"ha":912,"x_min":-26,"x_max":930,"o":"m 252 0 l 252 21 q 363 34 328 24 q 408 67 398 44 q 417 128 417 90 l 417 269 l 113 702 q 54 753 87 738 q -26 772 21 769 l -26 793 q 59 791 17 792 q 138 789 101 789 q 271 791 213 789 q 366 793 329 792 l 366 772 q 243 749 270 771 q 250 680 217 728 l 508 308 l 649 536 q 694 656 690 603 q 671 742 697 710 q 596 772 645 773 l 596 793 q 679 791 624 793 q 793 789 733 789 q 847 790 822 789 q 930 793 872 791 l 930 772 q 858 762 888 770 q 806 736 829 755 q 761 681 783 718 l 522 284 l 522 128 q 531 67 522 90 q 575 34 541 44 q 686 21 610 24 l 686 0 q 588 2 646 1 q 471 3 530 3 q 346 2 403 3 q 252 0 288 1 z "},"Ý":{"ha":912,"x_min":-26,"x_max":930,"o":"m 252 0 l 252 21 q 363 34 328 24 q 408 67 398 44 q 417 128 417 90 l 417 269 l 113 702 q 54 753 87 738 q -26 772 21 769 l -26 793 q 59 791 17 792 q 138 789 101 789 q 271 791 213 789 q 366 793 329 792 l 366 772 q 243 749 270 771 q 250 680 217 728 l 508 308 l 649 536 q 694 656 690 603 q 671 742 697 710 q 596 772 645 773 l 596 793 q 679 791 624 793 q 793 789 733 789 q 847 790 822 789 q 930 793 872 791 l 930 772 q 858 762 888 770 q 806 736 829 755 q 761 681 783 718 l 522 284 l 522 128 q 531 67 522 90 q 575 34 541 44 q 686 21 610 24 l 686 0 q 588 2 646 1 q 471 3 530 3 q 346 2 403 3 q 252 0 288 1 m 417 867 l 410 882 q 472 937 452 910 q 502 987 492 964 q 520 1026 511 1010 q 549 1048 529 1042 q 596 1048 574 1056 q 629 1023 618 1041 q 636 985 642 1004 q 606 955 630 966 q 565 928 586 941 q 511 900 545 915 q 417 867 477 886 z "},"Ÿ":{"ha":912,"x_min":-26,"x_max":930,"o":"m 252 0 l 252 21 q 363 34 328 24 q 408 67 398 44 q 417 128 417 90 l 417 269 l 113 702 q 54 753 87 738 q -26 772 21 769 l -26 793 q 59 791 17 792 q 138 789 101 789 q 271 791 213 789 q 366 793 329 792 l 366 772 q 243 749 270 771 q 250 680 217 728 l 508 308 l 649 536 q 694 656 690 603 q 671 742 697 710 q 596 772 645 773 l 596 793 q 679 791 624 793 q 793 789 733 789 q 847 790 822 789 q 930 793 872 791 l 930 772 q 858 762 888 770 q 806 736 829 755 q 761 681 783 718 l 522 284 l 522 128 q 531 67 522 90 q 575 34 541 44 q 686 21 610 24 l 686 0 q 588 2 646 1 q 471 3 530 3 q 346 2 403 3 q 252 0 288 1 m 565 865 q 519 884 537 865 q 500 930 500 903 q 519 976 500 957 q 565 994 537 994 q 611 976 592 994 q 629 930 629 957 q 611 884 629 903 q 565 865 592 865 m 368 865 q 322 884 341 865 q 303 930 303 903 q 322 976 303 957 q 368 994 341 994 q 414 976 395 994 q 433 930 433 957 q 414 884 433 903 q 368 865 395 865 z "},"Z":{"ha":851,"x_min":57,"x_max":785,"o":"m 57 0 l 57 21 l 651 769 l 319 769 q 231 748 269 769 q 161 676 193 728 q 94 532 129 625 l 73 532 q 90 678 85 614 q 92 793 96 741 q 208 790 146 791 q 333 789 271 789 q 447 789 395 789 q 613 790 522 789 q 779 793 705 790 l 779 772 l 184 24 l 372 24 q 515 29 454 24 q 622 54 576 33 q 701 124 667 75 q 764 263 735 174 l 785 263 q 769 121 774 182 q 768 0 765 59 q 650 3 714 2 q 522 3 586 3 q 405 3 458 3 q 229 3 321 3 q 57 0 138 3 z "},"a":{"ha":593,"x_min":68,"x_max":586,"o":"m 217 -16 q 109 24 149 -16 q 68 139 68 63 q 89 225 68 193 q 143 274 110 257 q 214 301 176 292 q 288 320 252 311 q 347 346 323 330 q 376 391 371 361 q 348 519 372 473 q 279 564 323 564 q 203 551 235 564 q 171 515 171 538 q 186 469 171 494 q 201 422 201 444 q 187 389 201 401 q 150 376 173 376 q 107 395 123 376 q 91 444 91 413 q 119 518 91 484 q 197 572 148 552 q 305 593 245 593 q 439 527 400 593 q 478 340 478 461 l 478 70 q 511 17 478 17 q 546 22 529 17 q 574 52 563 27 l 586 34 q 537 -6 561 3 q 475 -16 513 -16 q 378 87 378 -16 q 309 12 349 39 q 217 -16 269 -16 m 263 33 q 326 50 296 33 q 378 111 356 66 l 378 348 q 378 370 378 359 q 348 320 370 334 q 296 298 325 306 q 238 279 267 291 q 192 237 210 267 q 174 146 174 207 q 198 61 174 90 q 263 33 222 33 z "},"á":{"ha":593,"x_min":68,"x_max":586,"o":"m 217 -16 q 109 24 149 -16 q 68 139 68 63 q 89 225 68 193 q 143 274 110 257 q 214 301 176 292 q 288 320 252 311 q 347 346 323 330 q 376 391 371 361 q 348 519 372 473 q 279 564 323 564 q 203 551 235 564 q 171 515 171 538 q 186 469 171 494 q 201 422 201 444 q 187 389 201 401 q 150 376 173 376 q 107 395 123 376 q 91 444 91 413 q 119 518 91 484 q 197 572 148 552 q 305 593 245 593 q 439 527 400 593 q 478 340 478 461 l 478 70 q 511 17 478 17 q 546 22 529 17 q 574 52 563 27 l 586 34 q 537 -6 561 3 q 475 -16 513 -16 q 378 87 378 -16 q 309 12 349 39 q 217 -16 269 -16 m 263 33 q 326 50 296 33 q 378 111 356 66 l 378 348 q 378 370 378 359 q 348 320 370 334 q 296 298 325 306 q 238 279 267 291 q 192 237 210 267 q 174 146 174 207 q 198 61 174 90 q 263 33 222 33 m 258 681 l 246 694 q 288 755 276 723 q 304 818 300 787 q 310 871 308 848 q 323 907 313 895 q 360 922 339 924 q 398 903 381 920 q 419 864 414 886 q 406 823 424 842 q 374 784 391 810 q 331 730 358 758 q 258 681 304 702 z "},"â":{"ha":593,"x_min":68,"x_max":586,"o":"m 217 -16 q 109 24 149 -16 q 68 139 68 63 q 89 225 68 193 q 143 274 110 257 q 214 301 176 292 q 288 320 252 311 q 347 346 323 330 q 376 391 371 361 q 348 519 372 473 q 279 564 323 564 q 203 551 235 564 q 171 515 171 538 q 186 469 171 494 q 201 422 201 444 q 187 389 201 401 q 150 376 173 376 q 107 395 123 376 q 91 444 91 413 q 119 518 91 484 q 197 572 148 552 q 305 593 245 593 q 439 527 400 593 q 478 340 478 461 l 478 70 q 511 17 478 17 q 546 22 529 17 q 574 52 563 27 l 586 34 q 537 -6 561 3 q 475 -16 513 -16 q 378 87 378 -16 q 309 12 349 39 q 217 -16 269 -16 m 263 33 q 326 50 296 33 q 378 111 356 66 l 378 348 q 378 370 378 359 q 348 320 370 334 q 296 298 325 306 q 238 279 267 291 q 192 237 210 267 q 174 146 174 207 q 198 61 174 90 q 263 33 222 33 m 448 694 l 436 680 l 279 827 l 160 680 l 147 698 l 288 916 l 309 916 l 448 694 z "},"ä":{"ha":593,"x_min":68,"x_max":586,"o":"m 217 -16 q 109 24 149 -16 q 68 139 68 63 q 89 225 68 193 q 143 274 110 257 q 214 301 176 292 q 288 320 252 311 q 347 346 323 330 q 376 391 371 361 q 348 519 372 473 q 279 564 323 564 q 203 551 235 564 q 171 515 171 538 q 186 469 171 494 q 201 422 201 444 q 187 389 201 401 q 150 376 173 376 q 107 395 123 376 q 91 444 91 413 q 119 518 91 484 q 197 572 148 552 q 305 593 245 593 q 439 527 400 593 q 478 340 478 461 l 478 70 q 511 17 478 17 q 546 22 529 17 q 574 52 563 27 l 586 34 q 537 -6 561 3 q 475 -16 513 -16 q 378 87 378 -16 q 309 12 349 39 q 217 -16 269 -16 m 263 33 q 326 50 296 33 q 378 111 356 66 l 378 348 q 378 370 378 359 q 348 320 370 334 q 296 298 325 306 q 238 279 267 291 q 192 237 210 267 q 174 146 174 207 q 198 61 174 90 q 263 33 222 33 m 402 721 q 356 740 374 721 q 337 785 337 758 q 356 831 337 812 q 402 850 374 850 q 448 831 429 850 q 467 785 467 812 q 448 740 467 758 q 402 721 429 721 m 198 721 q 152 740 171 721 q 133 785 133 758 q 152 831 133 812 q 198 850 171 850 q 243 831 224 850 q 262 785 262 812 q 243 740 262 758 q 198 721 224 721 z "},"à":{"ha":593,"x_min":68,"x_max":586,"o":"m 217 -16 q 109 24 149 -16 q 68 139 68 63 q 89 225 68 193 q 143 274 110 257 q 214 301 176 292 q 288 320 252 311 q 347 346 323 330 q 376 391 371 361 q 348 519 372 473 q 279 564 323 564 q 203 551 235 564 q 171 515 171 538 q 186 469 171 494 q 201 422 201 444 q 187 389 201 401 q 150 376 173 376 q 107 395 123 376 q 91 444 91 413 q 119 518 91 484 q 197 572 148 552 q 305 593 245 593 q 439 527 400 593 q 478 340 478 461 l 478 70 q 511 17 478 17 q 546 22 529 17 q 574 52 563 27 l 586 34 q 537 -6 561 3 q 475 -16 513 -16 q 378 87 378 -16 q 309 12 349 39 q 217 -16 269 -16 m 263 33 q 326 50 296 33 q 378 111 356 66 l 378 348 q 378 370 378 359 q 348 320 370 334 q 296 298 325 306 q 238 279 267 291 q 192 237 210 267 q 174 146 174 207 q 198 61 174 90 q 263 33 222 33 m 325 684 l 313 673 q 238 724 266 694 q 194 781 211 754 q 161 821 177 808 q 149 863 144 840 q 170 901 153 885 q 208 920 186 918 q 244 905 229 921 q 257 870 255 895 q 263 814 260 846 q 280 749 267 783 q 325 684 293 715 z "},"å":{"ha":593,"x_min":68,"x_max":586,"o":"m 217 -16 q 109 24 149 -16 q 68 139 68 63 q 89 225 68 193 q 143 274 110 257 q 214 301 176 292 q 288 320 252 311 q 347 346 323 330 q 376 391 371 361 q 348 519 372 473 q 279 564 323 564 q 203 551 235 564 q 171 515 171 538 q 186 469 171 494 q 201 422 201 444 q 187 389 201 401 q 150 376 173 376 q 107 395 123 376 q 91 444 91 413 q 119 518 91 484 q 197 572 148 552 q 305 593 245 593 q 439 527 400 593 q 478 340 478 461 l 478 70 q 511 17 478 17 q 546 22 529 17 q 574 52 563 27 l 586 34 q 537 -6 561 3 q 475 -16 513 -16 q 378 87 378 -16 q 309 12 349 39 q 217 -16 269 -16 m 263 33 q 326 50 296 33 q 378 111 356 66 l 378 348 q 378 370 378 359 q 348 320 370 334 q 296 298 325 306 q 238 279 267 291 q 192 237 210 267 q 174 146 174 207 q 198 61 174 90 q 263 33 222 33 m 300 672 q 223 702 257 672 q 189 784 189 732 q 223 864 189 834 q 300 895 257 895 q 379 865 344 895 q 414 784 414 835 q 379 702 414 732 q 300 672 344 672 m 300 690 q 365 716 337 690 q 393 783 393 741 q 365 852 393 827 q 300 877 337 877 q 237 852 264 877 q 209 783 209 827 q 237 716 209 741 q 300 690 264 690 z "},"ã":{"ha":593,"x_min":68,"x_max":586,"o":"m 217 -16 q 109 24 149 -16 q 68 139 68 63 q 89 225 68 193 q 143 274 110 257 q 214 301 176 292 q 288 320 252 311 q 347 346 323 330 q 376 391 371 361 q 348 519 372 473 q 279 564 323 564 q 203 551 235 564 q 171 515 171 538 q 186 469 171 494 q 201 422 201 444 q 187 389 201 401 q 150 376 173 376 q 107 395 123 376 q 91 444 91 413 q 119 518 91 484 q 197 572 148 552 q 305 593 245 593 q 439 527 400 593 q 478 340 478 461 l 478 70 q 511 17 478 17 q 546 22 529 17 q 574 52 563 27 l 586 34 q 537 -6 561 3 q 475 -16 513 -16 q 378 87 378 -16 q 309 12 349 39 q 217 -16 269 -16 m 263 33 q 326 50 296 33 q 378 111 356 66 l 378 348 q 378 370 378 359 q 348 320 370 334 q 296 298 325 306 q 238 279 267 291 q 192 237 210 267 q 174 146 174 207 q 198 61 174 90 q 263 33 222 33 m 367 708 q 308 727 333 708 q 259 765 283 746 q 206 783 236 783 q 129 709 153 783 l 113 711 q 159 816 129 777 q 233 854 190 854 q 293 836 268 854 q 341 798 317 817 q 395 779 364 779 q 472 853 449 779 l 488 851 q 441 743 473 779 q 367 708 409 708 z "},"æ":{"ha":949,"x_min":77,"x_max":885,"o":"m 239 -16 q 120 24 164 -16 q 77 140 77 63 q 100 226 77 194 q 161 275 123 258 q 240 302 198 292 q 322 320 283 311 q 389 345 361 330 q 423 391 416 361 q 385 518 416 473 q 296 564 353 564 q 219 551 250 564 q 187 515 187 538 q 203 469 187 494 q 219 422 219 444 q 204 389 219 401 q 164 376 189 376 q 119 395 136 376 q 102 444 102 413 q 132 518 102 484 q 214 572 163 552 q 328 593 265 593 q 487 504 437 593 q 671 593 553 593 q 784 556 736 593 q 859 461 832 519 q 884 338 885 403 l 524 338 q 524 328 524 333 q 524 320 524 323 q 569 93 524 165 q 696 21 614 21 q 790 48 747 21 q 860 137 834 75 l 879 115 q 795 17 852 50 q 662 -16 737 -16 q 534 24 589 -16 q 450 133 479 64 q 355 22 410 60 q 239 -16 300 -16 m 663 571 q 599 540 628 571 q 551 461 570 509 q 526 359 531 412 l 776 359 q 750 523 779 475 q 663 571 721 571 m 288 33 q 373 65 334 33 q 444 152 412 98 q 424 278 424 210 l 424 279 l 424 279 l 424 373 q 387 322 414 337 q 325 300 359 307 q 258 280 290 292 q 204 238 226 267 q 183 149 183 209 q 288 33 183 33 z "},"b":{"ha":711,"x_min":-1,"x_max":642,"o":"m 99 -20 l 85 -3 q 107 45 101 22 q 113 102 113 67 l 113 747 q 89 814 113 789 q -1 845 64 840 l -1 866 q 40 863 18 864 q 82 863 62 863 q 153 866 120 863 q 213 878 186 869 l 213 479 q 291 563 239 534 q 406 593 342 593 q 530 553 477 593 q 613 447 583 514 q 642 297 642 380 q 609 137 642 208 q 517 25 576 66 q 379 -16 458 -16 q 273 19 319 -16 q 206 100 227 53 q 147 41 176 73 q 99 -20 118 8 m 365 557 q 278 526 321 557 q 213 428 235 494 l 213 132 q 269 49 231 83 q 351 15 307 15 q 486 84 438 15 q 533 281 533 153 q 489 481 533 404 q 365 557 444 557 z "},"c":{"ha":578,"x_min":65,"x_max":529,"o":"m 313 -16 q 133 65 201 -16 q 65 280 65 145 q 98 443 65 373 q 189 553 130 513 q 326 593 248 593 q 465 550 408 593 q 521 444 521 508 q 503 371 521 400 q 455 342 485 342 q 415 356 431 342 q 400 396 400 371 q 417 454 400 422 q 434 517 434 486 q 407 554 434 541 q 340 566 380 566 q 216 492 260 566 q 173 289 173 418 q 218 91 173 161 q 345 21 262 21 q 444 47 401 21 q 509 137 486 73 l 529 115 q 449 17 506 49 q 313 -16 391 -16 z "},"ç":{"ha":578,"x_min":65,"x_max":529,"o":"m 313 -16 q 133 65 201 -16 q 65 280 65 145 q 98 443 65 373 q 189 553 130 513 q 326 593 248 593 q 465 550 408 593 q 521 444 521 508 q 503 371 521 400 q 455 342 485 342 q 415 356 431 342 q 400 396 400 371 q 417 454 400 422 q 434 517 434 486 q 407 554 434 541 q 340 566 380 566 q 216 492 260 566 q 173 289 173 418 q 218 91 173 161 q 345 21 262 21 q 444 47 401 21 q 509 137 486 73 l 529 115 q 449 17 506 49 q 313 -16 391 -16 m 281 -275 q 239 -271 261 -275 q 209 -259 217 -267 l 212 -245 q 249 -254 227 -254 q 312 -232 288 -254 q 336 -169 336 -210 q 323 -131 336 -144 q 289 -117 310 -117 q 267 -118 279 -117 q 250 -121 254 -120 l 292 -6 l 309 -6 l 271 -109 q 304 -90 287 -97 q 342 -83 321 -83 q 395 -106 374 -83 q 415 -165 415 -129 q 377 -245 415 -215 q 281 -275 339 -275 z "},"d":{"ha":728,"x_min":68,"x_max":702,"o":"m 309 -16 q 182 26 236 -16 q 98 136 128 67 q 68 284 68 204 q 101 440 68 370 q 193 551 134 510 q 332 593 252 593 q 430 574 389 593 q 490 517 472 555 l 490 747 q 466 817 490 795 q 380 845 442 840 l 380 866 q 421 863 399 864 q 463 863 442 863 q 591 878 532 863 l 591 119 q 614 49 591 75 q 702 21 638 23 l 702 0 q 661 2 683 1 q 618 3 640 3 q 551 -2 583 3 q 490 -12 519 -6 l 490 115 q 419 20 466 56 q 309 -16 373 -16 m 178 304 q 223 97 178 175 q 349 20 269 20 q 432 60 395 20 q 490 170 469 100 l 490 477 q 439 540 475 517 q 355 562 404 562 q 224 495 271 562 q 178 304 178 428 z "},"ð":{"ha":719,"x_min":73,"x_max":654,"o":"m 359 -16 q 208 22 273 -16 q 109 127 144 60 q 73 281 73 195 q 108 435 73 367 q 206 543 143 503 q 351 583 269 583 q 450 560 407 583 q 520 500 494 537 q 459 636 498 572 q 362 749 419 699 l 152 659 l 144 680 l 346 763 q 184 857 276 821 l 192 876 q 391 782 301 842 l 600 869 l 607 848 l 408 769 q 590 563 526 684 q 654 310 654 442 q 618 140 654 213 q 516 25 583 66 q 359 -16 450 -16 m 182 290 q 230 80 182 155 q 363 5 277 5 q 498 89 451 5 q 546 313 546 174 q 538 418 546 368 q 477 516 519 480 q 377 552 435 552 q 233 481 284 552 q 182 290 182 411 z "},"e":{"ha":626,"x_min":67,"x_max":563,"o":"m 327 -16 q 191 22 249 -16 q 100 125 132 59 q 67 278 67 192 q 139 506 67 420 q 336 593 210 593 q 456 556 405 593 q 535 461 507 519 q 562 338 563 403 l 176 338 q 176 317 176 331 q 224 94 176 166 q 361 21 273 21 q 467 48 418 21 q 543 137 515 75 l 561 115 q 472 17 534 50 q 327 -16 410 -16 m 329 571 q 260 540 292 571 q 206 461 228 509 q 178 361 184 412 l 454 361 q 426 524 456 477 q 329 571 395 571 z "},"é":{"ha":626,"x_min":67,"x_max":563,"o":"m 327 -16 q 191 22 249 -16 q 100 125 132 59 q 67 278 67 192 q 139 506 67 420 q 336 593 210 593 q 456 556 405 593 q 535 461 507 519 q 562 338 563 403 l 176 338 q 176 317 176 331 q 224 94 176 166 q 361 21 273 21 q 467 48 418 21 q 543 137 515 75 l 561 115 q 472 17 534 50 q 327 -16 410 -16 m 329 571 q 260 540 292 571 q 206 461 228 509 q 178 361 184 412 l 454 361 q 426 524 456 477 q 329 571 395 571 m 292 681 l 281 694 q 323 755 311 723 q 339 818 335 787 q 345 871 342 848 q 358 907 347 895 q 395 922 374 924 q 433 903 416 920 q 454 864 449 886 q 441 823 458 842 q 409 784 425 810 q 366 730 393 758 q 292 681 339 702 z "},"ê":{"ha":626,"x_min":67,"x_max":563,"o":"m 327 -16 q 191 22 249 -16 q 100 125 132 59 q 67 278 67 192 q 139 506 67 420 q 336 593 210 593 q 456 556 405 593 q 535 461 507 519 q 562 338 563 403 l 176 338 q 176 317 176 331 q 224 94 176 166 q 361 21 273 21 q 467 48 418 21 q 543 137 515 75 l 561 115 q 472 17 534 50 q 327 -16 410 -16 m 329 571 q 260 540 292 571 q 206 461 228 509 q 178 361 184 412 l 454 361 q 426 524 456 477 q 329 571 395 571 m 483 694 l 471 680 l 314 827 l 195 680 l 182 698 l 323 916 l 343 916 l 483 694 z "},"ë":{"ha":626,"x_min":67,"x_max":563,"o":"m 327 -16 q 191 22 249 -16 q 100 125 132 59 q 67 278 67 192 q 139 506 67 420 q 336 593 210 593 q 456 556 405 593 q 535 461 507 519 q 562 338 563 403 l 176 338 q 176 317 176 331 q 224 94 176 166 q 361 21 273 21 q 467 48 418 21 q 543 137 515 75 l 561 115 q 472 17 534 50 q 327 -16 410 -16 m 329 571 q 260 540 292 571 q 206 461 228 509 q 178 361 184 412 l 454 361 q 426 524 456 477 q 329 571 395 571 m 437 721 q 390 740 409 721 q 372 785 372 758 q 390 831 372 812 q 437 850 409 850 q 483 831 464 850 q 501 785 501 812 q 483 740 501 758 q 437 721 464 721 m 233 721 q 186 740 205 721 q 168 785 168 758 q 186 831 168 812 q 233 850 205 850 q 278 831 259 850 q 297 785 297 812 q 278 740 297 758 q 233 721 259 721 z "},"è":{"ha":626,"x_min":67,"x_max":563,"o":"m 327 -16 q 191 22 249 -16 q 100 125 132 59 q 67 278 67 192 q 139 506 67 420 q 336 593 210 593 q 456 556 405 593 q 535 461 507 519 q 562 338 563 403 l 176 338 q 176 317 176 331 q 224 94 176 166 q 361 21 273 21 q 467 48 418 21 q 543 137 515 75 l 561 115 q 472 17 534 50 q 327 -16 410 -16 m 329 571 q 260 540 292 571 q 206 461 228 509 q 178 361 184 412 l 454 361 q 426 524 456 477 q 329 571 395 571 m 359 684 l 347 673 q 273 724 300 694 q 229 781 245 754 q 195 821 212 808 q 183 863 179 840 q 204 901 187 885 q 242 920 220 918 q 279 905 264 921 q 292 870 290 895 q 298 814 294 846 q 315 749 302 783 q 359 684 328 715 z "},"f":{"ha":389,"x_min":27,"x_max":482,"o":"m 31 0 l 31 21 q 105 41 85 22 q 125 110 125 60 l 125 555 l 27 555 l 27 576 l 125 576 l 125 612 q 180 802 125 728 q 343 876 235 876 q 444 849 405 876 q 482 773 482 821 q 465 722 482 742 q 421 702 448 702 q 387 716 400 702 q 373 749 373 730 q 388 794 373 772 q 403 831 403 815 q 354 856 403 856 q 257 794 288 856 q 226 605 226 732 l 226 576 l 354 576 l 354 555 l 226 555 l 226 110 q 254 43 226 64 q 351 21 282 22 l 351 0 q 275 3 324 1 q 179 5 226 5 q 92 3 132 5 q 31 0 52 1 z "},"g":{"ha":572,"x_min":31,"x_max":551,"o":"m 244 224 q 236 224 240 224 q 199 182 212 199 q 186 147 186 164 q 256 106 186 106 l 341 106 q 465 72 422 106 q 508 -30 508 37 q 473 -153 508 -100 q 377 -237 437 -207 q 238 -268 316 -268 q 87 -225 143 -268 q 31 -112 31 -182 q 63 -33 31 -65 q 157 37 94 0 q 115 118 115 65 q 211 227 115 165 q 101 287 139 237 q 63 408 63 337 q 110 541 63 488 q 245 593 157 593 q 329 576 294 593 q 388 530 365 559 q 435 575 408 557 q 489 593 463 593 q 534 572 517 593 q 551 516 551 552 q 540 461 551 482 q 512 440 530 440 q 485 457 494 440 q 472 496 477 474 q 463 536 468 519 q 448 553 458 553 q 428 544 442 553 q 400 513 413 534 q 427 408 427 468 q 380 277 427 330 q 244 224 333 224 m 244 243 q 305 288 287 243 q 323 408 323 332 q 305 528 323 484 q 244 572 287 572 q 185 529 203 572 q 167 408 167 486 q 185 288 167 332 q 244 243 203 243 m 123 -94 q 153 -200 123 -160 q 240 -241 182 -241 q 369 -196 317 -241 q 422 -75 422 -151 q 395 -9 422 -33 q 311 15 368 15 l 242 15 q 170 30 200 15 q 136 -20 148 15 q 123 -94 123 -55 z "},"h":{"ha":728,"x_min":26,"x_max":710,"o":"m 26 0 l 26 21 q 111 38 88 20 q 134 102 134 56 l 134 745 q 110 819 134 798 q 26 844 87 840 l 26 865 q 68 863 47 863 q 109 862 89 862 q 235 878 178 862 l 235 463 q 313 562 263 531 q 422 593 363 593 q 555 527 509 593 q 602 338 602 462 l 602 102 q 625 38 602 56 q 710 21 648 20 l 710 0 q 641 3 687 1 q 552 5 595 5 q 475 3 513 5 q 419 0 437 1 l 419 21 q 484 38 467 20 q 501 102 501 56 l 501 393 q 471 517 501 478 q 382 557 441 557 q 300 521 338 557 q 235 414 262 486 l 235 102 q 252 38 235 56 q 317 21 270 20 l 317 0 q 258 3 295 1 q 183 5 221 5 q 99 4 143 5 q 26 0 56 3 z "},"i":{"ha":336,"x_min":31,"x_max":313,"o":"m 31 0 l 31 21 q 101 39 81 22 q 121 102 121 55 l 121 458 q 100 525 121 500 q 31 556 80 549 l 31 577 q 71 574 52 575 q 106 574 90 574 q 222 589 176 574 l 222 102 q 242 39 222 55 q 313 21 262 22 l 313 0 q 253 3 293 1 q 172 5 212 5 q 92 3 132 5 q 31 0 51 1 m 177 714 q 131 735 150 714 q 112 785 112 757 q 131 835 112 814 q 177 855 150 855 q 222 835 203 855 q 241 785 241 814 q 222 735 241 757 q 177 714 203 714 z "},"ı":{"ha":336,"x_min":31,"x_max":313,"o":"m 31 0 l 31 21 q 101 39 81 22 q 121 102 121 55 l 121 458 q 100 525 121 500 q 31 556 80 549 l 31 577 q 71 574 52 575 q 106 574 90 574 q 222 589 176 574 l 222 102 q 242 39 222 55 q 313 21 262 22 l 313 0 q 253 3 293 1 q 172 5 212 5 q 92 3 132 5 q 31 0 51 1 z "},"í":{"ha":336,"x_min":31,"x_max":313,"o":"m 31 0 l 31 21 q 101 39 81 22 q 121 102 121 55 l 121 458 q 100 525 121 500 q 31 556 80 549 l 31 577 q 71 574 52 575 q 106 574 90 574 q 222 589 176 574 l 222 102 q 242 39 222 55 q 313 21 262 22 l 313 0 q 253 3 293 1 q 172 5 212 5 q 92 3 132 5 q 31 0 51 1 m 135 681 l 123 694 q 165 755 153 723 q 181 818 178 787 q 188 871 185 848 q 201 907 190 895 q 237 922 216 924 q 275 903 258 920 q 296 864 292 886 q 283 823 301 842 q 252 784 268 810 q 209 730 235 758 q 135 681 182 702 z "},"î":{"ha":336,"x_min":24,"x_max":326,"o":"m 31 0 l 31 21 q 101 39 81 22 q 121 102 121 55 l 121 458 q 100 525 121 500 q 31 556 80 549 l 31 577 q 71 574 52 575 q 106 574 90 574 q 222 589 176 574 l 222 102 q 242 39 222 55 q 313 21 262 22 l 313 0 q 253 3 293 1 q 172 5 212 5 q 92 3 132 5 q 31 0 51 1 m 326 694 l 313 680 l 157 827 l 37 680 l 24 698 l 165 916 l 186 916 l 326 694 z "},"ï":{"ha":336,"x_min":10,"x_max":344,"o":"m 31 0 l 31 21 q 101 39 81 22 q 121 102 121 55 l 121 458 q 100 525 121 500 q 31 556 80 549 l 31 577 q 71 574 52 575 q 106 574 90 574 q 222 589 176 574 l 222 102 q 242 39 222 55 q 313 21 262 22 l 313 0 q 253 3 293 1 q 172 5 212 5 q 92 3 132 5 q 31 0 51 1 m 279 721 q 233 740 252 721 q 214 785 214 758 q 233 831 214 812 q 279 850 252 850 q 325 831 307 850 q 344 785 344 812 q 325 740 344 758 q 279 721 307 721 m 75 721 q 29 740 48 721 q 10 785 10 758 q 29 831 10 812 q 75 850 48 850 q 121 831 102 850 q 140 785 140 812 q 121 740 140 758 q 75 721 102 721 z "},"ì":{"ha":336,"x_min":22,"x_max":313,"o":"m 31 0 l 31 21 q 101 39 81 22 q 121 102 121 55 l 121 458 q 100 525 121 500 q 31 556 80 549 l 31 577 q 71 574 52 575 q 106 574 90 574 q 222 589 176 574 l 222 102 q 242 39 222 55 q 313 21 262 22 l 313 0 q 253 3 293 1 q 172 5 212 5 q 92 3 132 5 q 31 0 51 1 m 202 684 l 190 673 q 116 724 143 694 q 71 781 88 754 q 38 821 54 808 q 26 863 22 840 q 47 901 30 885 q 85 920 63 918 q 121 905 106 921 q 135 870 132 895 q 141 814 137 846 q 157 749 144 783 q 202 684 170 715 z "},"j":{"ha":294,"x_min":-50,"x_max":217,"o":"m -50 -268 l -50 -248 q 74 -191 35 -245 q 113 -21 113 -137 l 113 458 q 92 529 113 508 q 22 556 72 551 l 22 577 q 63 574 44 575 q 98 574 83 574 q 158 577 129 574 q 214 589 186 581 l 214 50 q 153 -194 214 -119 q -50 -268 92 -268 m 153 714 q 107 735 126 714 q 88 785 88 757 q 107 835 88 814 q 153 855 126 855 q 198 835 179 855 q 217 785 217 814 q 198 735 217 757 q 153 714 179 714 z "},"ȷ":{"ha":294,"x_min":-50,"x_max":214,"o":"m -50 -268 l -50 -248 q 74 -191 35 -245 q 113 -21 113 -137 l 113 458 q 92 529 113 508 q 22 556 72 551 l 22 577 q 63 574 44 575 q 98 574 83 574 q 158 577 129 574 q 214 589 186 581 l 214 50 q 153 -194 214 -119 q -50 -268 92 -268 z "},"k":{"ha":694,"x_min":25,"x_max":688,"o":"m 25 0 l 25 21 q 107 41 85 24 q 129 102 129 58 l 129 747 q 106 819 129 798 q 25 845 83 840 l 25 866 q 67 863 46 864 q 106 863 87 863 q 230 878 174 863 l 230 321 l 288 321 q 355 336 326 321 q 406 387 385 350 l 433 433 q 456 524 469 496 q 354 555 442 551 l 354 576 q 421 573 381 574 q 506 572 460 572 q 578 573 546 572 q 636 576 611 574 l 636 555 q 570 545 597 552 q 521 519 543 538 q 474 460 498 500 l 403 342 q 461 318 435 335 q 503 257 487 300 l 554 123 q 587 61 570 81 q 628 33 604 41 q 688 21 652 25 l 688 0 q 596 2 623 1 q 549 3 570 3 q 496 2 522 3 q 418 0 470 1 l 418 21 q 466 40 457 24 q 460 90 474 56 l 407 225 q 358 287 388 274 q 283 300 329 300 l 230 300 l 230 102 q 246 41 230 58 q 308 21 262 24 l 308 0 q 252 3 289 1 q 178 5 216 5 q 92 3 136 5 q 25 0 47 1 z "},"l":{"ha":336,"x_min":23,"x_max":314,"o":"m 23 0 l 23 21 q 97 39 76 22 q 118 102 118 55 l 118 747 q 97 814 118 789 q 23 845 75 840 l 23 866 q 64 863 45 864 q 102 863 83 863 q 164 866 135 863 q 219 878 194 870 l 219 102 q 240 39 219 55 q 314 21 261 22 l 314 0 q 252 3 293 1 q 169 5 210 5 q 86 3 127 5 q 23 0 45 1 z "},"m":{"ha":1111,"x_min":35,"x_max":1092,"o":"m 35 0 l 35 21 q 122 39 98 20 q 146 102 146 58 l 146 458 q 121 530 146 508 q 35 556 96 552 l 35 577 q 75 574 54 574 q 119 574 96 574 q 186 577 154 574 q 247 589 218 581 l 247 466 q 326 562 276 532 q 434 593 375 593 q 597 462 558 593 q 681 564 627 536 q 801 593 735 593 q 934 528 888 593 q 981 338 981 464 l 981 102 q 1004 38 981 56 q 1092 21 1028 20 l 1092 0 q 1022 3 1069 1 q 931 5 975 5 q 853 3 891 5 q 795 0 814 1 l 795 21 q 862 38 844 20 q 880 102 880 56 l 880 393 q 850 517 880 478 q 764 557 821 557 q 675 529 716 557 q 605 431 633 500 q 613 338 613 389 l 613 102 q 631 38 613 56 q 698 21 649 20 l 698 0 q 640 3 679 1 q 564 5 602 5 q 486 3 524 5 q 429 0 448 1 l 429 21 q 495 38 477 20 q 513 102 513 56 l 513 393 q 484 517 513 478 q 397 557 454 557 q 247 418 304 557 l 247 102 q 265 39 247 58 q 332 21 283 20 l 332 0 q 268 3 302 1 q 195 5 233 5 q 115 4 156 5 q 35 0 73 3 z "},"n":{"ha":723,"x_min":34,"x_max":705,"o":"m 34 0 l 34 21 q 116 39 94 20 q 139 102 139 58 l 139 458 q 115 530 139 508 q 34 556 92 552 l 34 577 q 74 574 54 574 q 116 574 95 574 q 180 577 149 574 q 240 589 212 581 l 240 467 q 317 563 268 532 q 425 593 366 593 q 554 527 509 593 q 600 338 600 462 l 600 102 q 622 38 600 56 q 705 21 645 20 l 705 0 q 637 3 682 1 q 550 5 593 5 q 474 3 511 5 q 418 0 437 1 l 418 21 q 482 38 465 20 q 498 102 498 56 l 498 393 q 470 517 498 478 q 383 557 441 557 q 240 418 294 557 l 240 102 q 257 39 240 58 q 320 21 275 20 l 320 0 q 260 3 294 1 q 189 5 227 5 q 106 4 147 5 q 34 0 66 3 z "},"ñ":{"ha":723,"x_min":34,"x_max":705,"o":"m 34 0 l 34 21 q 116 39 94 20 q 139 102 139 58 l 139 458 q 115 530 139 508 q 34 556 92 552 l 34 577 q 74 574 54 574 q 116 574 95 574 q 180 577 149 574 q 240 589 212 581 l 240 467 q 317 563 268 532 q 425 593 366 593 q 554 527 509 593 q 600 338 600 462 l 600 102 q 622 38 600 56 q 705 21 645 20 l 705 0 q 637 3 682 1 q 550 5 593 5 q 474 3 511 5 q 418 0 437 1 l 418 21 q 482 38 465 20 q 498 102 498 56 l 498 393 q 470 517 498 478 q 383 557 441 557 q 240 418 294 557 l 240 102 q 257 39 240 58 q 320 21 275 20 l 320 0 q 260 3 294 1 q 189 5 227 5 q 106 4 147 5 q 34 0 66 3 m 437 708 q 378 727 403 708 q 329 765 353 746 q 276 783 306 783 q 199 709 223 783 l 183 711 q 229 816 199 777 q 302 854 260 854 q 362 836 338 854 q 411 798 387 817 q 465 779 434 779 q 542 853 519 779 l 557 851 q 511 743 543 779 q 437 708 479 708 z "},"o":{"ha":719,"x_min":72,"x_max":648,"o":"m 359 -16 q 212 23 277 -16 q 110 131 147 62 q 72 288 72 199 q 109 444 72 374 q 212 553 146 513 q 359 593 277 593 q 507 553 442 593 q 610 444 572 513 q 648 288 648 374 q 610 133 648 201 q 507 24 572 64 q 359 -16 442 -16 m 359 5 q 452 43 412 5 q 515 145 492 81 q 538 288 538 209 q 515 431 538 367 q 452 534 492 496 q 359 572 412 572 q 268 534 308 572 q 204 431 227 496 q 181 288 181 367 q 204 144 181 208 q 268 42 227 80 q 359 5 308 5 z "},"ó":{"ha":719,"x_min":72,"x_max":648,"o":"m 359 -16 q 212 23 277 -16 q 110 131 147 62 q 72 288 72 199 q 109 444 72 374 q 212 553 146 513 q 359 593 277 593 q 507 553 442 593 q 610 444 572 513 q 648 288 648 374 q 610 133 648 201 q 507 24 572 64 q 359 -16 442 -16 m 359 5 q 452 43 412 5 q 515 145 492 81 q 538 288 538 209 q 515 431 538 367 q 452 534 492 496 q 359 572 412 572 q 268 534 308 572 q 204 431 227 496 q 181 288 181 367 q 204 144 181 208 q 268 42 227 80 q 359 5 308 5 m 322 681 l 311 694 q 353 755 340 723 q 369 818 365 787 q 375 871 372 848 q 388 907 377 895 q 425 922 404 924 q 463 903 446 920 q 484 864 479 886 q 471 823 488 842 q 439 784 455 810 q 396 730 422 758 q 322 681 369 702 z "},"ô":{"ha":719,"x_min":72,"x_max":648,"o":"m 359 -16 q 212 23 277 -16 q 110 131 147 62 q 72 288 72 199 q 109 444 72 374 q 212 553 146 513 q 359 593 277 593 q 507 553 442 593 q 610 444 572 513 q 648 288 648 374 q 610 133 648 201 q 507 24 572 64 q 359 -16 442 -16 m 359 5 q 452 43 412 5 q 515 145 492 81 q 538 288 538 209 q 515 431 538 367 q 452 534 492 496 q 359 572 412 572 q 268 534 308 572 q 204 431 227 496 q 181 288 181 367 q 204 144 181 208 q 268 42 227 80 q 359 5 308 5 m 513 694 l 500 680 l 344 827 l 224 680 l 212 698 l 353 916 l 373 916 l 513 694 z "},"ö":{"ha":719,"x_min":72,"x_max":648,"o":"m 359 -16 q 212 23 277 -16 q 110 131 147 62 q 72 288 72 199 q 109 444 72 374 q 212 553 146 513 q 359 593 277 593 q 507 553 442 593 q 610 444 572 513 q 648 288 648 374 q 610 133 648 201 q 507 24 572 64 q 359 -16 442 -16 m 359 5 q 452 43 412 5 q 515 145 492 81 q 538 288 538 209 q 515 431 538 367 q 452 534 492 496 q 359 572 412 572 q 268 534 308 572 q 204 431 227 496 q 181 288 181 367 q 204 144 181 208 q 268 42 227 80 q 359 5 308 5 m 467 721 q 420 740 439 721 q 401 785 401 758 q 420 831 401 812 q 467 850 439 850 q 512 831 494 850 q 531 785 531 812 q 512 740 531 758 q 467 721 494 721 m 262 721 q 216 740 235 721 q 197 785 197 758 q 216 831 197 812 q 262 850 235 850 q 308 831 289 850 q 327 785 327 812 q 308 740 327 758 q 262 721 289 721 z "},"ò":{"ha":719,"x_min":72,"x_max":648,"o":"m 359 -16 q 212 23 277 -16 q 110 131 147 62 q 72 288 72 199 q 109 444 72 374 q 212 553 146 513 q 359 593 277 593 q 507 553 442 593 q 610 444 572 513 q 648 288 648 374 q 610 133 648 201 q 507 24 572 64 q 359 -16 442 -16 m 359 5 q 452 43 412 5 q 515 145 492 81 q 538 288 538 209 q 515 431 538 367 q 452 534 492 496 q 359 572 412 572 q 268 534 308 572 q 204 431 227 496 q 181 288 181 367 q 204 144 181 208 q 268 42 227 80 q 359 5 308 5 m 389 684 l 377 673 q 303 724 330 694 q 258 781 275 754 q 225 821 241 808 q 213 863 209 840 q 234 901 217 885 q 272 920 250 918 q 309 905 294 921 q 322 870 319 895 q 328 814 324 846 q 345 749 332 783 q 389 684 357 715 z "},"ø":{"ha":719,"x_min":72,"x_max":648,"o":"m 359 -16 q 212 23 277 -16 q 110 131 147 62 q 72 288 72 199 q 109 444 72 374 q 212 553 146 513 q 359 593 277 593 q 507 553 442 593 q 610 444 572 513 q 648 288 648 374 q 610 133 648 201 q 507 24 572 64 q 359 -16 442 -16 m 359 5 q 452 43 412 5 q 515 145 492 81 q 538 288 538 209 q 515 431 538 367 q 452 534 492 496 q 359 572 412 572 q 268 534 308 572 q 204 431 227 496 q 181 288 181 367 q 204 144 181 208 q 268 42 227 80 q 359 5 308 5 m 585 658 l 499 491 l 487 506 l 570 675 l 585 658 m 485 488 l 245 74 l 235 87 l 474 503 l 485 488 m 237 68 l 148 -72 l 134 -59 l 223 81 l 237 68 z "},"õ":{"ha":719,"x_min":72,"x_max":648,"o":"m 359 -16 q 212 23 277 -16 q 110 131 147 62 q 72 288 72 199 q 109 444 72 374 q 212 553 146 513 q 359 593 277 593 q 507 553 442 593 q 610 444 572 513 q 648 288 648 374 q 610 133 648 201 q 507 24 572 64 q 359 -16 442 -16 m 359 5 q 452 43 412 5 q 515 145 492 81 q 538 288 538 209 q 515 431 538 367 q 452 534 492 496 q 359 572 412 572 q 268 534 308 572 q 204 431 227 496 q 181 288 181 367 q 204 144 181 208 q 268 42 227 80 q 359 5 308 5 m 431 708 q 372 727 397 708 q 324 765 347 746 q 271 783 300 783 q 193 709 218 783 l 178 711 q 224 816 193 777 q 297 854 254 854 q 357 836 332 854 q 405 798 382 817 q 459 779 429 779 q 536 853 513 779 l 552 851 q 505 743 537 779 q 431 708 473 708 z "},"œ":{"ha":1141,"x_min":75,"x_max":1070,"o":"m 353 -16 q 206 24 269 -16 q 110 132 144 63 q 75 288 75 201 q 109 445 75 376 q 205 553 143 513 q 351 593 267 593 q 489 558 431 593 q 582 460 548 523 q 679 557 618 522 q 819 593 740 593 q 955 558 899 593 q 1041 467 1011 524 q 1069 338 1070 409 l 634 338 q 633 320 633 321 q 688 94 633 167 q 850 21 744 21 q 961 46 910 21 q 1048 137 1012 71 l 1065 115 q 963 17 1029 50 q 811 -16 897 -16 q 673 18 733 -16 q 578 110 613 51 q 487 18 545 51 q 353 -16 429 -16 m 355 5 q 445 42 407 5 q 503 143 483 79 q 524 288 524 208 q 503 433 524 368 q 445 535 483 497 q 355 573 407 573 q 264 535 302 573 q 205 433 226 497 q 184 288 184 368 q 205 143 184 208 q 264 42 226 79 q 355 5 302 5 m 812 571 q 692 512 740 571 q 635 361 644 454 l 960 361 q 923 517 962 464 q 812 571 883 571 z "},"p":{"ha":728,"x_min":26,"x_max":656,"o":"m 26 -259 l 26 -238 q 114 -220 90 -237 q 138 -157 138 -203 l 138 458 q 113 531 138 512 q 26 556 87 551 l 26 577 q 67 574 45 575 q 110 574 88 574 q 179 577 147 574 q 239 589 212 581 l 239 501 q 315 569 267 545 q 419 593 363 593 q 544 553 490 593 q 626 447 597 514 q 656 297 656 380 q 623 137 656 208 q 531 25 590 66 q 393 -16 471 -16 q 304 8 344 -16 q 239 66 264 31 l 239 -149 q 272 -216 239 -196 q 383 -238 304 -237 l 383 -259 q 298 -256 353 -258 q 191 -254 243 -254 q 95 -256 139 -254 q 26 -259 50 -258 m 378 557 q 301 533 339 557 q 239 458 263 509 l 239 105 q 293 40 260 66 q 365 15 326 15 q 499 84 452 15 q 547 281 547 153 q 502 481 547 404 q 378 557 458 557 z "},"þ":{"ha":724,"x_min":-1,"x_max":656,"o":"m -1 -259 l -1 -238 q 90 -220 64 -237 q 115 -157 115 -203 l 115 747 q 89 820 115 801 q -1 845 62 840 l -1 866 q 39 863 17 864 q 83 863 60 863 q 155 866 122 863 q 215 878 188 869 l 215 481 q 298 564 243 535 q 419 593 352 593 q 544 553 490 593 q 626 447 597 514 q 656 297 656 380 q 623 137 656 208 q 531 25 590 66 q 393 -16 471 -16 q 287 14 334 -16 q 215 84 240 43 l 215 -149 q 250 -216 215 -196 q 366 -238 285 -237 l 366 -259 q 279 -256 336 -258 q 168 -254 222 -254 q 68 -256 114 -254 q -1 -259 23 -258 m 378 557 q 285 527 331 557 q 215 431 239 496 l 215 129 q 276 48 236 81 q 365 15 317 15 q 499 84 452 15 q 547 281 547 153 q 502 481 547 404 q 378 557 458 557 z "},"q":{"ha":703,"x_min":67,"x_max":687,"o":"m 302 -16 q 178 25 231 -16 q 96 135 125 66 q 67 283 67 203 q 99 439 67 369 q 189 551 131 509 q 326 593 247 593 q 428 565 385 593 q 485 479 470 538 q 545 534 517 502 q 591 597 573 566 l 606 581 q 585 530 591 553 q 579 477 579 507 l 579 -157 q 603 -220 579 -203 q 687 -238 626 -237 l 687 -259 q 621 -256 664 -258 q 526 -254 577 -254 q 420 -256 474 -254 q 337 -259 366 -258 l 337 -238 q 446 -216 414 -237 q 478 -149 478 -196 l 478 85 q 410 13 455 41 q 302 -16 366 -16 m 176 304 q 220 97 176 174 q 342 20 264 20 q 424 50 388 20 q 478 136 459 80 l 478 433 q 429 533 463 504 q 350 562 396 562 q 222 494 268 562 q 176 304 176 427 z "},"r":{"ha":483,"x_min":30,"x_max":457,"o":"m 30 0 l 30 21 q 101 39 82 22 q 119 102 119 55 l 119 458 q 99 530 119 508 q 30 556 79 552 l 30 577 q 72 574 54 574 q 109 574 91 574 q 163 577 134 574 q 220 589 193 581 l 220 514 q 283 573 241 554 q 365 593 325 593 q 432 563 407 593 q 457 487 457 534 q 443 419 457 446 q 405 392 429 392 q 369 405 382 392 q 355 441 355 418 q 364 493 355 473 q 374 536 374 513 q 340 557 374 557 q 269 537 307 557 q 220 461 231 517 l 220 110 q 247 42 220 62 q 336 21 273 22 l 336 0 q 265 3 311 1 q 172 5 218 5 q 90 3 129 5 q 30 0 50 1 z "},"s":{"ha":491,"x_min":53,"x_max":432,"o":"m 254 -16 q 184 -6 211 -16 q 141 14 157 4 q 112 23 125 23 q 89 15 100 23 q 73 -13 78 7 l 53 -13 q 58 6 56 -11 q 59 72 60 22 q 56 222 59 121 l 76 222 q 127 64 90 123 q 235 5 164 5 q 325 37 293 5 q 357 130 357 68 q 333 216 357 186 q 245 264 309 245 q 115 320 159 290 q 72 420 72 351 q 117 547 72 500 q 235 593 163 593 q 295 583 273 593 q 331 563 317 573 q 359 553 345 553 q 393 589 381 553 l 412 589 q 407 511 408 555 q 410 392 407 467 l 390 392 q 345 523 384 475 q 248 570 306 570 q 174 544 201 570 q 146 465 146 518 q 179 389 146 413 q 283 343 211 365 q 396 283 361 320 q 432 174 432 245 q 384 34 432 84 q 254 -16 336 -16 z "},"š":{"ha":491,"x_min":53,"x_max":432,"o":"m 254 -16 q 184 -6 211 -16 q 141 14 157 4 q 112 23 125 23 q 89 15 100 23 q 73 -13 78 7 l 53 -13 q 58 6 56 -11 q 59 72 60 22 q 56 222 59 121 l 76 222 q 127 64 90 123 q 235 5 164 5 q 325 37 293 5 q 357 130 357 68 q 333 216 357 186 q 245 264 309 245 q 115 320 159 290 q 72 420 72 351 q 117 547 72 500 q 235 593 163 593 q 295 583 273 593 q 331 563 317 573 q 359 553 345 553 q 393 589 381 553 l 412 589 q 407 511 408 555 q 410 392 407 467 l 390 392 q 345 523 384 475 q 248 570 306 570 q 174 544 201 570 q 146 465 146 518 q 179 389 146 413 q 283 343 211 365 q 396 283 361 320 q 432 174 432 245 q 384 34 432 84 q 254 -16 336 -16 m 401 905 l 260 687 l 240 687 l 100 908 l 113 923 l 269 776 l 389 923 l 401 905 z "},"ß":{"ha":654,"x_min":23,"x_max":619,"o":"m 408 -16 q 321 16 355 -16 q 286 102 286 47 q 302 173 286 144 q 345 201 318 201 q 394 157 394 201 q 385 90 394 115 q 375 41 375 64 q 397 7 375 7 q 460 39 435 7 q 500 123 486 70 q 513 240 513 176 q 479 393 513 331 q 380 472 444 455 q 334 459 347 459 q 311 477 311 459 q 336 497 311 497 q 355 496 345 497 q 380 493 365 494 q 441 671 441 567 q 415 807 441 758 q 333 856 388 856 q 219 638 219 856 l 219 -12 q 90 5 161 5 q 23 0 52 5 l 23 21 q 97 48 75 25 q 118 122 118 71 l 118 605 q 172 806 118 736 q 336 876 227 876 q 486 827 431 876 q 541 686 541 777 q 400 487 541 559 q 562 415 505 478 q 619 251 619 352 q 592 115 619 175 q 517 19 564 54 q 408 -16 469 -16 z "},"t":{"ha":360,"x_min":6,"x_max":356,"o":"m 228 -16 q 129 25 159 -16 q 99 158 99 66 l 99 555 l 6 555 l 6 576 l 99 576 l 99 747 q 151 751 125 746 q 200 763 177 756 l 200 576 l 335 576 l 335 555 l 200 555 l 200 84 q 213 35 200 51 q 256 19 225 19 q 309 54 286 19 q 340 142 332 90 l 356 138 q 228 -16 330 -16 z "},"u":{"ha":711,"x_min":16,"x_max":686,"o":"m 299 -14 q 169 48 214 -14 q 123 240 123 111 l 123 458 q 99 529 123 508 q 16 556 76 551 l 16 577 q 52 574 31 575 q 94 574 73 574 q 160 577 128 574 q 224 589 191 581 l 224 160 q 253 52 224 84 q 338 19 281 19 q 415 51 379 19 q 477 151 451 82 l 477 458 q 455 530 477 510 q 379 556 434 551 l 379 577 q 415 574 395 575 q 455 574 436 574 q 518 577 488 574 q 578 589 548 580 l 578 119 q 602 45 578 68 q 686 20 626 23 l 686 -1 q 607 3 647 3 q 541 0 573 3 q 477 -13 509 -3 l 477 105 q 404 14 451 41 q 299 -14 357 -14 z "},"ú":{"ha":711,"x_min":16,"x_max":686,"o":"m 299 -14 q 169 48 214 -14 q 123 240 123 111 l 123 458 q 99 529 123 508 q 16 556 76 551 l 16 577 q 52 574 31 575 q 94 574 73 574 q 160 577 128 574 q 224 589 191 581 l 224 160 q 253 52 224 84 q 338 19 281 19 q 415 51 379 19 q 477 151 451 82 l 477 458 q 455 530 477 510 q 379 556 434 551 l 379 577 q 415 574 395 575 q 455 574 436 574 q 518 577 488 574 q 578 589 548 580 l 578 119 q 602 45 578 68 q 686 20 626 23 l 686 -1 q 607 3 647 3 q 541 0 573 3 q 477 -13 509 -3 l 477 105 q 404 14 451 41 q 299 -14 357 -14 m 300 681 l 289 694 q 331 755 319 723 q 347 818 343 787 q 353 871 351 848 q 366 907 355 895 q 403 922 382 924 q 441 903 424 920 q 462 864 457 886 q 449 823 467 842 q 417 784 433 810 q 374 730 401 758 q 300 681 347 702 z "},"û":{"ha":711,"x_min":16,"x_max":686,"o":"m 299 -14 q 169 48 214 -14 q 123 240 123 111 l 123 458 q 99 529 123 508 q 16 556 76 551 l 16 577 q 52 574 31 575 q 94 574 73 574 q 160 577 128 574 q 224 589 191 581 l 224 160 q 253 52 224 84 q 338 19 281 19 q 415 51 379 19 q 477 151 451 82 l 477 458 q 455 530 477 510 q 379 556 434 551 l 379 577 q 415 574 395 575 q 455 574 436 574 q 518 577 488 574 q 578 589 548 580 l 578 119 q 602 45 578 68 q 686 20 626 23 l 686 -1 q 607 3 647 3 q 541 0 573 3 q 477 -13 509 -3 l 477 105 q 404 14 451 41 q 299 -14 357 -14 m 491 694 l 479 680 l 322 827 l 203 680 l 190 698 l 331 916 l 351 916 l 491 694 z "},"ü":{"ha":711,"x_min":16,"x_max":686,"o":"m 299 -14 q 169 48 214 -14 q 123 240 123 111 l 123 458 q 99 529 123 508 q 16 556 76 551 l 16 577 q 52 574 31 575 q 94 574 73 574 q 160 577 128 574 q 224 589 191 581 l 224 160 q 253 52 224 84 q 338 19 281 19 q 415 51 379 19 q 477 151 451 82 l 477 458 q 455 530 477 510 q 379 556 434 551 l 379 577 q 415 574 395 575 q 455 574 436 574 q 518 577 488 574 q 578 589 548 580 l 578 119 q 602 45 578 68 q 686 20 626 23 l 686 -1 q 607 3 647 3 q 541 0 573 3 q 477 -13 509 -3 l 477 105 q 404 14 451 41 q 299 -14 357 -14 m 445 721 q 398 740 417 721 q 380 785 380 758 q 398 831 380 812 q 445 850 417 850 q 491 831 472 850 q 509 785 509 812 q 491 740 509 758 q 445 721 472 721 m 241 721 q 195 740 214 721 q 176 785 176 758 q 195 831 176 812 q 241 850 214 850 q 286 831 267 850 q 305 785 305 812 q 286 740 305 758 q 241 721 267 721 z "},"ù":{"ha":711,"x_min":16,"x_max":686,"o":"m 299 -14 q 169 48 214 -14 q 123 240 123 111 l 123 458 q 99 529 123 508 q 16 556 76 551 l 16 577 q 52 574 31 575 q 94 574 73 574 q 160 577 128 574 q 224 589 191 581 l 224 160 q 253 52 224 84 q 338 19 281 19 q 415 51 379 19 q 477 151 451 82 l 477 458 q 455 530 477 510 q 379 556 434 551 l 379 577 q 415 574 395 575 q 455 574 436 574 q 518 577 488 574 q 578 589 548 580 l 578 119 q 602 45 578 68 q 686 20 626 23 l 686 -1 q 607 3 647 3 q 541 0 573 3 q 477 -13 509 -3 l 477 105 q 404 14 451 41 q 299 -14 357 -14 m 368 684 l 355 673 q 281 724 309 694 q 237 781 254 754 q 203 821 220 808 q 191 863 187 840 q 212 901 195 885 q 250 920 229 918 q 287 905 272 921 q 300 870 298 895 q 306 814 302 846 q 323 749 310 783 q 368 684 336 715 z "},"v":{"ha":575,"x_min":5,"x_max":563,"o":"m 304 -14 l 284 -14 l 93 489 q 5 555 70 551 l 5 576 q 55 575 29 576 q 122 574 81 574 q 206 574 177 574 q 267 576 235 574 l 267 555 q 208 534 223 555 q 215 455 193 513 l 332 145 l 418 426 q 438 494 431 467 q 430 537 445 522 q 363 555 415 553 l 363 576 q 423 574 405 574 q 469 574 441 574 q 522 574 498 574 q 563 576 545 574 l 563 555 q 480 491 513 543 q 417 345 447 439 l 304 -14 z "},"w":{"ha":852,"x_min":5,"x_max":840,"o":"m 274 -14 l 255 -14 l 85 458 q 46 525 72 496 q 5 555 20 553 l 5 576 q 57 573 24 574 q 127 572 90 572 q 270 576 213 572 l 270 555 q 197 525 212 554 q 205 428 181 496 l 302 153 l 429 581 l 469 581 l 622 155 l 690 398 q 708 498 710 467 q 686 541 707 530 q 629 555 666 551 l 629 576 q 688 574 668 574 q 732 574 708 574 q 792 574 764 574 q 840 576 820 574 l 840 555 q 724 433 753 534 l 593 -14 l 574 -14 l 411 441 l 274 -14 z "},"x":{"ha":619,"x_min":7,"x_max":602,"o":"m 7 0 l 7 21 q 55 43 33 33 q 100 70 77 54 q 154 119 123 87 q 229 208 184 151 l 271 263 l 120 472 q 77 525 99 502 q 25 555 55 548 l 25 576 q 77 572 43 572 q 142 572 112 572 q 211 572 174 572 q 267 576 247 572 l 267 555 q 218 531 220 551 q 235 485 216 511 l 345 334 l 389 395 q 422 474 420 439 q 410 530 425 509 q 376 555 395 552 l 376 576 q 428 574 405 574 q 480 573 451 573 q 533 574 508 573 q 581 576 558 574 l 581 555 q 537 533 559 547 q 488 489 515 519 q 420 403 460 459 l 358 316 l 497 125 q 547 64 521 94 q 602 21 572 34 l 602 0 q 553 3 587 1 q 488 5 519 5 q 420 4 456 5 q 363 0 384 3 l 363 21 q 413 44 411 24 q 395 92 415 64 l 283 246 l 223 165 q 170 57 164 86 q 253 21 176 28 l 253 0 q 191 2 228 1 q 120 3 154 3 q 63 2 89 3 q 7 0 37 1 z "},"y":{"ha":581,"x_min":5,"x_max":568,"o":"m 144 -275 q 76 -247 101 -275 q 50 -171 50 -218 q 67 -111 50 -134 q 111 -89 83 -89 q 141 -101 130 -89 q 152 -133 152 -114 q 146 -183 152 -161 q 140 -227 140 -204 q 160 -250 140 -250 q 203 -223 184 -250 q 240 -142 221 -197 l 286 -14 l 265 -14 l 84 475 q 52 534 69 515 q 5 555 35 554 l 5 576 q 65 574 40 574 q 126 574 91 574 q 207 574 176 574 q 268 576 237 574 l 268 555 q 192 536 208 556 q 198 456 177 515 l 324 98 l 438 425 q 462 495 453 467 q 453 538 471 523 q 368 555 435 553 l 368 576 q 421 574 402 574 q 473 574 440 574 q 523 574 495 574 q 568 576 551 574 l 568 555 q 495 491 522 542 q 433 345 467 441 l 310 -3 l 258 -161 q 212 -246 239 -217 q 144 -275 185 -275 z "},"ý":{"ha":581,"x_min":5,"x_max":568,"o":"m 144 -275 q 76 -247 101 -275 q 50 -171 50 -218 q 67 -111 50 -134 q 111 -89 83 -89 q 141 -101 130 -89 q 152 -133 152 -114 q 146 -183 152 -161 q 140 -227 140 -204 q 160 -250 140 -250 q 203 -223 184 -250 q 240 -142 221 -197 l 286 -14 l 265 -14 l 84 475 q 52 534 69 515 q 5 555 35 554 l 5 576 q 65 574 40 574 q 126 574 91 574 q 207 574 176 574 q 268 576 237 574 l 268 555 q 192 536 208 556 q 198 456 177 515 l 324 98 l 438 425 q 462 495 453 467 q 453 538 471 523 q 368 555 435 553 l 368 576 q 421 574 402 574 q 473 574 440 574 q 523 574 495 574 q 568 576 551 574 l 568 555 q 495 491 522 542 q 433 345 467 441 l 310 -3 l 258 -161 q 212 -246 239 -217 q 144 -275 185 -275 m 256 681 l 245 694 q 287 755 275 723 q 303 818 299 787 q 309 871 307 848 q 322 907 311 895 q 359 922 338 924 q 397 903 380 920 q 418 864 413 886 q 405 823 422 842 q 373 784 389 810 q 330 730 357 758 q 256 681 303 702 z "},"ÿ":{"ha":581,"x_min":5,"x_max":568,"o":"m 144 -275 q 76 -247 101 -275 q 50 -171 50 -218 q 67 -111 50 -134 q 111 -89 83 -89 q 141 -101 130 -89 q 152 -133 152 -114 q 146 -183 152 -161 q 140 -227 140 -204 q 160 -250 140 -250 q 203 -223 184 -250 q 240 -142 221 -197 l 286 -14 l 265 -14 l 84 475 q 52 534 69 515 q 5 555 35 554 l 5 576 q 65 574 40 574 q 126 574 91 574 q 207 574 176 574 q 268 576 237 574 l 268 555 q 192 536 208 556 q 198 456 177 515 l 324 98 l 438 425 q 462 495 453 467 q 453 538 471 523 q 368 555 435 553 l 368 576 q 421 574 402 574 q 473 574 440 574 q 523 574 495 574 q 568 576 551 574 l 568 555 q 495 491 522 542 q 433 345 467 441 l 310 -3 l 258 -161 q 212 -246 239 -217 q 144 -275 185 -275 m 401 721 q 354 740 373 721 q 336 785 336 758 q 354 831 336 812 q 401 850 373 850 q 447 831 428 850 q 465 785 465 812 q 447 740 465 758 q 401 721 428 721 m 197 721 q 151 740 170 721 q 132 785 132 758 q 151 831 132 812 q 197 850 170 850 q 242 831 223 850 q 261 785 261 812 q 242 740 261 758 q 197 721 223 721 z "},"z":{"ha":557,"x_min":36,"x_max":506,"o":"m 36 0 l 36 20 l 383 552 l 273 552 q 133 511 172 552 q 85 376 94 470 l 64 376 q 63 488 64 435 q 60 576 62 541 q 165 573 111 574 q 275 571 220 571 q 392 573 333 571 q 506 576 452 574 l 506 555 l 159 24 l 287 24 q 421 61 378 24 q 473 205 465 99 l 494 205 q 495 90 494 143 q 499 0 496 37 q 393 3 448 1 q 284 5 338 5 q 159 3 223 5 q 36 0 94 1 z "},"":{"ha":728,"x_min":29,"x_max":703,"o":"m 34 0 l 34 21 q 116 41 94 22 q 138 110 138 60 l 138 555 l 29 555 l 29 576 l 138 576 q 170 754 138 688 q 261 848 201 819 q 405 876 321 876 q 546 844 492 876 q 601 754 601 811 q 581 697 601 722 q 528 672 560 672 q 486 688 503 672 q 470 726 470 704 q 480 767 470 748 q 502 800 491 785 q 513 823 513 814 q 485 848 513 841 q 411 856 457 856 q 239 605 239 856 l 239 576 l 410 576 q 530 577 488 576 q 599 589 572 579 l 599 102 q 621 38 599 53 q 703 21 644 22 l 703 0 q 636 3 681 1 q 548 5 592 5 q 464 3 507 5 q 401 0 422 1 l 401 21 q 477 38 456 22 q 498 102 498 53 l 498 455 q 478 529 498 503 q 411 555 458 555 l 239 555 l 239 110 q 263 42 239 62 q 347 21 288 22 l 347 0 q 279 3 323 1 q 193 5 235 5 q 99 3 142 5 q 34 0 56 1 z "},"":{"ha":728,"x_min":28,"x_max":704,"o":"m 33 0 l 33 21 q 110 41 89 22 q 132 110 132 60 l 132 555 l 28 555 l 28 576 l 132 576 q 140 734 132 674 q 172 824 149 793 q 235 866 195 855 q 339 876 276 876 q 420 869 382 876 q 503 863 457 863 q 604 878 559 863 l 604 102 q 626 40 604 58 q 704 21 647 22 l 704 0 q 640 3 682 1 q 555 5 597 5 q 473 3 514 5 q 413 0 433 1 l 413 21 q 484 40 465 22 q 503 102 503 57 l 503 697 q 470 818 503 778 q 363 858 437 858 q 259 822 286 858 q 233 719 233 785 l 233 576 l 366 576 l 366 555 l 233 555 l 233 110 q 262 43 233 64 q 361 21 292 22 l 361 0 q 284 3 334 1 q 184 5 234 5 q 96 3 138 5 q 33 0 54 1 z "},"ª":{"ha":510,"x_min":77,"x_max":433,"o":"m 184 404 q 107 430 137 404 q 77 500 77 456 q 98 561 77 538 q 149 597 119 583 q 210 621 180 611 q 261 642 241 631 q 282 671 282 652 l 282 729 q 236 789 282 789 q 183 779 207 789 q 159 755 159 768 q 165 734 159 747 q 172 707 172 722 q 161 681 172 691 q 136 670 151 670 q 106 682 119 670 q 93 715 93 694 q 136 781 93 753 q 243 808 179 808 q 340 780 308 808 q 365 743 359 765 q 372 677 372 721 l 372 467 q 392 434 372 434 q 412 440 403 434 q 425 450 420 447 l 433 431 q 398 410 412 417 q 363 404 385 404 q 284 468 288 404 q 184 404 257 404 m 218 441 q 251 453 233 441 q 282 488 269 465 l 282 649 q 262 620 279 632 q 222 593 244 607 q 184 558 200 579 q 168 505 168 538 q 218 441 168 441 z "},"º":{"ha":510,"x_min":84,"x_max":426,"o":"m 256 404 q 175 426 214 404 q 110 493 136 448 q 84 606 84 538 q 110 719 84 674 q 175 786 136 764 q 256 808 214 808 q 336 786 297 808 q 400 719 375 764 q 426 606 426 674 q 400 493 426 538 q 336 426 375 448 q 256 404 297 404 m 256 423 q 309 466 286 423 q 333 606 333 508 q 309 747 333 705 q 256 789 286 789 q 201 747 225 789 q 177 606 177 705 q 201 466 177 508 q 256 423 225 423 z "},"∆":{"ha":926,"x_min":256,"x_max":671,"o":"m 256 0 l 481 823 l 500 823 l 671 0 q 568 2 619 1 q 465 3 516 3 q 360 2 412 3 q 256 0 308 1 m 439 602 l 290 48 l 551 48 l 439 602 z "},"Ω":{"ha":926,"x_min":161,"x_max":764,"o":"m 181 0 q 174 127 178 65 q 161 239 169 190 l 182 239 q 204 118 193 161 q 230 55 215 75 q 267 30 245 35 q 320 24 288 24 l 402 22 q 325 154 363 94 q 254 272 286 214 q 202 391 222 330 q 182 526 182 452 q 255 733 182 658 q 463 808 327 808 q 671 733 599 808 q 743 526 743 658 q 724 391 743 452 q 673 272 705 330 q 602 154 641 214 q 524 22 563 94 l 605 22 q 684 40 657 22 q 722 105 710 58 q 743 239 734 153 l 764 239 q 753 128 758 190 q 745 0 748 66 q 722 2 734 1 q 699 2 710 2 q 647 1 688 2 q 500 0 606 1 l 500 20 q 555 134 524 60 q 608 302 585 207 q 631 505 631 398 q 593 713 631 637 q 463 789 556 789 q 332 713 370 789 q 294 505 294 637 q 317 302 294 397 q 371 134 340 207 q 425 20 401 60 l 425 0 q 317 1 364 1 q 227 2 271 2 q 204 2 217 2 q 181 0 191 1 z "},"µ":{"ha":619,"x_min":19,"x_max":601,"o":"m 19 -168 q 38 -117 19 -141 q 81 -54 58 -93 q 130 61 104 -16 q 167 269 155 138 l 166 271 q 169 409 168 357 q 171 490 170 461 q 174 534 172 519 q 197 579 179 566 q 236 593 215 593 q 267 582 254 593 q 279 541 281 572 q 269 500 279 520 q 244 450 259 479 q 214 372 229 420 q 186 247 198 323 l 185 231 q 195 154 182 181 q 229 117 208 127 q 264 107 249 107 q 353 140 315 107 q 414 246 391 172 l 416 260 q 412 464 412 405 q 414 534 413 523 q 437 580 418 568 q 475 593 457 593 q 506 582 493 593 q 517 545 519 572 q 503 488 517 516 q 470 411 488 459 q 438 276 451 363 q 435 243 436 258 l 436 243 q 435 236 435 239 q 438 134 429 160 q 477 107 448 107 q 535 139 504 107 q 579 250 566 171 l 601 248 q 585 166 596 211 q 557 79 574 121 q 516 11 541 38 q 458 -16 491 -16 q 400 22 412 -16 q 393 109 389 60 q 335 22 371 60 q 250 -16 300 -16 q 190 21 205 -16 q 172 102 174 57 q 146 -83 161 -13 q 125 -172 131 -153 q 103 -199 120 -188 q 64 -211 85 -211 q 31 -199 42 -211 q 19 -168 19 -186 z "},"π":{"ha":694,"x_min":92,"x_max":602,"o":"m 188 -16 q 134 33 134 -16 q 149 76 134 54 q 194 132 163 98 q 248 205 224 166 q 288 309 272 245 q 309 481 303 374 l 254 481 q 171 451 205 481 q 113 330 138 420 l 92 334 q 132 460 106 406 q 206 545 158 515 q 336 576 254 576 l 602 576 l 602 481 l 434 481 l 408 228 q 410 151 402 176 q 434 116 418 125 q 463 107 449 107 q 518 139 493 107 q 560 249 543 171 l 580 248 q 566 162 576 208 q 541 76 557 116 q 500 10 524 35 q 443 -16 477 -16 q 386 24 404 -16 q 375 131 368 64 l 414 481 l 330 481 q 320 360 327 425 q 302 233 313 296 q 278 118 291 170 q 253 35 266 66 q 188 -16 232 -16 z "},"∕":{"ha":93,"x_min":-199,"x_max":302,"o":"m 302 973 l -184 -104 l -199 -92 l 287 987 l 302 973 z "},"½":{"ha":979,"x_min":204,"x_max":774,"o":"m 663 945 l 254 -100 l 238 -93 l 648 951 l 663 945 m 206 522 l 206 535 q 253 547 240 536 q 266 587 266 559 l 266 764 q 254 823 266 810 q 204 836 242 836 l 204 849 q 294 858 260 850 q 355 884 328 865 l 355 585 q 366 547 355 557 q 406 535 377 536 l 406 522 q 353 524 375 523 q 313 524 331 524 q 266 524 292 524 q 206 522 240 523 m 774 29 q 746 33 764 33 l 496 33 l 496 45 q 651 291 651 183 q 637 350 651 329 q 597 372 623 372 q 567 363 581 372 q 553 342 553 354 q 569 314 553 328 q 585 279 585 300 q 573 257 585 266 q 544 248 562 248 q 498 294 498 248 q 537 363 498 336 q 635 390 576 390 q 717 367 688 390 q 746 304 746 345 q 736 261 746 286 q 690 200 726 236 q 575 110 654 163 l 575 106 l 707 106 q 744 114 732 106 q 758 142 755 121 l 770 142 q 771 73 770 102 q 774 29 771 43 z "},"¼":{"ha":979,"x_min":195,"x_max":783,"o":"m 654 945 l 245 -100 l 229 -93 l 639 951 l 654 945 m 197 522 l 197 535 q 244 547 231 536 q 257 587 257 559 l 257 764 q 245 823 257 810 q 195 836 233 836 l 195 849 q 286 858 252 850 q 347 884 319 865 l 347 585 q 357 547 347 557 q 397 535 368 536 l 397 522 q 344 524 366 523 q 304 524 322 524 q 257 524 283 524 q 197 522 231 523 m 713 -63 l 640 -63 l 640 52 l 473 52 l 473 69 l 693 382 l 697 389 l 713 389 l 713 115 l 783 115 l 783 52 l 713 52 l 713 -63 m 522 115 l 640 115 l 640 283 l 522 115 z "},"¾":{"ha":979,"x_min":146,"x_max":831,"o":"m 703 945 l 294 -100 l 278 -93 l 688 951 l 703 945 m 279 421 q 184 445 222 421 q 146 507 146 469 q 160 545 146 530 q 195 559 174 559 q 225 549 215 559 q 236 524 236 538 q 224 489 236 503 q 212 459 212 475 q 248 437 212 437 q 316 465 293 437 q 340 540 340 492 q 328 599 340 572 q 286 647 315 626 q 250 640 265 640 q 233 651 233 640 q 255 663 233 663 q 286 659 273 663 q 337 761 337 694 q 316 832 337 805 q 260 860 296 860 q 226 852 241 860 q 212 833 212 844 q 227 804 212 817 q 241 772 241 791 q 231 748 241 758 q 201 739 220 739 q 156 785 156 739 q 198 852 156 825 q 300 880 239 880 q 392 851 357 880 q 428 777 428 823 q 394 706 428 738 q 292 656 361 674 l 292 652 q 397 615 359 644 q 435 543 435 587 q 392 455 435 489 q 279 421 348 421 m 762 -63 l 688 -63 l 688 52 l 521 52 l 521 69 l 741 382 l 745 389 l 762 389 l 762 115 l 831 115 l 831 52 l 762 52 l 762 -63 m 570 115 l 688 115 l 688 283 l 570 115 z "},"₁":{"ha":303,"x_min":24,"x_max":279,"o":"m 30 -146 l 30 -127 q 93 -113 72 -126 q 114 -58 114 -100 l 114 174 q 105 239 114 219 q 76 265 96 260 q 24 271 56 271 l 24 289 q 129 301 89 290 q 203 335 170 311 l 203 -58 q 223 -115 203 -103 q 279 -127 243 -126 l 279 -146 q 225 -143 262 -144 q 160 -142 188 -142 q 109 -143 136 -142 q 30 -146 82 -143 z "},"₂":{"ha":391,"x_min":31,"x_max":360,"o":"m 360 -150 q 351 -146 357 -147 q 319 -146 345 -146 l 31 -146 l 31 -128 q 175 42 123 -45 q 227 207 227 128 q 159 303 227 303 q 114 291 134 303 q 94 263 94 278 q 111 230 94 246 q 129 190 129 214 q 116 161 129 172 q 81 150 102 150 q 31 205 31 150 q 80 293 31 257 q 196 330 128 330 q 289 300 254 330 q 324 222 324 271 q 270 91 324 165 q 113 -66 215 16 l 113 -71 l 275 -71 q 320 -58 305 -71 q 338 -16 335 -46 l 356 -16 q 357 -87 356 -56 q 360 -150 358 -118 z "},"₃":{"ha":375,"x_min":16,"x_max":358,"o":"m 170 -280 q 60 -253 104 -280 q 16 -184 16 -226 q 30 -146 16 -161 q 66 -132 44 -132 q 111 -170 111 -132 q 101 -205 111 -191 q 92 -233 92 -220 q 141 -257 92 -257 q 232 -221 200 -257 q 264 -121 264 -186 q 249 -42 264 -78 q 193 20 233 -5 q 164 13 174 15 q 149 11 155 11 q 129 25 129 11 q 136 37 129 33 q 154 41 144 41 q 168 40 159 41 q 193 36 177 39 q 256 173 256 86 q 229 267 256 233 q 159 302 203 302 q 111 291 132 302 q 91 264 91 280 q 109 233 91 248 q 127 194 127 217 q 113 163 127 175 q 79 152 99 152 q 27 204 27 152 q 51 267 27 238 q 114 312 75 295 q 200 330 153 330 q 309 292 269 330 q 349 195 349 254 q 314 99 349 143 q 213 26 278 56 q 319 -26 281 17 q 358 -123 358 -68 q 306 -236 358 -191 q 170 -280 254 -280 z "},"¹":{"ha":441,"x_min":92,"x_max":348,"o":"m 98 488 l 98 507 q 161 521 140 508 q 182 576 182 534 l 182 808 q 173 873 182 853 q 144 899 164 894 q 92 905 125 905 l 92 923 q 198 935 157 924 q 272 969 238 945 l 272 576 q 292 519 272 531 q 348 507 312 508 l 348 488 q 294 491 331 490 q 229 492 256 492 q 178 491 205 492 q 98 488 151 491 z "},"²":{"ha":443,"x_min":56,"x_max":386,"o":"m 386 484 q 377 488 383 487 q 345 488 370 488 l 56 488 l 56 506 q 201 676 149 589 q 253 841 253 762 q 185 937 253 937 q 140 925 160 937 q 119 897 119 912 q 137 864 119 880 q 155 824 155 848 q 141 795 155 806 q 106 784 128 784 q 57 839 57 784 q 105 927 57 891 q 222 964 154 964 q 315 934 279 964 q 350 857 350 905 q 295 725 350 799 q 138 568 241 650 l 138 564 l 300 564 q 346 576 331 564 q 363 618 361 588 l 382 618 q 383 547 382 578 q 386 484 384 516 z "},"³":{"ha":443,"x_min":50,"x_max":392,"o":"m 204 354 q 94 381 138 354 q 50 450 50 408 q 64 488 50 473 q 100 503 78 503 q 145 464 145 503 q 135 429 145 444 q 125 401 125 414 q 175 377 125 377 q 266 413 234 377 q 298 513 298 448 q 283 592 298 556 q 227 654 267 629 q 198 647 208 649 q 182 645 189 645 q 163 659 163 645 q 170 671 163 667 q 188 675 178 675 q 202 674 193 675 q 227 670 211 673 q 290 807 290 720 q 263 901 290 867 q 193 936 237 936 q 145 925 165 936 q 125 899 125 914 q 143 867 125 882 q 161 828 161 851 q 147 798 161 809 q 113 786 133 786 q 61 838 61 786 q 85 901 61 872 q 148 946 109 929 q 234 964 187 964 q 343 926 302 964 q 383 829 383 888 q 348 733 383 777 q 247 661 312 690 q 353 608 315 651 q 392 511 392 566 q 340 398 392 443 q 204 354 288 354 z "}," ":{"ha":347,"x_min":0,"x_max":0,"o":""}," ":{"ha":347,"x_min":0,"x_max":0,"o":""},".":{"ha":339,"x_min":101,"x_max":238,"o":"m 170 -16 q 122 7 142 -16 q 101 58 101 29 q 122 111 101 88 q 170 133 142 133 q 217 111 197 133 q 238 58 238 88 q 217 7 238 29 q 170 -16 197 -16 z "},",":{"ha":331,"x_min":92,"x_max":239,"o":"m 125 -157 l 118 -141 q 186 -94 159 -129 q 214 -24 214 -59 q 193 7 214 7 q 174 2 185 7 q 149 -3 163 -3 q 110 16 127 -3 q 92 63 92 34 q 112 113 92 94 q 161 133 132 133 q 218 102 197 133 q 239 18 239 72 q 205 -98 239 -54 q 125 -157 172 -142 z "},":":{"ha":339,"x_min":101,"x_max":238,"o":"m 170 444 q 122 467 142 444 q 101 518 101 489 q 122 570 101 548 q 170 593 142 593 q 217 570 197 593 q 238 518 238 548 q 217 467 238 489 q 170 444 197 444 m 170 -16 q 122 7 142 -16 q 101 58 101 29 q 122 111 101 88 q 170 133 142 133 q 217 111 197 133 q 238 58 238 88 q 217 7 238 29 q 170 -16 197 -16 z "},";":{"ha":331,"x_min":92,"x_max":239,"o":"m 168 444 q 120 467 140 444 q 99 518 99 489 q 120 570 99 548 q 168 593 140 593 q 215 570 195 593 q 236 518 236 548 q 215 467 236 489 q 168 444 195 444 m 125 -157 l 118 -141 q 186 -94 159 -129 q 214 -24 214 -59 q 193 7 214 7 q 174 2 185 7 q 149 -3 163 -3 q 110 16 127 -3 q 92 63 92 34 q 112 113 92 94 q 161 133 132 133 q 218 102 197 133 q 239 18 239 72 q 205 -98 239 -54 q 125 -157 172 -142 z "},"…":{"ha":1018,"x_min":85,"x_max":933,"o":"m 152 -15 q 106 6 126 -15 q 85 56 85 28 q 106 107 85 85 q 152 129 126 129 q 198 107 178 129 q 218 56 218 85 q 198 6 218 28 q 152 -15 178 -15 m 509 -15 q 463 6 483 -15 q 442 56 442 28 q 463 107 442 85 q 509 129 483 129 q 555 107 535 129 q 575 56 575 85 q 555 6 575 28 q 509 -15 535 -15 m 867 -15 q 821 6 841 -15 q 800 56 800 28 q 821 107 800 85 q 867 129 841 129 q 913 107 893 129 q 933 56 933 85 q 913 6 933 28 q 867 -15 893 -15 z "},"!":{"ha":356,"x_min":110,"x_max":247,"o":"m 188 262 l 168 262 q 160 429 168 345 q 141 586 152 513 q 122 715 130 660 q 113 795 113 770 q 178 876 113 876 q 244 795 244 876 q 235 715 244 770 q 215 587 227 661 q 196 429 204 513 q 188 262 187 345 m 178 -16 q 131 7 151 -16 q 110 58 110 29 q 131 111 110 88 q 178 133 151 133 q 226 111 205 133 q 247 58 247 88 q 226 7 247 29 q 178 -16 205 -16 z "},"¡":{"ha":356,"x_min":110,"x_max":247,"o":"m 178 444 q 131 467 151 444 q 110 518 110 489 q 131 570 110 548 q 178 593 151 593 q 226 570 205 593 q 247 518 247 548 q 226 467 247 489 q 178 444 205 444 m 176 -268 q 140 -252 153 -268 q 126 -208 126 -236 q 137 -118 126 -186 q 157 60 147 -50 q 167 315 168 169 l 187 315 q 197 60 186 169 q 219 -117 208 -50 q 230 -208 230 -185 q 215 -252 230 -235 q 176 -268 201 -268 z "},"?":{"ha":641,"x_min":129,"x_max":513,"o":"m 292 262 l 271 262 l 271 441 q 381 538 350 476 q 413 672 413 600 q 401 759 413 717 q 362 827 389 800 q 290 854 335 854 q 237 841 264 854 q 210 805 210 827 q 219 773 210 791 q 227 732 227 755 q 180 686 227 686 q 142 702 156 686 q 129 745 129 718 q 179 838 129 800 q 300 876 230 876 q 456 821 399 876 q 513 678 513 766 q 454 526 513 588 q 292 431 395 465 l 292 262 m 281 -16 q 234 7 254 -16 q 213 58 213 29 q 234 111 213 88 q 281 133 254 133 q 329 111 309 133 q 350 58 350 88 q 329 7 350 29 q 281 -16 309 -16 z "},"¿":{"ha":641,"x_min":129,"x_max":512,"o":"m 359 444 q 311 467 332 444 q 290 518 290 489 q 311 570 290 548 q 359 593 332 593 q 407 570 386 593 q 427 518 427 548 q 407 467 427 489 q 359 444 386 444 m 340 -268 q 185 -213 242 -268 q 129 -70 129 -157 q 187 82 129 20 q 349 178 245 144 l 349 315 l 368 315 l 368 167 q 260 70 292 132 q 229 -64 229 8 q 240 -150 229 -109 q 279 -219 252 -192 q 350 -245 305 -245 q 404 -232 378 -245 q 431 -197 431 -219 q 422 -165 431 -183 q 414 -124 414 -147 q 460 -77 414 -77 q 498 -93 484 -77 q 512 -136 512 -109 q 461 -230 512 -192 q 340 -268 411 -268 z "},"∙":{"ha":230,"x_min":47,"x_max":184,"o":"m 115 229 q 67 251 88 229 q 47 302 47 273 q 67 355 47 332 q 115 377 88 377 q 163 355 142 377 q 184 302 184 332 q 163 251 184 273 q 115 229 142 229 z "},"•":{"ha":926,"x_min":303,"x_max":623,"o":"m 462 142 q 350 189 396 142 q 303 301 303 235 q 325 382 303 346 q 382 440 346 418 q 462 461 418 461 q 543 440 507 461 q 602 382 580 418 q 623 301 623 346 q 602 221 623 257 q 543 164 580 185 q 462 142 507 142 z "},"*":{"ha":683,"x_min":126,"x_max":558,"o":"m 136 460 q 129 494 126 478 q 149 519 132 510 q 222 543 176 535 q 332 581 269 551 q 227 616 273 610 q 154 637 180 623 q 132 664 135 648 q 137 697 128 680 q 195 716 158 738 q 251 665 221 701 q 338 589 281 629 q 315 700 332 654 q 298 774 298 745 q 342 817 298 817 q 386 774 386 817 q 370 701 386 745 q 347 588 353 656 q 431 662 401 626 q 488 714 460 697 q 546 698 524 735 q 553 665 556 681 q 533 639 550 648 q 460 615 506 623 q 353 579 414 608 q 458 543 412 551 q 532 521 505 536 q 554 495 550 512 q 549 461 558 477 q 489 444 523 425 q 433 496 463 460 q 347 572 403 532 q 368 462 351 506 q 385 387 385 418 q 374 355 387 366 q 342 344 361 344 q 298 386 298 345 q 314 460 298 417 q 337 572 330 503 q 252 498 281 534 q 195 445 222 462 q 136 460 160 422 z "},"#":{"ha":683,"x_min":49,"x_max":634,"o":"m 240 -28 l 142 -55 l 172 98 l 49 64 l 53 85 l 176 119 l 243 467 l 121 433 l 125 454 l 248 489 l 281 664 l 378 690 l 345 516 l 416 536 l 450 710 l 547 736 l 513 563 l 634 597 l 631 575 l 509 541 l 441 193 l 564 227 l 560 206 l 437 172 l 408 20 l 311 -9 l 340 145 l 269 125 l 240 -28 m 340 494 l 273 146 l 345 166 l 412 514 l 340 494 z "},"/":{"ha":408,"x_min":35,"x_max":373,"o":"m 60 -16 l 35 -16 l 348 808 l 373 808 l 60 -16 z "},"\\":{"ha":408,"x_min":35,"x_max":373,"o":"m 373 -16 l 348 -16 l 35 808 l 60 808 l 373 -16 z "},"-":{"ha":349,"x_min":63,"x_max":401,"o":"m 401 294 l 63 294 l 63 331 l 401 331 l 401 294 z "},"­":{"ha":349,"x_min":63,"x_max":401,"o":"m 401 294 l 63 294 l 63 331 l 401 331 l 401 294 z "},"–":{"ha":683,"x_min":65,"x_max":618,"o":"m 618 301 l 65 301 l 65 326 l 618 326 l 618 301 z "},"—":{"ha":883,"x_min":57,"x_max":827,"o":"m 827 301 l 57 301 l 57 326 l 827 326 l 827 301 z "},"_":{"ha":694,"x_min":75,"x_max":621,"o":"m 621 -152 l 75 -152 l 75 -126 l 621 -126 l 621 -152 z "},"(":{"ha":408,"x_min":117,"x_max":404,"o":"m 404 -201 l 394 -214 q 117 338 117 -11 q 188 649 117 513 q 394 877 259 785 l 404 865 q 262 623 317 748 q 208 340 208 498 q 262 47 208 175 q 404 -201 316 -81 z "},")":{"ha":408,"x_min":15,"x_max":302,"o":"m 25 -214 l 15 -201 q 157 47 103 -81 q 212 340 212 175 q 157 623 212 498 q 15 865 102 748 l 25 877 q 231 649 160 785 q 302 338 302 513 q 25 -214 302 -11 z "},"{":{"ha":408,"x_min":35,"x_max":374,"o":"m 374 -194 l 374 -214 q 270 -205 311 -214 q 206 -170 229 -197 q 171 -90 182 -143 q 154 53 159 -37 q 141 215 147 159 q 124 294 134 271 q 94 320 113 317 q 43 324 75 324 l 35 324 l 35 344 l 43 344 q 85 341 68 344 q 113 345 102 338 q 130 377 123 351 q 142 460 136 404 q 154 617 147 517 q 180 780 161 724 q 243 856 198 836 q 374 876 288 876 l 374 856 q 303 844 327 853 q 272 811 280 836 q 261 741 263 787 q 254 616 259 694 q 242 494 250 541 q 219 419 235 448 q 176 372 203 391 q 102 334 148 353 q 193 273 161 308 q 237 185 224 237 q 254 53 250 132 q 262 -86 258 -37 q 277 -159 267 -136 q 310 -187 288 -181 q 374 -194 333 -193 z "},"}":{"ha":408,"x_min":34,"x_max":373,"o":"m 34 -214 l 34 -194 q 98 -187 75 -193 q 131 -159 121 -181 q 146 -86 142 -136 q 154 53 150 -37 q 171 185 158 132 q 216 273 184 237 q 307 334 248 308 q 233 372 261 353 q 189 419 205 391 q 166 494 174 448 q 154 616 159 541 q 147 741 149 694 q 137 811 145 787 q 105 844 128 836 q 34 856 82 853 l 34 876 q 165 856 120 876 q 229 780 210 836 q 254 617 248 724 q 267 460 261 517 q 278 377 272 404 q 295 345 285 351 q 323 341 306 338 q 366 344 340 344 l 373 344 l 373 324 l 366 324 q 314 320 333 324 q 284 294 295 317 q 268 215 274 271 q 254 53 262 159 q 237 -90 249 -37 q 202 -170 226 -143 q 139 -205 179 -197 q 34 -214 98 -214 z "},"[":{"ha":408,"x_min":122,"x_max":367,"o":"m 367 -203 l 122 -203 l 122 865 l 367 865 l 367 844 l 221 844 l 221 -182 l 367 -182 l 367 -203 z "},"]":{"ha":408,"x_min":41,"x_max":286,"o":"m 286 -203 l 41 -203 l 41 -182 l 186 -182 l 186 844 l 41 844 l 41 865 l 286 865 l 286 -203 z "},"‚":{"ha":331,"x_min":92,"x_max":239,"o":"m 125 -157 l 118 -141 q 186 -94 159 -129 q 214 -24 214 -59 q 193 7 214 7 q 174 2 185 7 q 149 -3 163 -3 q 110 16 127 -3 q 92 63 92 34 q 112 113 92 94 q 161 133 132 133 q 218 102 197 133 q 239 18 239 72 q 205 -98 239 -54 q 125 -157 172 -142 z "},"„":{"ha":562,"x_min":110,"x_max":453,"o":"m 143 -157 l 136 -141 q 204 -94 176 -129 q 232 -24 232 -59 q 211 7 232 7 q 192 2 203 7 q 167 -3 181 -3 q 127 16 144 -3 q 110 63 110 34 q 130 113 110 94 q 179 133 149 133 q 235 102 214 133 q 256 18 256 72 q 223 -98 256 -54 q 143 -157 189 -142 m 340 -157 l 332 -141 q 401 -94 373 -129 q 429 -24 429 -59 q 408 7 429 7 q 389 2 399 7 q 363 -3 378 -3 q 324 16 341 -3 q 307 63 307 34 q 326 113 307 94 q 376 133 346 133 q 432 102 411 133 q 453 18 453 72 q 419 -98 453 -54 q 340 -157 386 -142 z "},"“":{"ha":562,"x_min":110,"x_max":453,"o":"m 420 808 l 427 792 q 359 745 387 780 q 331 675 331 711 q 352 644 331 644 q 371 649 360 644 q 396 654 382 654 q 436 635 418 654 q 453 588 453 617 q 433 538 453 557 q 384 518 414 518 q 328 549 349 518 q 307 633 307 579 q 340 749 307 705 q 420 808 374 793 m 223 808 l 231 792 q 162 745 190 780 q 134 675 134 711 q 155 644 134 644 q 174 649 163 644 q 199 654 185 654 q 239 635 222 654 q 256 588 256 617 q 237 538 256 557 q 187 518 217 518 q 131 549 152 518 q 110 633 110 579 q 144 749 110 705 q 223 808 178 793 z "},"”":{"ha":562,"x_min":110,"x_max":453,"o":"m 143 524 l 136 540 q 204 587 176 552 q 232 657 232 622 q 211 688 232 688 q 192 683 203 688 q 167 678 181 678 q 127 696 144 678 q 110 744 110 715 q 130 794 110 774 q 179 814 149 814 q 235 783 214 814 q 256 699 256 753 q 223 583 256 627 q 143 524 189 538 m 340 524 l 332 540 q 401 587 373 552 q 429 657 429 622 q 408 688 429 688 q 389 683 399 688 q 363 678 378 678 q 324 696 341 678 q 307 744 307 715 q 326 794 307 774 q 376 814 346 814 q 432 783 411 814 q 453 699 453 753 q 419 583 453 627 q 340 524 386 538 z "},"‘":{"ha":331,"x_min":92,"x_max":239,"o":"m 205 816 l 213 800 q 144 753 172 788 q 117 683 117 719 q 138 652 117 652 q 157 657 146 652 q 182 662 168 662 q 221 644 204 662 q 239 596 239 625 q 219 546 239 566 q 170 526 199 526 q 113 557 134 526 q 92 642 92 587 q 126 757 92 713 q 205 816 160 802 z "},"’":{"ha":331,"x_min":92,"x_max":239,"o":"m 125 524 l 118 540 q 186 587 159 552 q 214 657 214 622 q 193 688 214 688 q 174 683 185 688 q 149 678 163 678 q 110 696 127 678 q 92 744 92 715 q 112 794 92 774 q 161 814 132 814 q 218 783 197 814 q 239 699 239 753 q 205 583 239 627 q 125 524 172 538 z "},"«":{"ha":551,"x_min":11,"x_max":541,"o":"m 262 296 l 526 593 l 541 581 l 366 302 l 541 -5 l 524 -16 l 262 281 l 262 296 m 11 296 l 275 593 l 290 581 l 115 302 l 290 -5 l 273 -16 l 11 281 l 11 296 z "},"»":{"ha":551,"x_min":11,"x_max":541,"o":"m 290 281 l 26 -16 l 11 -4 l 186 275 l 11 583 l 27 593 l 290 296 l 290 281 m 541 281 l 277 -16 l 262 -4 l 437 275 l 262 583 l 278 593 l 541 296 l 541 281 z "},"‹":{"ha":329,"x_min":25,"x_max":304,"o":"m 25 296 l 289 592 l 304 581 l 129 301 l 304 -6 l 288 -16 l 25 281 l 25 296 z "},"›":{"ha":329,"x_min":25,"x_max":304,"o":"m 304 281 l 40 -16 l 25 -4 l 200 275 l 25 583 l 41 593 l 304 296 l 304 281 z "},"\"":{"ha":338,"x_min":24,"x_max":315,"o":"m 90 484 l 75 484 q 53 610 64 565 q 32 686 41 656 q 24 747 24 715 q 40 805 24 785 q 83 826 56 826 q 126 806 111 826 q 142 750 142 786 q 134 687 142 717 q 113 611 125 656 q 90 484 101 565 m 263 484 l 248 484 q 225 610 237 565 q 205 686 214 656 q 197 747 197 715 q 213 805 197 785 q 256 826 229 826 q 299 806 283 826 q 315 750 315 786 q 307 687 315 717 q 286 611 298 656 q 263 484 274 565 z "},"'":{"ha":193,"x_min":37,"x_max":156,"o":"m 104 484 l 88 484 q 66 610 78 565 q 46 686 54 656 q 37 747 37 715 q 53 805 37 785 q 96 826 69 826 q 140 806 124 826 q 156 750 156 786 q 147 687 156 717 q 126 611 138 656 q 104 484 115 565 z "},"ƒ":{"ha":683,"x_min":-39,"x_max":654,"o":"m 138 -268 q 10 -236 59 -268 q -39 -155 -39 -205 q -15 -91 -39 -118 q 46 -63 10 -63 q 90 -77 73 -63 q 107 -114 107 -90 q 93 -156 107 -138 q 65 -189 79 -174 q 52 -218 52 -203 q 71 -240 52 -232 q 123 -248 90 -248 q 196 -245 167 -248 q 241 -224 226 -242 q 257 -161 257 -207 l 257 555 l 88 555 l 88 576 l 257 576 l 257 614 q 478 876 257 876 q 606 845 557 876 q 654 764 654 814 q 629 699 654 726 q 568 671 604 671 q 525 685 542 671 q 507 722 507 699 q 522 764 507 745 q 550 797 536 782 q 564 826 564 812 q 544 848 564 840 q 492 856 524 856 q 419 853 449 856 q 374 833 389 851 q 358 770 358 816 l 358 576 l 595 576 l 595 555 l 358 555 l 358 -13 q 138 -268 358 -268 z "},"@":{"ha":1036,"x_min":114,"x_max":922,"o":"m 412 29 q 323 72 354 29 q 295 192 292 114 q 319 315 297 254 q 378 426 342 376 q 456 505 414 475 q 541 535 499 535 q 650 469 603 535 q 743 540 704 496 l 754 525 q 706 435 722 494 l 611 92 q 614 64 606 71 q 633 56 623 56 q 721 91 674 56 q 809 184 768 125 q 877 318 850 243 q 903 474 903 393 q 837 661 903 591 q 663 731 772 731 q 506 698 583 731 q 361 606 429 665 q 243 470 294 547 q 164 302 193 392 q 135 118 135 212 q 201 -91 135 -20 q 393 -163 267 -163 q 634 -87 532 -163 l 642 -101 q 395 -180 543 -180 q 185 -104 256 -180 q 114 118 114 -28 q 144 308 114 215 q 227 480 174 400 q 349 620 279 559 q 499 714 419 680 q 664 748 580 748 q 852 674 783 748 q 922 473 922 600 q 895 312 922 391 q 822 169 868 233 q 718 67 776 105 q 597 29 659 29 q 538 47 555 29 q 519 87 521 65 q 474 45 501 60 q 412 29 447 29 m 396 191 q 411 104 394 131 q 467 77 428 77 q 518 103 499 77 q 522 121 519 113 l 602 409 q 585 486 600 457 q 533 515 569 515 q 471 468 502 515 q 420 347 441 421 q 396 191 399 273 z "},"&":{"ha":935,"x_min":-18,"x_max":952,"o":"m 267 -16 q 117 20 181 -16 q 18 122 53 56 q -18 275 -18 187 q 15 433 -18 361 q 103 548 48 505 q 224 591 158 591 q 300 568 272 591 q 328 503 328 544 q 299 424 328 465 q 205 328 270 383 q 354 433 288 378 q 459 539 420 488 q 498 629 498 591 q 483 664 498 648 q 453 700 468 681 q 438 744 438 719 q 454 783 438 768 q 493 798 470 798 q 539 774 522 798 q 556 713 556 751 q 504 568 556 646 q 359 412 451 489 q 148 273 267 335 l 140 292 q 197 342 170 309 q 241 416 224 374 q 258 499 258 457 q 218 572 258 572 q 152 531 184 572 q 99 428 120 490 q 78 300 78 366 q 108 164 78 223 q 190 72 138 105 q 311 39 243 39 q 647 372 526 39 q 594 381 623 378 q 530 385 565 385 q 442 345 442 385 q 456 317 442 334 q 483 277 469 299 q 496 233 496 256 q 481 195 496 210 q 441 180 466 180 q 403 201 417 180 q 389 258 389 222 q 414 355 389 310 q 481 427 440 399 q 568 455 522 455 q 636 441 604 455 q 698 408 669 427 q 752 376 727 390 q 797 361 777 361 q 832 384 821 361 q 849 435 842 406 q 867 486 856 464 q 905 508 879 508 q 940 492 928 508 q 952 448 952 475 q 912 371 952 401 q 807 341 871 341 q 737 350 769 341 q 666 368 705 359 q 267 -16 547 -16 z "},"¶":{"ha":683,"x_min":52,"x_max":631,"o":"m 322 -259 l 322 -238 q 396 -227 372 -236 q 428 -195 420 -217 q 435 -134 435 -173 l 435 164 q 242 199 317 168 q 126 276 168 229 q 68 376 84 323 q 52 480 52 430 q 96 645 52 574 q 218 755 139 715 q 402 794 296 794 q 486 793 442 794 q 568 792 530 792 q 627 793 606 791 l 627 772 q 553 750 568 768 q 538 691 538 732 l 538 -142 q 545 -203 538 -183 q 572 -230 552 -223 q 631 -238 592 -236 l 631 -259 q 564 -256 604 -257 q 481 -256 525 -256 q 394 -256 437 -256 q 322 -259 350 -257 m 435 207 l 435 754 q 424 701 430 754 q 416 517 417 647 q 320 626 354 588 q 272 677 286 663 q 252 692 257 692 q 265 671 254 689 q 308 611 277 652 q 399 496 339 570 q 241 494 298 496 q 162 489 185 492 q 136 483 139 486 q 163 477 140 480 q 242 472 186 474 q 399 470 298 471 q 308 353 339 395 q 264 293 276 311 q 252 268 253 274 q 271 285 256 271 q 320 338 286 300 q 416 450 354 376 q 424 263 418 320 q 435 207 430 207 z "},"§":{"ha":683,"x_min":127,"x_max":555,"o":"m 330 -268 q 211 -229 260 -268 q 163 -134 163 -189 q 177 -87 163 -104 q 217 -71 192 -71 q 252 -84 238 -71 q 267 -121 267 -97 q 257 -166 267 -149 q 248 -201 248 -184 q 267 -234 248 -222 q 316 -247 286 -247 q 389 -216 359 -247 q 419 -134 419 -186 q 405 -63 419 -94 q 359 -2 391 -33 q 272 74 327 30 q 198 138 231 108 q 146 205 165 168 q 127 300 127 243 q 153 399 127 354 q 239 479 178 444 q 192 552 208 515 q 177 635 177 589 q 226 759 177 709 q 353 808 275 808 q 470 769 422 808 q 518 676 518 730 q 465 612 518 612 q 430 625 444 612 q 416 662 416 638 q 425 707 416 689 q 435 743 435 726 q 415 775 435 762 q 366 788 395 788 q 292 758 323 788 q 262 675 262 727 q 276 606 262 635 q 323 544 291 576 q 411 468 356 513 q 486 404 453 434 q 537 336 518 374 q 555 242 555 298 q 530 142 555 188 q 444 62 504 97 q 490 -11 475 26 q 506 -94 506 -49 q 457 -218 506 -169 q 330 -268 408 -268 m 338 157 q 389 116 366 136 q 431 76 412 96 q 467 123 448 93 q 486 189 486 154 q 473 250 486 222 q 431 310 461 278 q 344 385 400 341 q 293 426 316 406 q 251 465 270 446 q 216 418 235 449 q 197 352 197 387 q 209 292 197 319 q 251 232 220 264 q 338 157 282 201 z "},"©":{"ha":1111,"x_min":110,"x_max":1002,"o":"m 555 -16 q 382 19 463 -16 q 240 115 302 54 q 144 257 179 176 q 110 430 110 338 q 144 604 110 523 q 240 746 179 684 q 382 842 302 807 q 555 876 463 876 q 729 842 648 876 q 871 746 810 807 q 967 604 932 684 q 1002 430 1002 523 q 967 257 1002 338 q 871 115 932 176 q 729 19 810 54 q 555 -16 648 -16 m 555 8 q 719 41 643 8 q 852 132 795 74 q 943 267 910 190 q 975 430 975 343 q 943 594 975 517 q 852 728 910 670 q 719 819 795 786 q 555 852 643 852 q 392 819 468 852 q 259 728 316 786 q 169 594 201 670 q 136 430 136 517 q 169 267 136 343 q 259 132 201 190 q 392 41 316 74 q 555 8 468 8 m 563 130 q 445 166 496 130 q 364 268 393 203 q 335 419 335 333 q 366 582 335 511 q 451 692 397 652 q 574 732 505 732 q 660 714 621 732 q 721 668 698 697 q 744 604 744 639 q 729 557 744 574 q 688 540 713 540 q 653 552 667 540 q 639 585 639 565 q 651 634 639 618 q 663 668 663 650 q 638 700 663 686 q 577 713 612 713 q 479 641 514 713 q 444 434 444 568 q 483 234 444 304 q 587 165 522 165 q 673 196 635 165 q 724 291 711 227 l 745 286 q 682 172 732 214 q 563 130 631 130 z "},"®":{"ha":1111,"x_min":239,"x_max":872,"o":"m 556 247 q 397 290 469 247 q 282 404 325 332 q 239 564 239 476 q 282 723 239 651 q 397 838 325 795 q 556 880 469 880 q 715 838 644 880 q 829 723 787 795 q 872 564 872 651 q 829 404 872 476 q 715 290 787 332 q 556 247 644 247 m 556 262 q 707 302 640 262 q 815 412 775 343 q 856 564 856 481 q 815 715 856 647 q 707 825 775 784 q 556 865 640 865 q 405 825 473 865 q 296 715 336 784 q 256 564 256 647 q 296 412 256 481 q 405 302 336 343 q 556 262 473 262 m 401 378 l 401 389 q 436 398 427 391 q 444 432 444 406 l 444 714 q 436 750 444 742 q 401 760 427 759 l 401 769 l 559 769 q 646 744 614 769 q 678 675 678 719 q 652 607 678 635 q 579 570 626 579 q 641 545 623 566 q 669 471 659 523 l 680 418 q 689 401 682 409 q 704 393 695 393 q 729 416 716 393 l 735 408 q 669 368 717 368 q 614 409 623 368 l 593 507 q 579 553 586 539 q 530 567 572 567 l 508 567 l 508 432 q 514 398 508 406 q 546 389 521 391 l 546 379 q 546 378 547 378 l 546 379 q 530 379 544 379 q 473 380 515 380 q 414 379 427 380 q 401 378 401 379 m 535 760 l 508 760 l 508 578 l 535 578 q 592 601 574 578 q 610 671 610 623 q 535 760 610 760 z "},"™":{"ha":1319,"x_min":218,"x_max":1102,"o":"m 852 326 l 838 326 l 689 767 l 689 443 q 702 374 689 389 q 758 351 715 359 l 758 336 q 724 338 743 338 q 687 339 706 339 q 652 338 675 339 q 620 336 629 338 l 620 351 q 664 374 654 359 q 673 443 673 389 l 673 715 q 664 766 673 757 q 620 779 654 775 l 620 793 q 699 789 652 789 q 734 790 720 789 q 764 793 749 791 l 874 454 l 958 790 q 984 789 971 789 q 1014 789 998 789 q 1102 793 1066 789 l 1102 779 q 1058 765 1068 775 q 1048 715 1048 755 l 1048 414 q 1058 363 1048 372 q 1102 351 1068 353 l 1102 336 q 1058 338 1084 338 q 1008 339 1031 339 q 962 338 983 339 q 928 336 941 338 l 928 351 q 958 362 950 353 q 966 414 966 372 l 966 764 l 852 326 m 283 336 l 283 351 q 335 364 321 353 q 349 425 349 375 l 349 775 l 291 775 q 252 739 273 775 q 233 618 231 703 l 218 618 q 223 708 221 661 q 225 793 224 755 q 309 790 262 790 q 391 789 355 789 q 473 790 427 789 q 556 793 519 790 q 559 705 557 751 q 564 618 562 659 l 548 618 q 539 711 550 677 q 514 760 528 745 q 490 775 500 775 l 431 775 l 431 425 q 446 364 431 374 q 498 351 460 353 l 498 336 q 448 338 477 338 q 391 339 420 339 q 329 338 358 339 q 283 336 300 338 z "},"°":{"ha":380,"x_min":62,"x_max":319,"o":"m 189 593 q 100 633 138 593 q 62 739 62 673 q 100 845 62 806 q 190 885 138 885 q 280 845 241 885 q 319 739 319 806 q 280 633 319 673 q 189 593 241 593 m 190 613 q 264 647 233 613 q 296 739 296 681 q 264 831 296 797 q 190 865 232 865 q 116 830 147 865 q 84 739 84 796 q 116 647 84 681 q 190 613 147 613 z "},"|":{"ha":694,"x_min":334,"x_max":360,"o":"m 360 -259 l 334 -259 l 334 961 l 360 961 l 360 -259 z "},"¦":{"ha":72,"x_min":23,"x_max":49,"o":"m 49 430 l 23 430 l 23 961 l 49 961 l 49 430 m 49 -259 l 23 -259 l 23 365 l 49 365 l 49 -259 z "},"†":{"ha":683,"x_min":191,"x_max":492,"o":"m 349 534 l 333 534 q 321 563 323 539 q 318 615 318 587 q 317 665 318 644 q 307 686 315 686 q 314 721 307 701 q 342 741 320 741 q 370 721 363 741 q 377 686 377 701 q 367 665 369 686 q 365 615 365 644 q 361 563 364 587 q 349 534 358 539 m 342 509 l 232 475 l 191 509 l 232 545 l 342 509 l 452 545 l 492 509 l 452 475 l 342 509 m 342 -175 q 323 -100 331 -155 q 311 30 315 -44 q 303 182 306 104 q 300 324 301 260 q 299 422 299 389 q 313 447 311 432 q 321 479 315 462 l 342 488 l 363 479 q 369 448 366 463 q 385 422 372 432 q 384 322 385 387 q 380 180 382 258 q 372 29 377 103 q 360 -100 368 -45 q 342 -175 353 -155 z "},"‡":{"ha":683,"x_min":191,"x_max":492,"o":"m 349 531 l 334 531 q 321 561 323 536 q 318 614 318 585 q 316 664 318 643 q 307 686 315 686 q 314 721 307 701 q 342 741 320 741 q 370 721 363 741 q 377 686 377 701 q 367 664 369 686 q 365 614 365 643 q 361 561 364 585 q 349 531 359 536 m 342 509 l 232 475 l 191 509 l 232 545 l 342 509 l 452 545 l 492 509 l 452 475 l 342 509 m 363 66 l 342 56 l 321 66 q 313 98 315 83 q 299 122 311 113 q 301 162 299 146 q 308 203 304 178 q 319 278 313 228 q 308 351 313 328 q 301 389 304 374 q 299 428 299 404 q 313 452 311 437 q 321 484 315 467 l 342 493 l 363 484 q 369 452 366 467 q 385 428 372 437 q 382 389 385 404 q 376 351 380 374 q 364 276 372 327 q 376 202 372 227 q 382 161 380 177 q 385 122 385 145 q 370 98 372 113 q 363 66 367 83 m 342 39 l 232 5 l 191 40 l 232 75 l 342 40 l 452 75 l 492 40 l 452 5 l 342 39 m 342 -192 q 314 -171 320 -192 q 307 -136 307 -151 q 317 -114 315 -136 q 319 -64 319 -93 q 322 -11 319 -35 q 334 19 325 13 l 351 19 q 363 -11 360 13 q 366 -64 366 -35 q 367 -114 366 -93 q 377 -136 369 -136 q 370 -171 377 -151 q 342 -192 363 -192 z "},"¢":{"ha":683,"x_min":145,"x_max":538,"o":"m 375 -204 l 355 -204 l 355 -16 q 245 22 292 -16 q 172 128 198 60 q 145 285 145 195 q 202 504 145 420 q 355 593 260 587 l 355 793 l 375 793 l 375 593 q 490 552 443 590 q 536 461 536 514 q 522 416 536 433 q 483 399 507 399 q 447 412 461 399 q 433 447 433 426 q 445 495 433 479 q 456 527 456 510 q 430 559 456 546 q 370 573 404 573 q 283 503 313 573 q 253 300 253 433 q 287 94 253 166 q 383 21 320 21 q 469 56 435 21 q 517 153 504 92 l 538 148 q 482 35 527 79 q 375 -15 437 -8 l 375 -204 z "},"¤":{"ha":683,"x_min":124,"x_max":559,"o":"m 199 174 l 149 125 l 130 142 l 180 193 q 138 260 151 222 q 124 336 124 298 q 180 479 124 418 l 130 531 l 147 549 l 197 498 q 342 554 259 554 q 485 496 427 554 l 536 550 l 555 532 l 503 478 q 559 336 559 420 q 544 258 559 294 q 503 193 529 222 l 555 142 l 536 124 l 485 176 q 422 135 460 151 q 342 119 384 119 q 262 134 299 119 q 199 174 226 149 m 342 140 q 440 166 395 140 q 511 238 484 193 q 538 336 538 282 q 511 434 538 389 q 440 506 484 479 q 342 534 395 534 q 243 507 288 534 q 172 434 198 479 q 146 336 146 389 q 173 238 146 282 q 244 166 199 193 q 342 140 288 140 z "},"$":{"ha":683,"x_min":122,"x_max":561,"o":"m 353 -204 l 333 -204 l 333 -16 q 228 5 266 -13 q 169 22 189 22 q 151 12 158 22 q 144 -13 144 1 l 122 -13 q 125 44 124 12 q 127 129 127 77 q 127 266 127 182 l 149 266 q 199 78 150 149 q 326 7 248 7 q 333 7 330 7 l 333 353 q 313 364 323 359 q 183 472 229 408 q 138 614 138 535 q 189 756 138 705 q 325 808 239 808 q 333 808 329 808 l 333 997 l 353 997 l 353 807 q 439 782 410 801 q 482 763 469 763 q 500 776 493 763 q 507 806 507 789 l 529 806 q 525 722 526 772 q 524 573 524 673 l 503 573 q 459 722 502 663 q 353 786 417 782 l 353 465 q 385 446 368 455 q 522 334 483 390 q 561 197 561 277 q 505 43 561 100 q 353 -16 449 -14 l 353 -204 m 221 650 q 333 478 221 556 l 333 786 q 250 744 278 783 q 221 650 221 706 m 467 165 q 353 341 467 267 l 353 10 q 434 63 401 21 q 467 165 467 105 z "},"€":{"ha":684,"x_min":73,"x_max":610,"o":"m 444 -16 q 238 74 319 -16 q 143 329 157 163 l 73 329 l 73 349 l 142 349 q 140 392 140 370 q 142 449 140 421 l 73 449 l 73 469 l 144 469 q 197 649 156 572 q 300 767 238 725 q 439 808 363 808 q 523 791 485 808 q 584 745 561 774 q 607 680 607 716 q 591 629 607 648 q 547 610 575 610 q 511 623 525 610 q 497 656 497 636 q 513 708 497 690 q 529 745 529 725 q 503 776 529 762 q 438 790 476 790 q 310 704 357 790 q 255 469 264 617 l 503 469 l 492 449 l 254 449 q 253 397 253 424 q 254 349 253 372 l 438 349 l 426 329 l 254 329 q 310 87 263 172 q 439 2 357 2 q 505 16 478 2 q 531 47 531 31 q 523 74 531 62 q 508 100 515 85 q 500 136 500 114 q 514 170 500 157 q 549 183 528 183 q 594 164 578 183 q 610 114 610 145 q 561 22 610 60 q 444 -16 512 -16 z "},"£":{"ha":683,"x_min":68,"x_max":615,"o":"m 91 -12 q 77 0 77 -12 q 141 54 77 22 q 158 105 153 79 q 166 174 164 132 q 169 289 169 216 l 169 323 l 68 323 l 68 344 l 169 344 l 169 443 l 68 443 l 68 463 l 169 463 l 169 508 q 225 730 169 652 q 385 808 281 808 q 504 772 457 808 q 551 680 551 735 q 535 629 551 648 q 490 610 518 610 q 441 659 441 610 q 456 708 441 689 q 471 746 471 727 q 457 773 471 762 q 416 785 444 785 q 303 729 334 785 q 273 540 273 673 l 273 463 l 465 463 l 465 443 l 273 443 l 273 356 q 273 344 273 350 l 465 344 l 465 323 l 272 323 q 242 199 267 258 q 163 62 218 140 q 226 109 195 94 q 290 123 257 123 q 357 111 325 123 q 428 87 390 99 q 516 75 466 75 q 558 84 541 75 q 576 107 576 94 q 556 134 576 119 q 516 165 536 148 q 496 201 496 182 q 511 232 496 218 q 549 245 526 245 q 597 219 579 245 q 615 153 615 194 q 594 69 615 107 q 536 7 572 31 q 458 -16 500 -16 q 398 -3 426 -16 q 343 27 370 10 q 288 57 317 44 q 227 70 260 70 q 143 35 178 70 q 116 2 128 16 q 91 -12 104 -12 z "},"¥":{"ha":683,"x_min":12,"x_max":671,"o":"m 193 0 l 193 21 q 264 31 240 24 q 298 61 289 39 q 307 128 307 83 l 307 181 l 130 181 l 130 202 l 307 202 l 307 295 l 304 301 l 130 301 l 130 321 l 295 321 l 127 692 q 98 744 112 727 q 65 766 85 760 q 12 773 45 772 l 12 793 q 73 791 35 792 q 157 789 111 789 q 240 791 206 789 q 297 793 275 792 l 297 773 q 231 751 241 768 q 246 677 221 733 l 394 345 l 519 634 q 528 732 548 701 q 437 772 507 764 l 437 793 q 489 790 459 791 q 563 789 519 789 q 626 790 595 789 q 671 793 656 791 l 671 772 q 596 732 628 764 q 537 633 565 700 l 411 332 l 411 321 l 588 321 l 588 301 l 411 301 l 411 202 l 588 202 l 588 181 l 411 181 l 411 128 q 420 61 411 83 q 454 31 429 39 q 526 21 479 24 l 526 0 q 359 3 475 3 q 193 0 243 3 z "},"+":{"ha":683,"x_min":62,"x_max":622,"o":"m 354 117 l 329 117 l 329 386 l 62 386 l 62 409 l 329 409 l 329 679 l 354 679 l 354 409 l 622 409 l 622 386 l 354 386 l 354 117 z "},"−":{"ha":707,"x_min":73,"x_max":633,"o":"m 633 386 l 73 386 l 73 409 l 633 409 l 633 386 z "},"×":{"ha":683,"x_min":126,"x_max":557,"o":"m 342 381 l 144 182 l 126 199 l 326 398 l 126 598 l 142 615 l 342 416 l 540 612 l 557 595 l 359 399 l 557 201 l 540 184 l 342 381 z "},"÷":{"ha":683,"x_min":62,"x_max":622,"o":"m 340 519 q 296 538 315 519 q 277 584 277 557 q 296 630 277 611 q 340 649 315 649 q 388 630 368 649 q 407 584 407 611 q 388 538 407 557 q 340 519 368 519 m 622 386 l 62 386 l 62 409 l 622 409 l 622 386 m 340 145 q 296 164 315 145 q 277 211 277 184 q 296 257 277 237 q 340 276 315 276 q 388 257 368 276 q 407 211 407 237 q 388 164 407 184 q 340 145 368 145 z "},"=":{"ha":683,"x_min":62,"x_max":622,"o":"m 622 477 l 62 477 l 62 500 l 622 500 l 622 477 m 622 296 l 62 296 l 62 319 l 622 319 l 622 296 z "},"≠":{"ha":683,"x_min":62,"x_max":622,"o":"m 622 296 l 298 296 l 212 148 l 191 160 l 270 296 l 62 296 l 62 319 l 283 319 l 374 477 l 62 477 l 62 500 l 388 500 l 473 647 l 493 634 l 416 500 l 622 500 l 622 477 l 402 477 l 311 319 l 622 319 l 622 296 z "},">":{"ha":683,"x_min":63,"x_max":620,"o":"m 75 143 l 63 167 l 557 397 l 63 629 l 75 652 l 620 397 l 75 143 z "},"<":{"ha":683,"x_min":63,"x_max":620,"o":"m 620 167 l 608 143 l 63 397 l 608 652 l 620 629 l 125 397 l 620 167 z "},"≥":{"ha":683,"x_min":62,"x_max":622,"o":"m 64 167 l 559 397 l 64 629 l 76 652 l 621 397 l 76 143 l 64 167 m 62 5 l 62 28 l 622 28 l 622 5 l 62 5 z "},"≤":{"ha":683,"x_min":58,"x_max":625,"o":"m 625 167 l 613 143 l 68 397 l 613 652 l 625 629 l 130 397 l 625 167 m 618 5 l 58 5 l 58 28 l 618 28 l 618 5 z "},"±":{"ha":683,"x_min":62,"x_max":622,"o":"m 354 117 l 329 117 l 329 386 l 62 386 l 62 409 l 329 409 l 329 679 l 354 679 l 354 409 l 622 409 l 622 386 l 354 386 l 354 117 m 622 5 l 62 5 l 62 28 l 622 28 l 622 5 z "},"≈":{"ha":683,"x_min":42,"x_max":642,"o":"m 464 396 q 388 410 423 396 q 318 442 352 424 q 252 474 285 460 q 182 488 218 488 q 55 422 107 488 l 42 431 q 218 556 108 556 q 297 542 260 556 q 367 510 333 528 q 433 477 400 491 q 499 463 465 463 q 625 532 574 463 l 642 524 q 464 396 576 396 m 464 242 q 387 256 422 242 q 317 288 351 270 q 251 320 283 307 q 184 334 218 334 q 58 265 109 334 l 42 275 q 219 403 106 403 q 295 389 260 403 q 365 356 331 374 q 432 323 398 338 q 501 309 465 309 q 627 377 575 309 l 642 368 q 464 242 576 242 z "},"~":{"ha":926,"x_min":213,"x_max":713,"o":"m 573 261 q 505 274 534 261 q 448 302 475 286 q 393 331 421 319 q 328 344 364 344 q 264 322 287 344 q 233 266 242 300 l 213 275 q 256 375 222 339 q 351 411 290 411 q 420 398 390 411 q 477 370 450 386 q 533 341 505 353 q 597 328 562 328 q 663 350 637 328 q 692 406 688 372 l 713 397 q 672 297 709 334 q 573 261 636 261 z "},"¬":{"ha":694,"x_min":67,"x_max":627,"o":"m 627 171 l 602 171 l 602 391 l 67 391 l 67 414 l 627 414 l 627 171 z "},"^":{"ha":694,"x_min":151,"x_max":545,"o":"m 330 486 l 161 353 l 151 368 l 340 597 l 359 597 l 545 372 l 534 355 l 330 486 z "},"∞":{"ha":926,"x_min":121,"x_max":805,"o":"m 248 260 q 154 300 188 260 q 121 393 121 340 q 159 493 121 455 q 253 530 198 530 q 354 503 309 530 q 446 433 399 475 q 566 501 506 469 q 677 533 625 533 q 771 493 738 533 q 805 401 805 454 q 766 301 805 339 q 671 264 727 264 q 571 291 616 264 q 479 361 526 319 q 360 292 419 324 q 248 260 300 260 m 150 416 q 172 364 150 386 q 233 342 194 342 q 327 367 277 342 q 429 422 376 391 q 350 484 392 458 q 256 510 309 510 q 182 483 214 510 q 150 416 150 456 m 690 451 q 596 427 646 451 q 496 372 547 404 q 574 310 532 336 q 669 284 616 284 q 744 311 712 284 q 776 377 776 337 q 753 429 776 408 q 690 451 730 451 z "},"∫":{"ha":696,"x_min":122,"x_max":574,"o":"m 234 -268 q 153 -243 184 -268 q 122 -178 122 -219 q 138 -126 122 -146 q 179 -106 153 -106 q 215 -120 201 -106 q 228 -155 228 -134 q 214 -200 228 -182 q 199 -235 199 -217 q 218 -247 199 -247 q 266 -227 249 -247 q 291 -157 283 -207 q 298 -21 298 -108 l 298 633 q 340 813 298 750 q 463 876 382 876 q 543 852 512 876 q 574 786 574 828 q 559 735 574 755 q 517 715 543 715 q 481 728 495 715 q 468 764 468 742 q 482 808 468 790 q 496 844 496 825 q 478 855 496 855 q 415 807 432 855 q 399 629 399 760 l 399 -24 q 356 -204 399 -141 q 234 -268 313 -268 z "},"∏":{"ha":926,"x_min":122,"x_max":804,"o":"m 122 -259 l 122 -238 q 182 -228 163 -235 q 208 -201 202 -220 q 214 -142 214 -181 l 214 676 q 208 735 214 715 q 182 762 202 755 q 122 772 163 770 l 122 793 q 141 792 131 793 q 178 792 152 792 q 258 791 204 791 q 353 792 296 791 q 465 793 410 793 q 576 792 519 793 q 667 791 633 791 q 735 792 692 791 q 804 793 777 792 l 804 772 q 745 762 764 770 q 719 735 725 755 q 713 676 713 715 l 713 -142 q 719 -201 713 -181 q 745 -228 725 -220 q 804 -238 764 -235 l 804 -259 q 745 -256 782 -257 q 659 -256 709 -256 q 582 -256 616 -256 q 526 -259 548 -257 l 526 -238 q 580 -228 562 -235 q 603 -201 597 -220 q 609 -142 609 -181 l 609 772 l 318 772 l 318 -142 q 323 -201 318 -181 q 347 -228 329 -220 q 401 -238 365 -235 l 401 -259 q 344 -256 378 -257 q 267 -256 309 -256 q 181 -256 218 -256 q 122 -259 144 -257 z "},"∑":{"ha":926,"x_min":211,"x_max":715,"o":"m 569 425 l 227 5 l 227 3 l 211 -14 l 227 5 l 227 21 l 487 361 l 233 772 l 233 793 q 345 790 286 790 q 460 789 405 789 q 567 790 507 789 q 673 793 626 790 q 680 688 676 741 q 690 585 684 635 l 669 585 q 645 704 659 664 q 605 756 631 743 q 529 770 578 770 l 356 770 l 569 425 m 227 0 l 227 3 l 308 92 l 506 92 q 612 108 577 92 q 663 161 647 123 q 694 264 680 199 l 715 264 q 705 133 709 199 q 698 0 701 66 q 577 3 644 3 q 457 3 509 3 q 341 3 401 3 q 227 0 280 3 z "},"√":{"ha":926,"x_min":121,"x_max":804,"o":"m 404 -5 l 271 325 q 243 387 256 360 q 204 431 231 414 q 121 454 177 448 l 121 475 q 189 470 153 472 q 264 468 224 468 q 310 470 288 468 q 355 475 332 472 l 355 454 q 339 433 345 449 q 347 382 334 416 l 441 140 l 625 840 q 635 900 634 878 q 606 924 635 922 l 606 945 q 640 944 614 945 q 697 944 665 944 q 756 945 728 945 q 796 945 783 945 l 804 945 l 804 923 q 739 919 760 921 q 702 913 718 917 q 666 893 677 909 q 643 831 655 878 l 423 -5 q 404 -5 413 -4 z "},"∂":{"ha":694,"x_min":142,"x_max":553,"o":"m 314 -16 q 189 46 237 -16 q 142 208 142 107 q 175 366 142 294 q 264 482 209 438 q 385 526 319 526 q 528 355 501 526 q 533 451 533 403 q 494 653 533 583 q 381 723 456 723 q 310 708 350 723 q 233 668 269 694 l 223 680 q 405 808 324 808 q 514 715 474 808 q 553 458 553 622 q 524 208 553 315 q 440 43 494 102 q 314 -16 387 -16 m 248 193 q 272 65 248 110 q 339 20 296 20 q 418 60 380 20 q 483 169 455 100 q 524 324 511 238 q 486 443 515 397 q 413 489 456 489 q 330 449 368 489 q 270 342 292 410 q 248 193 248 275 z "},"%":{"ha":1027,"x_min":184,"x_max":844,"o":"m 348 311 q 229 349 274 311 q 184 448 184 386 q 232 553 184 513 q 355 593 279 593 q 463 564 419 593 q 528 542 492 550 q 593 533 564 533 q 715 593 671 533 l 727 584 l 315 -16 l 304 -7 l 692 560 q 591 519 652 519 q 484 547 537 519 q 519 455 519 510 q 472 351 519 391 q 348 311 424 311 m 354 326 q 440 452 440 326 q 417 545 440 513 q 349 578 393 578 q 263 454 263 578 q 354 326 263 326 m 673 -16 q 555 22 600 -16 q 510 121 510 59 q 558 225 510 186 q 680 265 606 265 q 799 228 755 265 q 844 127 844 190 q 797 24 844 64 q 673 -16 750 -16 m 680 -1 q 766 125 766 -1 q 675 251 766 251 q 589 127 589 251 q 680 -1 589 -1 z "},"‰":{"ha":1555,"x_min":254,"x_max":1301,"o":"m 418 311 q 299 349 344 311 q 254 448 254 386 q 302 553 254 513 q 425 593 349 593 q 533 564 489 593 q 597 542 562 550 q 663 533 633 533 q 785 593 741 533 l 797 584 l 385 -16 l 374 -7 l 762 560 q 661 519 722 519 q 553 547 607 519 q 589 455 589 510 q 542 351 589 391 q 418 311 494 311 m 424 326 q 510 452 510 326 q 487 545 510 513 q 419 578 463 578 q 333 454 333 578 q 424 326 333 326 m 743 -16 q 625 22 670 -16 q 580 121 580 59 q 628 225 580 186 q 750 265 675 265 q 869 228 825 265 q 913 127 913 190 q 867 24 913 64 q 743 -16 820 -16 m 1131 -16 q 1013 22 1057 -16 q 968 121 968 59 q 1016 225 968 186 q 1138 265 1063 265 q 1257 228 1213 265 q 1301 127 1301 190 q 1254 24 1301 64 q 1131 -16 1207 -16 m 750 -1 q 836 125 836 -1 q 745 251 836 251 q 659 127 659 251 q 750 -1 659 -1 m 1138 -1 q 1223 125 1223 -1 q 1133 251 1223 251 q 1046 127 1046 251 q 1138 -1 1046 -1 z "},"◊":{"ha":926,"x_min":258,"x_max":668,"o":"m 471 -201 l 453 -201 l 258 275 l 454 799 l 474 799 l 668 323 l 471 -201 m 321 372 l 497 -71 l 604 223 l 429 665 l 321 372 z "},"̈":{"ha":458,"x_min":62,"x_max":396,"o":"m 332 721 q 285 740 304 721 q 267 785 267 758 q 285 831 267 812 q 332 850 304 850 q 377 831 359 850 q 396 785 396 812 q 377 740 396 758 q 332 721 359 721 m 127 721 q 81 740 100 721 q 62 785 62 758 q 81 831 62 812 q 127 850 100 850 q 173 831 154 850 q 192 785 192 812 q 173 740 192 758 q 127 721 154 721 z "},"̇":{"ha":254,"x_min":62,"x_max":191,"o":"m 127 714 q 81 735 100 714 q 62 785 62 757 q 81 835 62 814 q 127 855 100 855 q 172 835 153 855 q 191 785 191 814 q 172 735 191 757 q 127 714 153 714 z "},"̀":{"ha":236,"x_min":7,"x_max":187,"o":"m 187 684 l 175 673 q 101 724 128 694 q 56 781 73 754 q 23 821 39 808 q 11 863 7 840 q 32 901 15 885 q 70 920 48 918 q 106 905 92 921 q 120 870 117 895 q 126 814 122 846 q 142 749 130 783 q 187 684 155 715 z "},"́":{"ha":236,"x_min":25,"x_max":203,"o":"m 37 681 l 25 694 q 67 755 55 723 q 83 818 79 787 q 89 871 87 848 q 102 907 92 895 q 139 922 118 924 q 177 903 160 920 q 198 864 193 886 q 185 823 203 842 q 153 784 170 810 q 110 730 137 758 q 37 681 83 702 z "},"̋":{"ha":408,"x_min":25,"x_max":376,"o":"m 205 670 l 194 684 q 239 748 226 715 q 255 813 252 782 q 261 869 258 845 q 275 907 264 894 q 313 921 292 924 q 351 902 334 919 q 372 865 368 886 q 359 823 376 844 q 325 780 342 807 q 281 723 308 753 q 205 670 254 693 m 37 670 l 25 684 q 70 748 57 715 q 86 813 83 782 q 92 869 90 845 q 104 907 94 894 q 142 921 121 924 q 181 902 163 918 q 203 864 199 886 q 189 823 207 842 q 156 780 173 807 q 112 723 139 752 q 37 670 85 693 z "},"̂":{"ha":368,"x_min":34,"x_max":335,"o":"m 335 694 l 323 680 l 166 827 l 47 680 l 34 698 l 175 916 l 195 916 l 335 694 z "},"̌":{"ha":368,"x_min":34,"x_max":334,"o":"m 334 905 l 194 687 l 174 687 l 34 908 l 46 923 l 203 776 l 322 923 l 334 905 z "},"̆":{"ha":404,"x_min":45,"x_max":358,"o":"m 201 691 q 95 733 138 691 q 45 854 52 774 l 60 865 q 117 787 81 812 q 201 762 153 762 q 286 787 250 762 q 344 865 322 812 l 358 854 q 309 732 352 774 q 201 691 266 691 z "},"̊":{"ha":263,"x_min":20,"x_max":245,"o":"m 131 672 q 54 702 88 672 q 20 784 20 732 q 54 864 20 834 q 131 895 88 895 q 210 865 175 895 q 245 784 245 835 q 210 702 245 732 q 131 672 175 672 m 131 690 q 196 716 168 690 q 224 783 224 741 q 196 852 224 827 q 131 877 168 877 q 68 852 96 877 q 40 783 40 827 q 68 716 40 741 q 131 690 96 690 z "},"̃":{"ha":387,"x_min":7,"x_max":382,"o":"m 261 708 q 202 727 227 708 q 154 765 177 746 q 100 783 130 783 q 23 709 47 783 l 7 711 q 54 816 23 777 q 127 854 84 854 q 187 836 162 854 q 235 798 212 817 q 289 779 258 779 q 366 853 343 779 l 382 851 q 335 743 367 779 q 261 708 303 708 z "},"̄":{"ha":340,"x_min":21,"x_max":321,"o":"m 321 772 l 21 772 l 21 794 l 321 794 l 321 772 z "},"̧":{"ha":273,"x_min":34,"x_max":240,"o":"m 106 -275 q 64 -271 86 -275 q 34 -259 42 -267 l 37 -245 q 74 -254 52 -254 q 137 -232 113 -254 q 161 -169 161 -210 q 148 -131 161 -144 q 114 -117 135 -117 q 92 -118 104 -117 q 75 -121 79 -120 l 117 -6 l 134 -6 l 96 -109 q 129 -90 112 -97 q 167 -83 146 -83 q 220 -106 199 -83 q 240 -165 240 -129 q 202 -245 240 -215 q 106 -275 164 -275 z "},"̨":{"ha":239,"x_min":20,"x_max":210,"o":"m 95 -275 q 41 -251 62 -275 q 20 -186 20 -228 q 57 -91 20 -136 q 186 -2 94 -46 l 188 1 l 191 -1 l 199 -1 q 197 -3 198 -1 q 191 -1 197 -5 l 188 -1 l 186 -2 q 131 -83 153 -50 q 109 -156 109 -115 q 144 -232 109 -232 q 176 -222 160 -232 q 201 -189 193 -212 l 210 -208 q 161 -258 192 -241 q 95 -275 130 -275 z "},"̷":{"ha":519,"x_min":35,"x_max":487,"o":"m 487 658 l 401 491 l 389 506 l 472 675 l 487 658 m 387 488 l 146 74 l 136 87 l 376 503 l 387 488 m 138 68 l 50 -72 l 35 -59 l 125 81 l 138 68 z "},"̸":{"ha":710,"x_min":79,"x_max":630,"o":"m 630 843 l 538 675 l 523 690 l 611 861 l 630 843 m 528 674 l 207 80 l 190 93 l 513 689 l 528 674 m 198 70 l 97 -87 l 79 -68 l 181 84 l 198 70 z "},"¨":{"ha":694,"x_min":62,"x_max":396,"o":"m 332 721 q 285 740 304 721 q 267 785 267 758 q 285 831 267 812 q 332 850 304 850 q 377 831 359 850 q 396 785 396 812 q 377 740 396 758 q 332 721 359 721 m 127 721 q 81 740 100 721 q 62 785 62 758 q 81 831 62 812 q 127 850 100 850 q 173 831 154 850 q 192 785 192 812 q 173 740 192 758 q 127 721 154 721 z "},"˙":{"ha":694,"x_min":83,"x_max":214,"o":"m 149 714 q 102 735 121 714 q 83 785 83 757 q 102 835 83 814 q 149 855 121 855 q 194 835 175 855 q 214 785 214 814 q 194 735 214 757 q 149 714 175 714 z "},"`":{"ha":694,"x_min":41,"x_max":222,"o":"m 222 684 l 210 673 q 136 724 163 694 q 91 781 108 754 q 57 821 73 808 q 45 863 41 840 q 66 901 49 885 q 104 920 82 918 q 140 905 125 921 q 154 870 151 895 q 160 814 157 846 q 177 749 164 783 q 222 684 191 715 z "},"´":{"ha":694,"x_min":50,"x_max":228,"o":"m 62 681 l 50 694 q 92 755 80 723 q 108 818 104 787 q 114 871 112 848 q 127 907 117 895 q 164 922 143 924 q 202 903 185 920 q 223 864 218 886 q 210 823 228 842 q 178 784 195 810 q 135 730 162 758 q 62 681 109 702 z "},"˝":{"ha":694,"x_min":25,"x_max":376,"o":"m 205 670 l 194 684 q 239 748 226 715 q 255 813 252 782 q 261 869 258 845 q 275 907 264 894 q 313 921 292 924 q 351 902 334 919 q 372 865 368 886 q 359 823 376 844 q 325 780 342 807 q 281 723 308 753 q 205 670 254 693 m 37 670 l 25 684 q 70 748 57 715 q 86 813 83 782 q 92 869 90 845 q 104 907 94 894 q 142 921 121 924 q 181 902 163 918 q 203 864 199 886 q 189 823 207 842 q 156 780 173 807 q 112 723 139 752 q 37 670 85 693 z "},"ˆ":{"ha":694,"x_min":34,"x_max":335,"o":"m 335 694 l 323 680 l 166 827 l 47 680 l 34 698 l 175 916 l 195 916 l 335 694 z "},"ˇ":{"ha":694,"x_min":34,"x_max":334,"o":"m 334 905 l 194 687 l 174 687 l 34 908 l 46 923 l 203 776 l 322 923 l 334 905 z "},"˘":{"ha":694,"x_min":45,"x_max":358,"o":"m 201 691 q 95 733 138 691 q 45 854 52 774 l 60 865 q 117 787 81 812 q 201 762 153 762 q 286 787 250 762 q 344 865 322 812 l 358 854 q 309 732 352 774 q 201 691 266 691 z "},"˚":{"ha":694,"x_min":20,"x_max":245,"o":"m 131 672 q 54 702 88 672 q 20 784 20 732 q 54 864 20 834 q 131 895 88 895 q 210 865 175 895 q 245 784 245 835 q 210 702 245 732 q 131 672 175 672 m 131 690 q 196 716 168 690 q 224 783 224 741 q 196 852 224 827 q 131 877 168 877 q 68 852 96 877 q 40 783 40 827 q 68 716 40 741 q 131 690 96 690 z "},"˜":{"ha":694,"x_min":7,"x_max":382,"o":"m 261 708 q 202 727 227 708 q 154 765 177 746 q 100 783 130 783 q 23 709 47 783 l 7 711 q 54 816 23 777 q 127 854 84 854 q 187 836 162 854 q 235 798 212 817 q 289 779 258 779 q 366 853 343 779 l 382 851 q 335 743 367 779 q 261 708 303 708 z "},"ˉ":{"ha":694,"x_min":21,"x_max":321,"o":"m 321 772 l 21 772 l 21 794 l 321 794 l 321 772 z "},"¸":{"ha":694,"x_min":10,"x_max":216,"o":"m 81 -275 q 40 -271 62 -275 q 10 -259 18 -267 l 14 -245 q 50 -254 27 -254 q 113 -232 89 -254 q 137 -169 137 -210 q 124 -131 137 -144 q 90 -117 111 -117 q 67 -118 80 -117 q 50 -121 54 -120 l 92 -6 l 109 -6 l 72 -109 q 104 -90 87 -97 q 142 -83 121 -83 q 196 -106 175 -83 q 216 -165 216 -129 q 178 -245 216 -215 q 81 -275 140 -275 z "},"˛":{"ha":694,"x_min":20,"x_max":210,"o":"m 95 -275 q 41 -251 62 -275 q 20 -186 20 -228 q 57 -91 20 -136 q 186 -2 94 -46 l 188 1 l 191 -1 l 199 -1 q 197 -3 198 -1 q 191 -1 197 -5 l 188 -1 l 186 -2 q 131 -83 153 -50 q 109 -156 109 -115 q 144 -232 109 -232 q 176 -222 160 -232 q 201 -189 193 -212 l 210 -208 q 161 -258 192 -241 q 95 -275 130 -275 z "},"":{"ha":695,"x_min":56,"x_max":636,"o":"m 636 0 l 56 0 l 56 865 l 636 865 l 636 0 m 111 817 l 111 48 l 582 48 l 582 817 l 111 817 z "},"":{"ha":926,"x_min":56,"x_max":857,"o":"m 857 0 l 56 0 l 56 865 l 857 865 l 857 0 m 111 817 l 111 48 l 802 48 l 802 817 l 111 817 z "}}}
